SplineFontDB: 3.2
FontName: GoogleSans18pt
FullName: Google Sans 18pt
FamilyName: Google Sans 18pt
Weight: Regular
Copyright: Copyright 2015 Google LLC. All Rights Reserved.
Version: 12.000;[9b76f496a]
ItalicAngle: 0
UnderlinePosition: -206.848
UnderlineWidth: 86.016
Ascent: 819
Descent: 205
InvalidEm: 0
sfntRevision: 0x000c0000
LayerCount: 2
Layer: 0 1 "Back" 1
Layer: 1 1 "Fore" 0
XUID: [1021 950 161365953 3182292]
StyleMap: 0x0040
FSType: 0
OS2Version: 4
OS2_WeightWidthSlopeOnly: 0
OS2_UseTypoMetrics: 1
CreationTime: 1499334104
PfmFamily: 81
TTFWeight: 400
TTFWidth: 5
LineGap: 0
VLineGap: 0
Panose: 0 0 0 0 0 0 0 0 0 0
OS2TypoAscent: 989
OS2TypoAOffset: 0
OS2TypoDescent: -293
OS2TypoDOffset: 0
OS2TypoLinegap: 0
OS2WinAscent: 1355
OS2WinAOffset: 0
OS2WinDescent: 1105
OS2WinDOffset: 0
HheadAscent: 989
HheadAOffset: 0
HheadDescent: -293
HheadDOffset: 0
OS2SubXSize: 666
OS2SubYSize: 614
OS2SubXOff: 0
OS2SubYOff: 77
OS2SupXSize: 666
OS2SupYSize: 614
OS2SupXOff: 0
OS2SupYOff: 358
OS2StrikeYSize: 86
OS2StrikeYPos: 313
OS2CapHeight: 733
OS2XHeight: 522
OS2Vendor: 'GOOG'
OS2CodePages: 200101bf.00000000
OS2UnicodeRanges: 80000067.0000006a.00000028.00000000
Lookup: 1 0 0 "'rtla' Right to Left Alternates lookup 0" { "'rtla' Right to Left Alternates lookup 0 subtable"  } ['rtla' ('DFLT' <'dflt' > ) ]
Lookup: 1 0 0 "<6,0> Monospaced Numbers lookup 1" { "<6,0> Monospaced Numbers lookup 1 subtable"  } [<6,0> ('DFLT' <'dflt' > ) 'tnum' ('DFLT' <'dflt' > ) ]
Lookup: 254 0 0 "<11,2> Diagonal Fractions lookup 2" { "<11,2> Diagonal Fractions lookup 2 subtable"  } [<11,2> ('DFLT' <'dflt' > ) ]
Lookup: 1 0 0 "<11,2> Diagonal Fractions lookup 2 nested-substitutions 0" { "<11,2> Diagonal Fractions lookup 2 nested-substitutions 0 subtable"  } []
Lookup: 254 0 0 "<11,2> Diagonal Fractions lookup 4" { "<11,2> Diagonal Fractions lookup 4 subtable"  } [<11,2> ('DFLT' <'dflt' > ) ]

StartChar: .notdef
Encoding: 65536 -1 0
Width: 593
GlyphClass: 1
Flags: W
LayerCount: 2
UndoRedoHistory
Layer: 0
Undoes
UndoOperation
Index: 0
Type: 1
WasModified: 0
WasOrder2: 1
Layer: 2
Width: 580
VWidth: 1000
LBearingChange: 0
UnicodeEnc: 0
InstructionsLength: 0
EndUndoOperation
EndUndoes
Redoes
EndRedoes
EndUndoRedoHistory
UndoRedoHistory
Layer: 1
Undoes
UndoOperation
Index: 0
Type: 3
WasModified: 0
WasOrder2: 1
Layer: 2
EndUndoOperation
EndUndoes
Redoes
EndRedoes
EndUndoRedoHistory
Fore
SplineSet
81 0 m 1,0,1
 81 0 81 0 81 733 c 1,2,3
 81 733 81 733 513 733 c 1,4,5
 513 733 513 733 513 0 c 1,6,7
 513 0 513 0 81 0 c 1,0,1
146 61 m 1,8,9
 146 61 146 61 447 61 c 1,10,11
 447 61 447 61 447 672 c 1,12,13
 447 672 447 672 146 672 c 1,14,15
 146 671 146 671 146 61 c 1,8,9
EndSplineSet
EndChar

StartChar: exclam
Encoding: 33 33 4
Width: 241
GlyphClass: 1
Flags: W
LayerCount: 2
UndoRedoHistory
Layer: 0
Undoes
UndoOperation
Index: 0
Type: 1
WasModified: 0
WasOrder2: 1
Layer: 2
Width: 236
VWidth: 1000
LBearingChange: 0
UnicodeEnc: 0
InstructionsLength: 0
EndUndoOperation
EndUndoes
Redoes
EndRedoes
EndUndoRedoHistory
UndoRedoHistory
Layer: 1
Undoes
UndoOperation
Index: 0
Type: 3
WasModified: 0
WasOrder2: 1
Layer: 2
EndUndoOperation
EndUndoes
Redoes
EndRedoes
EndUndoRedoHistory
Fore
SplineSet
87 216 m 1,0,-1
 78 484 l 1,1,-1
 78 733 l 1,2,-1
 164 733 l 1,3,-1
 164 484 l 1,4,-1
 154 216 l 1,5,-1
 87 216 l 1,0,-1
121 -6 m 256,6,7
 93 -6 93 -6 74 13 c 128,-1,8
 55 32 55 32 55 59 c 0,9,10
 55 86 55 86 74 105 c 128,-1,11
 93 124 93 124 121 124 c 256,12,13
 149 124 149 124 167.5 105 c 128,-1,14
 186 86 186 86 186 59 c 0,15,16
 186 31 186 31 167.5 12.5 c 128,-1,17
 149 -6 149 -6 121 -6 c 256,6,7
EndSplineSet
EndChar

StartChar: quotedbl
Encoding: 34 34 5
Width: 327
GlyphClass: 1
Flags: W
LayerCount: 2
UndoRedoHistory
Layer: 0
Undoes
UndoOperation
Index: 0
Type: 1
WasModified: 0
WasOrder2: 1
Layer: 2
Width: 320
VWidth: 1000
LBearingChange: 0
UnicodeEnc: 0
InstructionsLength: 0
EndUndoOperation
EndUndoes
Redoes
EndRedoes
EndUndoRedoHistory
UndoRedoHistory
Layer: 1
Undoes
UndoOperation
Index: 0
Type: 3
WasModified: 0
WasOrder2: 1
Layer: 2
EndUndoOperation
EndUndoes
Redoes
EndRedoes
EndUndoRedoHistory
Fore
SplineSet
198 507 m 1,0,-1
 198 733 l 1,1,-1
 276 733 l 1,2,-1
 276 507 l 1,3,-1
 198 507 l 1,0,-1
51 507 m 1,4,-1
 51 733 l 1,5,-1
 130 733 l 1,6,-1
 130 507 l 1,7,-1
 51 507 l 1,4,-1
EndSplineSet
EndChar

StartChar: numbersign
Encoding: 35 35 6
Width: 655
GlyphClass: 1
Flags: W
LayerCount: 2
UndoRedoHistory
Layer: 0
Undoes
UndoOperation
Index: 0
Type: 1
WasModified: 0
WasOrder2: 1
Layer: 2
Width: 640
VWidth: 1000
LBearingChange: 0
UnicodeEnc: 0
InstructionsLength: 0
EndUndoOperation
EndUndoes
Redoes
EndRedoes
EndUndoRedoHistory
UndoRedoHistory
Layer: 1
Undoes
UndoOperation
Index: 0
Type: 3
WasModified: 0
WasOrder2: 1
Layer: 2
EndUndoOperation
EndUndoes
Redoes
EndRedoes
EndUndoRedoHistory
Fore
SplineSet
126 0 m 1,0,-1
 230 733 l 1,1,-1
 307 733 l 1,2,-1
 203 0 l 1,3,-1
 126 0 l 1,0,-1
74 508 m 1,4,-1
 625 508 l 1,5,-1
 613 436 l 1,6,-1
 62 436 l 1,7,-1
 74 508 l 1,4,-1
347 0 m 1,8,-1
 452 733 l 1,9,-1
 528 733 l 1,10,-1
 424 0 l 1,11,-1
 347 0 l 1,8,-1
43 283 m 1,12,-1
 594 283 l 1,13,-1
 583 211 l 1,14,-1
 31 211 l 1,15,-1
 43 283 l 1,12,-1
EndSplineSet
Substitution2: "<6,0> Monospaced Numbers lookup 22 subtable" numbersign.tf
EndChar

StartChar: dollar
Encoding: 36 36 7
Width: 552
GlyphClass: 1
Flags: W
LayerCount: 2
UndoRedoHistory
Layer: 0
Undoes
UndoOperation
Index: 0
Type: 1
WasModified: 0
WasOrder2: 1
Layer: 2
Width: 540
VWidth: 1000
LBearingChange: 0
UnicodeEnc: 0
InstructionsLength: 0
EndUndoOperation
EndUndoes
Redoes
EndRedoes
EndUndoRedoHistory
UndoRedoHistory
Layer: 1
Undoes
UndoOperation
Index: 0
Type: 3
WasModified: 0
WasOrder2: 1
Layer: 2
EndUndoOperation
EndUndoes
Redoes
EndRedoes
EndUndoRedoHistory
Fore
SplineSet
274 -14 m 0,0,1
 238 -14 238 -14 200.5 -2.5 c 128,-1,2
 163 9 163 9 128.5 33 c 128,-1,3
 94 57 94 57 68 94 c 128,-1,4
 42 131 42 131 30 180 c 1,5,-1
 104 212 l 1,6,7
 115 172 115 172 140 138 c 128,-1,8
 165 104 165 104 199.5 83.5 c 128,-1,9
 234 63 234 63 273 63 c 0,10,11
 315 63 315 63 349 78 c 128,-1,12
 383 93 383 93 403.5 122 c 128,-1,13
 424 151 424 151 424 190 c 0,14,15
 424 224 424 224 406.5 248 c 128,-1,16
 389 272 389 272 359 291 c 128,-1,17
 329 310 329 310 290 327 c 2,18,-1
 248 344 l 2,19,20
 204 361 204 361 168.5 382 c 128,-1,21
 133 403 133 403 108 428.5 c 128,-1,22
 83 454 83 454 69.5 485 c 128,-1,23
 56 516 56 516 56 555 c 0,24,25
 56 606 56 606 82.5 650 c 128,-1,26
 109 694 109 694 157.5 721.5 c 128,-1,27
 206 749 206 749 273 749 c 256,28,29
 341 749 341 749 386 724.5 c 128,-1,30
 431 700 431 700 456.5 666 c 128,-1,31
 482 632 482 632 492 601 c 1,32,-1
 416 568 l 1,33,34
 410 590 410 590 393 613 c 128,-1,35
 376 636 376 636 346.5 652.5 c 128,-1,36
 317 669 317 669 274 669 c 0,37,38
 218 669 218 669 179 636 c 128,-1,39
 140 603 140 603 140 555 c 0,40,41
 140 523 140 523 156.5 500 c 128,-1,42
 173 477 173 477 203.5 458.5 c 128,-1,43
 234 440 234 440 275 423 c 2,44,-1
 309 409 l 2,45,46
 361 387 361 387 406.5 359.5 c 128,-1,47
 452 332 452 332 479.5 292.5 c 128,-1,48
 507 253 507 253 507 194 c 0,49,50
 507 140 507 140 487 100 c 128,-1,51
 467 60 467 60 433 35 c 128,-1,52
 399 10 399 10 357.5 -2 c 128,-1,53
 316 -14 316 -14 274 -14 c 0,0,1
246 -82 m 1,54,-1
 246 815 l 1,55,-1
 317 815 l 1,56,-1
 317 -82 l 1,57,-1
 246 -82 l 1,54,-1
EndSplineSet
Substitution2: "<6,0> Monospaced Numbers lookup 22 subtable" dollar.tf
EndChar

StartChar: ampersand
Encoding: 38 38 9
Width: 637
GlyphClass: 1
Flags: W
LayerCount: 2
UndoRedoHistory
Layer: 0
Undoes
UndoOperation
Index: 0
Type: 1
WasModified: 0
WasOrder2: 1
Layer: 2
Width: 623
VWidth: 1000
LBearingChange: 0
UnicodeEnc: 0
InstructionsLength: 0
EndUndoOperation
EndUndoes
Redoes
EndRedoes
EndUndoRedoHistory
UndoRedoHistory
Layer: 1
Undoes
UndoOperation
Index: 0
Type: 3
WasModified: 0
WasOrder2: 1
Layer: 2
EndUndoOperation
EndUndoes
Redoes
EndRedoes
EndUndoRedoHistory
Fore
SplineSet
531 -16 m 1,0,-1
 171 459 l 2,1,2
 147 491 147 491 132.5 521 c 128,-1,3
 118 551 118 551 118 583 c 0,4,5
 118 629 118 629 141.5 667 c 128,-1,6
 165 705 165 705 205 727.5 c 128,-1,7
 245 750 245 750 292 750 c 0,8,9
 359 750 359 750 398.5 712 c 128,-1,10
 438 674 438 674 455 626 c 1,11,-1
 380 586 l 1,12,13
 374 604 374 604 363 622.5 c 128,-1,14
 352 641 352 641 335 654 c 128,-1,15
 318 667 318 667 292 667 c 0,16,17
 255 667 255 667 230 644.5 c 128,-1,18
 205 622 205 622 205 583 c 0,19,20
 205 564 205 564 212 545 c 128,-1,21
 219 526 219 526 230 512 c 2,22,-1
 597 33 l 1,23,-1
 531 -16 l 1,0,-1
299 63 m 0,24,25
 345 63 345 63 382.5 82.5 c 128,-1,26
 420 102 420 102 449 136 c 128,-1,27
 478 170 478 170 501 214 c 128,-1,28
 524 258 524 258 543 306 c 1,29,-1
 613 264 l 1,30,31
 591 202 591 202 562.5 150 c 128,-1,32
 534 98 534 98 496 61 c 128,-1,33
 458 24 458 24 411.5 4 c 128,-1,34
 365 -16 365 -16 308 -16 c 0,35,36
 230 -16 230 -16 171 16 c 128,-1,37
 112 48 112 48 78 106.5 c 128,-1,38
 44 165 44 165 44 241 c 0,39,40
 44 291 44 291 64.5 336.5 c 128,-1,41
 85 382 85 382 122 419 c 128,-1,42
 159 456 159 456 208 476 c 1,43,-1
 258 411 l 1,44,45
 219 400 219 400 188.5 373.5 c 128,-1,46
 158 347 158 347 140.5 313.5 c 128,-1,47
 123 280 123 280 123 242 c 0,48,49
 123 191 123 191 144.5 150.5 c 128,-1,50
 166 110 166 110 206 86.5 c 128,-1,51
 246 63 246 63 299 63 c 0,24,25
EndSplineSet
EndChar

StartChar: quotesingle
Encoding: 39 39 10
Width: 181
GlyphClass: 1
Flags: W
LayerCount: 2
UndoRedoHistory
Layer: 0
Undoes
UndoOperation
Index: 0
Type: 1
WasModified: 0
WasOrder2: 1
Layer: 2
Width: 177
VWidth: 1000
LBearingChange: 0
UnicodeEnc: 0
InstructionsLength: 0
EndUndoOperation
EndUndoes
Redoes
EndRedoes
EndUndoRedoHistory
UndoRedoHistory
Layer: 1
Undoes
UndoOperation
Index: 0
Type: 3
WasModified: 0
WasOrder2: 1
Layer: 2
EndUndoOperation
EndUndoes
Redoes
EndRedoes
EndUndoRedoHistory
Fore
SplineSet
51 507 m 1,0,-1
 51 733 l 1,1,-1
 130 733 l 1,2,-1
 130 507 l 1,3,-1
 51 507 l 1,0,-1
EndSplineSet
EndChar

StartChar: parenleft
Encoding: 40 40 11
Width: 328
GlyphClass: 1
Flags: W
LayerCount: 2
UndoRedoHistory
Layer: 0
Undoes
UndoOperation
Index: 0
Type: 1
WasModified: 0
WasOrder2: 1
Layer: 2
Width: 321
VWidth: 1000
LBearingChange: 0
UnicodeEnc: 0
InstructionsLength: 0
EndUndoOperation
EndUndoes
Redoes
EndRedoes
EndUndoRedoHistory
UndoRedoHistory
Layer: 1
Undoes
UndoOperation
Index: 0
Type: 3
WasModified: 0
WasOrder2: 1
Layer: 2
EndUndoOperation
EndUndoes
Redoes
EndRedoes
EndUndoRedoHistory
Fore
SplineSet
246 -139 m 1,0,1
 215 -103 215 -103 183 -54 c 128,-1,2
 151 -5 151 -5 124 55 c 128,-1,3
 97 115 97 115 80 184 c 128,-1,4
 63 253 63 253 63 330 c 256,5,6
 63 407 63 407 80 476 c 128,-1,7
 97 545 97 545 124 605 c 128,-1,8
 151 665 151 665 183 714 c 128,-1,9
 215 763 215 763 246 799 c 1,10,-1
 309 754 l 1,11,12
 266 703 266 703 230 635 c 128,-1,13
 194 567 194 567 172 489.5 c 128,-1,14
 150 412 150 412 150 330 c 256,15,16
 150 248 150 248 172 170 c 128,-1,17
 194 92 194 92 230 24.5 c 128,-1,18
 266 -43 266 -43 309 -94 c 1,19,-1
 246 -139 l 1,0,1
EndSplineSet
Substitution2: "'rtla' Right to Left Alternates lookup 0 subtable" parenright
EndChar

StartChar: parenright
Encoding: 41 41 12
Width: 328
GlyphClass: 1
Flags: W
LayerCount: 2
UndoRedoHistory
Layer: 0
Undoes
UndoOperation
Index: 0
Type: 1
WasModified: 0
WasOrder2: 1
Layer: 2
Width: 321
VWidth: 1000
LBearingChange: 0
UnicodeEnc: 0
InstructionsLength: 0
EndUndoOperation
EndUndoes
Redoes
EndRedoes
EndUndoRedoHistory
UndoRedoHistory
Layer: 1
Undoes
UndoOperation
Index: 0
Type: 3
WasModified: 0
WasOrder2: 1
Layer: 2
EndUndoOperation
EndUndoes
Redoes
EndRedoes
EndUndoRedoHistory
Fore
SplineSet
83 -139 m 1,0,-1
 19 -94 l 1,1,2
 62 -43 62 -43 98.5 24.5 c 128,-1,3
 135 92 135 92 157 170 c 128,-1,4
 179 248 179 248 179 330 c 256,5,6
 179 412 179 412 157 489.5 c 128,-1,7
 135 567 135 567 98.5 634.5 c 128,-1,8
 62 702 62 702 19 754 c 1,9,-1
 83 799 l 1,10,11
 124 752 124 752 166 680.5 c 128,-1,12
 208 609 208 609 236.5 520.5 c 128,-1,13
 265 432 265 432 265 330 c 0,14,15
 265 253 265 253 248 184 c 128,-1,16
 231 115 231 115 204.5 55 c 128,-1,17
 178 -5 178 -5 146 -54 c 128,-1,18
 114 -103 114 -103 83 -139 c 1,0,-1
EndSplineSet
Substitution2: "'rtla' Right to Left Alternates lookup 0 subtable" parenleft
EndChar

StartChar: asterisk
Encoding: 42 42 13
Width: 435
GlyphClass: 1
Flags: W
LayerCount: 2
UndoRedoHistory
Layer: 0
Undoes
UndoOperation
Index: 0
Type: 1
WasModified: 0
WasOrder2: 1
Layer: 2
Width: 425
VWidth: 1000
LBearingChange: 0
UnicodeEnc: 0
InstructionsLength: 0
EndUndoOperation
EndUndoes
Redoes
EndRedoes
EndUndoRedoHistory
UndoRedoHistory
Layer: 1
Undoes
UndoOperation
Index: 0
Type: 3
WasModified: 0
WasOrder2: 1
Layer: 2
EndUndoOperation
EndUndoes
Redoes
EndRedoes
EndUndoRedoHistory
Fore
SplineSet
137 385 m 1,0,-1
 78 428 l 1,1,-1
 156 534 l 1,2,-1
 154 542 l 1,3,-1
 39 581 l 1,4,-1
 62 649 l 1,5,-1
 175 609 l 1,6,-1
 181 611 l 1,7,-1
 181 733 l 1,8,-1
 254 733 l 1,9,-1
 254 611 l 1,10,-1
 259 609 l 1,11,-1
 373 649 l 1,12,-1
 396 581 l 1,13,-1
 282 542 l 1,14,-1
 279 534 l 1,15,-1
 357 428 l 1,16,-1
 298 385 l 1,17,-1
 221 490 l 1,18,-1
 214 490 l 1,19,-1
 137 385 l 1,0,-1
EndSplineSet
EndChar

StartChar: plus
Encoding: 43 43 14
Width: 569
GlyphClass: 1
Flags: W
LayerCount: 2
UndoRedoHistory
Layer: 0
Undoes
UndoOperation
Index: 0
Type: 1
WasModified: 0
WasOrder2: 1
Layer: 2
Width: 556
VWidth: 1000
LBearingChange: 0
UnicodeEnc: 0
InstructionsLength: 0
EndUndoOperation
EndUndoes
Redoes
EndRedoes
EndUndoRedoHistory
UndoRedoHistory
Layer: 1
Undoes
UndoOperation
Index: 0
Type: 3
WasModified: 0
WasOrder2: 1
Layer: 2
EndUndoOperation
EndUndoes
Redoes
EndRedoes
EndUndoRedoHistory
Fore
SplineSet
249 55 m 1,0,-1
 249 500 l 1,1,-1
 321 500 l 1,2,-1
 321 55 l 1,3,-1
 249 55 l 1,0,-1
62 242 m 1,4,-1
 62 313 l 1,5,-1
 507 313 l 1,6,-1
 507 242 l 1,7,-1
 62 242 l 1,4,-1
EndSplineSet
Substitution2: "<6,0> Monospaced Numbers lookup 22 subtable" plus.tf
EndChar

StartChar: comma
Encoding: 44 44 15
Width: 241
GlyphClass: 1
Flags: W
LayerCount: 2
UndoRedoHistory
Layer: 0
Undoes
UndoOperation
Index: 0
Type: 1
WasModified: 0
WasOrder2: 1
Layer: 2
Width: 236
VWidth: 1000
LBearingChange: 0
UnicodeEnc: 0
InstructionsLength: 0
EndUndoOperation
EndUndoes
Redoes
EndRedoes
EndUndoRedoHistory
UndoRedoHistory
Layer: 1
Undoes
UndoOperation
Index: 0
Type: 3
WasModified: 0
WasOrder2: 1
Layer: 2
EndUndoOperation
EndUndoes
Redoes
EndRedoes
EndUndoRedoHistory
Fore
SplineSet
93 -113 m 1,0,-1
 51 -85 l 1,1,-1
 106 0 l 1,2,3
 90 3 90 3 74 18.5 c 128,-1,4
 58 34 58 34 58 59 c 0,5,6
 58 86 58 86 77 105 c 128,-1,7
 96 124 96 124 124 124 c 0,8,9
 138 124 138 124 150 119 c 128,-1,10
 162 114 162 114 170.5 105 c 128,-1,11
 179 96 179 96 184 84.5 c 128,-1,12
 189 73 189 73 189 59 c 0,13,14
 189 47 189 47 185 35.5 c 128,-1,15
 181 24 181 24 175 12.5 c 128,-1,16
 169 1 169 1 161 -10 c 2,17,-1
 93 -113 l 1,0,-1
EndSplineSet
Substitution2: "<6,0> Monospaced Numbers lookup 22 subtable" comma.tf
EndChar

StartChar: hyphen
Encoding: 45 45 16
Width: 449
GlyphClass: 1
Flags: W
LayerCount: 2
UndoRedoHistory
Layer: 0
Undoes
UndoOperation
Index: 0
Type: 1
WasModified: 0
WasOrder2: 1
Layer: 2
Width: 439
VWidth: 1000
LBearingChange: 0
UnicodeEnc: 0
InstructionsLength: 0
EndUndoOperation
EndUndoes
Redoes
EndRedoes
EndUndoRedoHistory
UndoRedoHistory
Layer: 1
Undoes
UndoOperation
Index: 0
Type: 3
WasModified: 0
WasOrder2: 1
Layer: 2
EndUndoOperation
EndUndoes
Redoes
EndRedoes
EndUndoRedoHistory
Fore
SplineSet
62 282 m 1,0,-1
 62 353 l 1,1,-1
 387 353 l 1,2,-1
 387 282 l 1,3,-1
 62 282 l 1,0,-1
EndSplineSet
EndChar

StartChar: period
Encoding: 46 46 17
Width: 241
GlyphClass: 1
Flags: W
LayerCount: 2
UndoRedoHistory
Layer: 0
Undoes
UndoOperation
Index: 0
Type: 1
WasModified: 0
WasOrder2: 1
Layer: 2
Width: 236
VWidth: 1000
LBearingChange: 0
UnicodeEnc: 0
InstructionsLength: 0
EndUndoOperation
EndUndoes
Redoes
EndRedoes
EndUndoRedoHistory
UndoRedoHistory
Layer: 1
Undoes
UndoOperation
Index: 0
Type: 3
WasModified: 0
WasOrder2: 1
Layer: 2
EndUndoOperation
EndUndoes
Redoes
EndRedoes
EndUndoRedoHistory
Fore
SplineSet
121 -6 m 256,0,1
 93 -6 93 -6 74 13 c 128,-1,2
 55 32 55 32 55 59 c 0,3,4
 55 86 55 86 74 105 c 128,-1,5
 93 124 93 124 121 124 c 256,6,7
 149 124 149 124 167.5 105 c 128,-1,8
 186 86 186 86 186 59 c 0,9,10
 186 31 186 31 167.5 12.5 c 128,-1,11
 149 -6 149 -6 121 -6 c 256,0,1
EndSplineSet
Substitution2: "<6,0> Monospaced Numbers lookup 22 subtable" period.tf
EndChar

StartChar: slash
Encoding: 47 47 18
Width: 307
GlyphClass: 1
Flags: W
LayerCount: 2
UndoRedoHistory
Layer: 0
Undoes
UndoOperation
Index: 0
Type: 1
WasModified: 0
WasOrder2: 1
Layer: 2
Width: 300
VWidth: 1000
LBearingChange: 0
UnicodeEnc: 0
InstructionsLength: 0
EndUndoOperation
EndUndoes
Redoes
EndRedoes
EndUndoRedoHistory
UndoRedoHistory
Layer: 1
Undoes
UndoOperation
Index: 0
Type: 3
WasModified: 0
WasOrder2: 1
Layer: 2
EndUndoOperation
EndUndoes
Redoes
EndRedoes
EndUndoRedoHistory
Fore
SplineSet
2 0 m 1,0,-1
 225 733 l 1,1,-1
 305 733 l 1,2,-1
 82 0 l 1,3,-1
 2 0 l 1,0,-1
EndSplineSet
EndChar

StartChar: zero
Encoding: 48 48 19
Width: 658
GlyphClass: 1
Flags: W
LayerCount: 2
UndoRedoHistory
Layer: 0
Undoes
UndoOperation
Index: 0
Type: 1
WasModified: 0
WasOrder2: 1
Layer: 2
Width: 643
VWidth: 1000
LBearingChange: 0
UnicodeEnc: 0
InstructionsLength: 0
EndUndoOperation
EndUndoes
Redoes
EndRedoes
EndUndoRedoHistory
UndoRedoHistory
Layer: 1
Undoes
UndoOperation
Index: 0
Type: 3
WasModified: 0
WasOrder2: 1
Layer: 2
EndUndoOperation
EndUndoes
Redoes
EndRedoes
EndUndoRedoHistory
Fore
SplineSet
329 -16 m 256,0,1
 264 -16 264 -16 213 13.5 c 128,-1,2
 162 43 162 43 125 95 c 128,-1,3
 88 147 88 147 68.5 217 c 128,-1,4
 49 287 49 287 49 367 c 256,5,6
 49 447 49 447 68.5 516.5 c 128,-1,7
 88 586 88 586 125 638.5 c 128,-1,8
 162 691 162 691 213 720.5 c 128,-1,9
 264 750 264 750 329 750 c 256,10,11
 394 750 394 750 445.5 720.5 c 128,-1,12
 497 691 497 691 533.5 638.5 c 128,-1,13
 570 586 570 586 589.5 516 c 128,-1,14
 609 446 609 446 609 367 c 256,15,16
 609 287 609 287 589.5 217 c 128,-1,17
 570 147 570 147 533.5 95 c 128,-1,18
 497 43 497 43 445.5 13.5 c 128,-1,19
 394 -16 394 -16 329 -16 c 256,0,1
329 67 m 256,20,21
 388 67 388 67 431 106.5 c 128,-1,22
 474 146 474 146 497 214.5 c 128,-1,23
 520 283 520 283 520 367 c 0,24,25
 520 452 520 452 497 519.5 c 128,-1,26
 474 587 474 587 431 627 c 128,-1,27
 388 667 388 667 329 667 c 256,28,29
 270 667 270 667 227 627 c 128,-1,30
 184 587 184 587 161 519.5 c 128,-1,31
 138 452 138 452 138 367 c 0,32,33
 138 283 138 283 161 214.5 c 128,-1,34
 184 146 184 146 227 106.5 c 128,-1,35
 270 67 270 67 329 67 c 256,20,21
EndSplineSet
Substitution2: "<6,0> Monospaced Numbers lookup 22 subtable" zero.tf
Substitution2: "<11,2> Diagonal Fractions lookup 18 nested-substitutions 0 subtable" zero.denominator
Substitution2: "<11,2> Diagonal Fractions lookup 16 nested-substitutions 0 subtable" zero.numerator
Substitution2: "<11,2> Diagonal Fractions lookup 14 nested-substitutions 0 subtable" zero.numerator
Substitution2: "<11,2> Diagonal Fractions lookup 12 nested-substitutions 0 subtable" zero.numerator
Substitution2: "<11,2> Diagonal Fractions lookup 10 nested-substitutions 0 subtable" zero.numerator
Substitution2: "<11,2> Diagonal Fractions lookup 8 nested-substitutions 0 subtable" zero.numerator
Substitution2: "<11,2> Diagonal Fractions lookup 6 nested-substitutions 0 subtable" zero.numerator
Substitution2: "<11,2> Diagonal Fractions lookup 4 nested-substitutions 0 subtable" zero.numerator
Substitution2: "<11,2> Diagonal Fractions lookup 2 nested-substitutions 0 subtable" zero.numerator
EndChar

StartChar: one
Encoding: 49 49 20
Width: 440
GlyphClass: 1
Flags: W
LayerCount: 2
UndoRedoHistory
Layer: 0
Undoes
UndoOperation
Index: 0
Type: 1
WasModified: 0
WasOrder2: 1
Layer: 2
Width: 430
VWidth: 1000
LBearingChange: 0
UnicodeEnc: 0
InstructionsLength: 0
EndUndoOperation
EndUndoes
Redoes
EndRedoes
EndUndoRedoHistory
UndoRedoHistory
Layer: 1
Undoes
UndoOperation
Index: 0
Type: 3
WasModified: 0
WasOrder2: 1
Layer: 2
EndUndoOperation
EndUndoes
Redoes
EndRedoes
EndUndoRedoHistory
Fore
SplineSet
220 0 m 1,0,-1
 220 611 l 1,1,-1
 97 523 l 1,2,-1
 52 590 l 1,3,-1
 252 733 l 1,4,-1
 307 733 l 1,5,-1
 307 0 l 1,6,-1
 220 0 l 1,0,-1
EndSplineSet
Substitution2: "<6,0> Monospaced Numbers lookup 22 subtable" one.tf
Substitution2: "<11,2> Diagonal Fractions lookup 18 nested-substitutions 0 subtable" one.denominator
Substitution2: "<11,2> Diagonal Fractions lookup 16 nested-substitutions 0 subtable" one.numerator
Substitution2: "<11,2> Diagonal Fractions lookup 14 nested-substitutions 0 subtable" one.numerator
Substitution2: "<11,2> Diagonal Fractions lookup 12 nested-substitutions 0 subtable" one.numerator
Substitution2: "<11,2> Diagonal Fractions lookup 10 nested-substitutions 0 subtable" one.numerator
Substitution2: "<11,2> Diagonal Fractions lookup 8 nested-substitutions 0 subtable" one.numerator
Substitution2: "<11,2> Diagonal Fractions lookup 6 nested-substitutions 0 subtable" one.numerator
Substitution2: "<11,2> Diagonal Fractions lookup 4 nested-substitutions 0 subtable" one.numerator
Substitution2: "<11,2> Diagonal Fractions lookup 2 nested-substitutions 0 subtable" one.numerator
EndChar

StartChar: two
Encoding: 50 50 21
Width: 536
GlyphClass: 1
Flags: W
LayerCount: 2
UndoRedoHistory
Layer: 0
Undoes
UndoOperation
Index: 0
Type: 1
WasModified: 0
WasOrder2: 1
Layer: 2
Width: 524
VWidth: 1000
LBearingChange: 0
UnicodeEnc: 0
InstructionsLength: 0
EndUndoOperation
EndUndoes
Redoes
EndRedoes
EndUndoRedoHistory
UndoRedoHistory
Layer: 1
Undoes
UndoOperation
Index: 0
Type: 3
WasModified: 0
WasOrder2: 1
Layer: 2
EndUndoOperation
EndUndoes
Redoes
EndRedoes
EndUndoRedoHistory
Fore
SplineSet
45 0 m 1,0,-1
 45 87 l 2,1,2
 48 90 48 90 63.5 107 c 128,-1,3
 79 124 79 124 102.5 150 c 128,-1,4
 126 176 126 176 153 206.5 c 128,-1,5
 180 237 180 237 208 267.5 c 128,-1,6
 236 298 236 298 259.5 323.5 c 128,-1,7
 283 349 283 349 297 365 c 0,8,9
 345 417 345 417 368 457.5 c 128,-1,10
 391 498 391 498 391 543 c 0,11,12
 391 577 391 577 374.5 605 c 128,-1,13
 358 633 358 633 328 650 c 128,-1,14
 298 667 298 667 258 667 c 0,15,16
 220 667 220 667 192 650.5 c 128,-1,17
 164 634 164 634 147 610.5 c 128,-1,18
 130 587 130 587 125 564 c 1,19,-1
 46 596 l 1,20,21
 52 618 52 618 68 644 c 128,-1,22
 84 670 84 670 110.5 694.5 c 128,-1,23
 137 719 137 719 175 734.5 c 128,-1,24
 213 750 213 750 262 750 c 0,25,26
 331 750 331 750 379.5 720 c 128,-1,27
 428 690 428 690 454.5 643.5 c 128,-1,28
 481 597 481 597 481 544 c 0,29,30
 481 498 481 498 461.5 454 c 128,-1,31
 442 410 442 410 414.5 372.5 c 128,-1,32
 387 335 387 335 361 308 c 0,33,34
 348 295 348 295 325 270 c 128,-1,35
 302 245 302 245 275.5 215.5 c 128,-1,36
 249 186 249 186 223.5 158.5 c 128,-1,37
 198 131 198 131 179 110.5 c 128,-1,38
 160 90 160 90 153 83 c 1,39,-1
 153 83 l 1,40,-1
 487 83 l 1,41,-1
 487 0 l 1,42,-1
 45 0 l 1,0,-1
EndSplineSet
Substitution2: "<6,0> Monospaced Numbers lookup 22 subtable" two.tf
Substitution2: "<11,2> Diagonal Fractions lookup 18 nested-substitutions 0 subtable" two.denominator
Substitution2: "<11,2> Diagonal Fractions lookup 16 nested-substitutions 0 subtable" two.numerator
Substitution2: "<11,2> Diagonal Fractions lookup 14 nested-substitutions 0 subtable" two.numerator
Substitution2: "<11,2> Diagonal Fractions lookup 12 nested-substitutions 0 subtable" two.numerator
Substitution2: "<11,2> Diagonal Fractions lookup 10 nested-substitutions 0 subtable" two.numerator
Substitution2: "<11,2> Diagonal Fractions lookup 8 nested-substitutions 0 subtable" two.numerator
Substitution2: "<11,2> Diagonal Fractions lookup 6 nested-substitutions 0 subtable" two.numerator
Substitution2: "<11,2> Diagonal Fractions lookup 4 nested-substitutions 0 subtable" two.numerator
Substitution2: "<11,2> Diagonal Fractions lookup 2 nested-substitutions 0 subtable" two.numerator
EndChar

StartChar: three
Encoding: 51 51 22
Width: 545
GlyphClass: 1
Flags: W
LayerCount: 2
UndoRedoHistory
Layer: 0
Undoes
UndoOperation
Index: 0
Type: 1
WasModified: 0
WasOrder2: 1
Layer: 2
Width: 533
VWidth: 1000
LBearingChange: 0
UnicodeEnc: 0
InstructionsLength: 0
EndUndoOperation
EndUndoes
Redoes
EndRedoes
EndUndoRedoHistory
UndoRedoHistory
Layer: 1
Undoes
UndoOperation
Index: 0
Type: 3
WasModified: 0
WasOrder2: 1
Layer: 2
EndUndoOperation
EndUndoes
Redoes
EndRedoes
EndUndoRedoHistory
Fore
SplineSet
266 -16 m 0,0,1
 225 -16 225 -16 179 1.5 c 128,-1,2
 133 19 133 19 95 59.5 c 128,-1,3
 57 100 57 100 39 167 c 1,4,-1
 119 202 l 1,5,6
 136 141 136 141 174.5 104 c 128,-1,7
 213 67 213 67 266 67 c 0,8,9
 306 67 306 67 339.5 85 c 128,-1,10
 373 103 373 103 393 135.5 c 128,-1,11
 413 168 413 168 413 207 c 256,12,13
 413 246 413 246 392.5 276.5 c 128,-1,14
 372 307 372 307 338 325 c 128,-1,15
 304 343 304 343 263 343 c 2,16,-1
 203 343 l 1,17,-1
 203 425 l 1,18,-1
 257 425 l 2,19,20
 294 425 294 425 324 440.5 c 128,-1,21
 354 456 354 456 371.5 483.5 c 128,-1,22
 389 511 389 511 389 549 c 0,23,24
 389 586 389 586 372.5 612.5 c 128,-1,25
 356 639 356 639 327.5 653 c 128,-1,26
 299 667 299 667 261 667 c 0,27,28
 222 667 222 667 196.5 650.5 c 128,-1,29
 171 634 171 634 156 610 c 128,-1,30
 141 586 141 586 134 563 c 1,31,-1
 54 599 l 1,32,33
 64 631 64 631 91 665.5 c 128,-1,34
 118 700 118 700 161.5 725 c 128,-1,35
 205 750 205 750 265 750 c 0,36,37
 328 750 328 750 376 725.5 c 128,-1,38
 424 701 424 701 450.5 656.5 c 128,-1,39
 477 612 477 612 477 551 c 0,40,41
 477 510 477 510 464.5 478 c 128,-1,42
 452 446 452 446 430 424.5 c 128,-1,43
 408 403 408 403 381 391 c 1,44,-1
 381 387 l 1,45,46
 414 374 414 374 441 349 c 128,-1,47
 468 324 468 324 484.5 288.5 c 128,-1,48
 501 253 501 253 501 208 c 0,49,50
 501 142 501 142 469 91.5 c 128,-1,51
 437 41 437 41 384 12.5 c 128,-1,52
 331 -16 331 -16 266 -16 c 0,0,1
EndSplineSet
Substitution2: "<6,0> Monospaced Numbers lookup 22 subtable" three.tf
Substitution2: "<11,2> Diagonal Fractions lookup 18 nested-substitutions 0 subtable" three.denominator
Substitution2: "<11,2> Diagonal Fractions lookup 16 nested-substitutions 0 subtable" three.numerator
Substitution2: "<11,2> Diagonal Fractions lookup 14 nested-substitutions 0 subtable" three.numerator
Substitution2: "<11,2> Diagonal Fractions lookup 12 nested-substitutions 0 subtable" three.numerator
Substitution2: "<11,2> Diagonal Fractions lookup 10 nested-substitutions 0 subtable" three.numerator
Substitution2: "<11,2> Diagonal Fractions lookup 8 nested-substitutions 0 subtable" three.numerator
Substitution2: "<11,2> Diagonal Fractions lookup 6 nested-substitutions 0 subtable" three.numerator
Substitution2: "<11,2> Diagonal Fractions lookup 4 nested-substitutions 0 subtable" three.numerator
Substitution2: "<11,2> Diagonal Fractions lookup 2 nested-substitutions 0 subtable" three.numerator
EndChar

StartChar: four
Encoding: 52 52 23
Width: 605
GlyphClass: 1
Flags: W
LayerCount: 2
UndoRedoHistory
Layer: 0
Undoes
UndoOperation
Index: 0
Type: 1
WasModified: 0
WasOrder2: 1
Layer: 2
Width: 591
VWidth: 1000
LBearingChange: 0
UnicodeEnc: 0
InstructionsLength: 0
EndUndoOperation
EndUndoes
Redoes
EndRedoes
EndUndoRedoHistory
UndoRedoHistory
Layer: 1
Undoes
UndoOperation
Index: 0
Type: 3
WasModified: 0
WasOrder2: 1
Layer: 2
EndUndoOperation
EndUndoes
Redoes
EndRedoes
EndUndoRedoHistory
Fore
SplineSet
45 162 m 1,0,-1
 45 227 l 1,1,-1
 386 733 l 1,2,-1
 478 733 l 1,3,-1
 478 0 l 1,4,-1
 393 0 l 1,5,-1
 393 600 l 1,6,-1
 388 600 l 1,7,-1
 143 244 l 1,8,-1
 562 244 l 1,9,-1
 562 162 l 1,10,-1
 45 162 l 1,0,-1
EndSplineSet
Substitution2: "<6,0> Monospaced Numbers lookup 22 subtable" four.tf
Substitution2: "<11,2> Diagonal Fractions lookup 18 nested-substitutions 0 subtable" four.denominator
Substitution2: "<11,2> Diagonal Fractions lookup 16 nested-substitutions 0 subtable" four.numerator
Substitution2: "<11,2> Diagonal Fractions lookup 14 nested-substitutions 0 subtable" four.numerator
Substitution2: "<11,2> Diagonal Fractions lookup 12 nested-substitutions 0 subtable" four.numerator
Substitution2: "<11,2> Diagonal Fractions lookup 10 nested-substitutions 0 subtable" four.numerator
Substitution2: "<11,2> Diagonal Fractions lookup 8 nested-substitutions 0 subtable" four.numerator
Substitution2: "<11,2> Diagonal Fractions lookup 6 nested-substitutions 0 subtable" four.numerator
Substitution2: "<11,2> Diagonal Fractions lookup 4 nested-substitutions 0 subtable" four.numerator
Substitution2: "<11,2> Diagonal Fractions lookup 2 nested-substitutions 0 subtable" four.numerator
EndChar

StartChar: five
Encoding: 53 53 24
Width: 572
GlyphClass: 1
Flags: W
LayerCount: 2
UndoRedoHistory
Layer: 0
Undoes
UndoOperation
Index: 0
Type: 1
WasModified: 0
WasOrder2: 1
Layer: 2
Width: 559
VWidth: 1000
LBearingChange: 0
UnicodeEnc: 0
InstructionsLength: 0
EndUndoOperation
EndUndoes
Redoes
EndRedoes
EndUndoRedoHistory
UndoRedoHistory
Layer: 1
Undoes
UndoOperation
Index: 0
Type: 3
WasModified: 0
WasOrder2: 1
Layer: 2
EndUndoOperation
EndUndoes
Redoes
EndRedoes
EndUndoRedoHistory
Fore
SplineSet
290 -16 m 0,0,1
 243 -16 243 -16 193.5 4.5 c 128,-1,2
 144 25 144 25 106 68 c 128,-1,3
 68 111 68 111 51 177 c 1,4,-1
 128 208 l 1,5,6
 144 146 144 146 185 106.5 c 128,-1,7
 226 67 226 67 287 67 c 0,8,9
 357 67 357 67 400.5 110.5 c 128,-1,10
 444 154 444 154 444 222 c 0,11,12
 444 268 444 268 425 304 c 128,-1,13
 406 340 406 340 370.5 360.5 c 128,-1,14
 335 381 335 381 289 381 c 0,15,16
 251 381 251 381 216 363 c 128,-1,17
 181 345 181 345 161 315 c 1,18,-1
 73 350 l 1,19,-1
 121 733 l 1,20,-1
 486 733 l 1,21,-1
 486 650 l 1,22,-1
 191 650 l 1,23,-1
 162 416 l 1,24,-1
 167 415 l 1,25,26
 192 435 192 435 226.5 448.5 c 128,-1,27
 261 462 261 462 305 462 c 0,28,29
 366 462 366 462 418.5 431 c 128,-1,30
 471 400 471 400 502.5 347 c 128,-1,31
 534 294 534 294 534 224 c 0,32,33
 534 156 534 156 502 102 c 128,-1,34
 470 48 470 48 415.5 16 c 128,-1,35
 361 -16 361 -16 290 -16 c 0,0,1
EndSplineSet
Substitution2: "<6,0> Monospaced Numbers lookup 22 subtable" five.tf
Substitution2: "<11,2> Diagonal Fractions lookup 18 nested-substitutions 0 subtable" five.denominator
Substitution2: "<11,2> Diagonal Fractions lookup 16 nested-substitutions 0 subtable" five.numerator
Substitution2: "<11,2> Diagonal Fractions lookup 14 nested-substitutions 0 subtable" five.numerator
Substitution2: "<11,2> Diagonal Fractions lookup 12 nested-substitutions 0 subtable" five.numerator
Substitution2: "<11,2> Diagonal Fractions lookup 10 nested-substitutions 0 subtable" five.numerator
Substitution2: "<11,2> Diagonal Fractions lookup 8 nested-substitutions 0 subtable" five.numerator
Substitution2: "<11,2> Diagonal Fractions lookup 6 nested-substitutions 0 subtable" five.numerator
Substitution2: "<11,2> Diagonal Fractions lookup 4 nested-substitutions 0 subtable" five.numerator
Substitution2: "<11,2> Diagonal Fractions lookup 2 nested-substitutions 0 subtable" five.numerator
EndChar

StartChar: six
Encoding: 54 54 25
Width: 568
GlyphClass: 1
Flags: W
LayerCount: 2
UndoRedoHistory
Layer: 0
Undoes
UndoOperation
Index: 0
Type: 1
WasModified: 0
WasOrder2: 1
Layer: 2
Width: 555
VWidth: 1000
LBearingChange: 0
UnicodeEnc: 0
InstructionsLength: 0
EndUndoOperation
EndUndoes
Redoes
EndRedoes
EndUndoRedoHistory
UndoRedoHistory
Layer: 1
Undoes
UndoOperation
Index: 0
Type: 3
WasModified: 0
WasOrder2: 1
Layer: 2
EndUndoOperation
EndUndoes
Redoes
EndRedoes
EndUndoRedoHistory
Fore
SplineSet
286 -16 m 0,0,1
 230 -16 230 -16 184.5 5 c 128,-1,2
 139 26 139 26 106 60 c 0,3,4
 74 95 74 95 56.5 138.5 c 128,-1,5
 39 182 39 182 39 227 c 0,6,7
 39 290 39 290 65 340 c 128,-1,8
 91 390 91 390 126 443 c 0,9,10
 150 478 150 478 173.5 512.5 c 128,-1,11
 197 547 197 547 221.5 584 c 128,-1,12
 246 621 246 621 273.5 661.5 c 128,-1,13
 301 702 301 702 332 749 c 1,14,-1
 401 700 l 1,15,16
 371 657 371 657 345 620.5 c 128,-1,17
 319 584 319 584 296.5 552.5 c 128,-1,18
 274 521 274 521 255.5 495 c 128,-1,19
 237 469 237 469 220 449 c 1,20,-1
 223 444 l 1,21,22
 231 449 231 449 253 455 c 128,-1,23
 275 461 275 461 304 461 c 0,24,25
 360 461 360 461 411.5 431 c 128,-1,26
 463 401 463 401 496 348.5 c 128,-1,27
 529 296 529 296 529 227 c 0,28,29
 529 176 529 176 510.5 131.5 c 128,-1,30
 492 87 492 87 458.5 53.5 c 128,-1,31
 425 20 425 20 381 2 c 128,-1,32
 337 -16 337 -16 286 -16 c 0,0,1
285 67 m 0,33,34
 331 67 331 67 366 86.5 c 128,-1,35
 401 106 401 106 421.5 141.5 c 128,-1,36
 442 177 442 177 442 223 c 256,37,38
 442 269 442 269 421 304.5 c 128,-1,39
 400 340 400 340 365 360 c 128,-1,40
 330 380 330 380 285 380 c 0,41,42
 241 380 241 380 204.5 359.5 c 128,-1,43
 168 339 168 339 147 303.5 c 128,-1,44
 126 268 126 268 126 223 c 256,45,46
 126 178 126 178 146.5 143 c 128,-1,47
 167 108 167 108 203.5 87.5 c 128,-1,48
 240 67 240 67 285 67 c 0,33,34
EndSplineSet
Substitution2: "<6,0> Monospaced Numbers lookup 22 subtable" six.tf
Substitution2: "<11,2> Diagonal Fractions lookup 18 nested-substitutions 0 subtable" six.denominator
Substitution2: "<11,2> Diagonal Fractions lookup 16 nested-substitutions 0 subtable" six.numerator
Substitution2: "<11,2> Diagonal Fractions lookup 14 nested-substitutions 0 subtable" six.numerator
Substitution2: "<11,2> Diagonal Fractions lookup 12 nested-substitutions 0 subtable" six.numerator
Substitution2: "<11,2> Diagonal Fractions lookup 10 nested-substitutions 0 subtable" six.numerator
Substitution2: "<11,2> Diagonal Fractions lookup 8 nested-substitutions 0 subtable" six.numerator
Substitution2: "<11,2> Diagonal Fractions lookup 6 nested-substitutions 0 subtable" six.numerator
Substitution2: "<11,2> Diagonal Fractions lookup 4 nested-substitutions 0 subtable" six.numerator
Substitution2: "<11,2> Diagonal Fractions lookup 2 nested-substitutions 0 subtable" six.numerator
EndChar

StartChar: seven
Encoding: 55 55 26
Width: 539
GlyphClass: 1
Flags: W
LayerCount: 2
UndoRedoHistory
Layer: 0
Undoes
UndoOperation
Index: 0
Type: 1
WasModified: 0
WasOrder2: 1
Layer: 2
Width: 527
VWidth: 1000
LBearingChange: 0
UnicodeEnc: 0
InstructionsLength: 0
EndUndoOperation
EndUndoes
Redoes
EndRedoes
EndUndoRedoHistory
UndoRedoHistory
Layer: 1
Undoes
UndoOperation
Index: 0
Type: 3
WasModified: 0
WasOrder2: 1
Layer: 2
EndUndoOperation
EndUndoes
Redoes
EndRedoes
EndUndoRedoHistory
Fore
SplineSet
156 -16 m 1,0,-1
 78 24 l 1,1,2
 132 123 132 123 189 229 c 128,-1,3
 246 335 246 335 301.5 442 c 128,-1,4
 357 549 357 549 410 650 c 1,5,-1
 410 650 l 1,6,-1
 45 650 l 1,7,-1
 45 733 l 1,8,-1
 501 733 l 1,9,-1
 501 644 l 1,10,11
 460 565 460 565 417 481.5 c 128,-1,12
 374 398 374 398 330 313 c 128,-1,13
 286 228 286 228 242.5 145.5 c 128,-1,14
 199 63 199 63 156 -16 c 1,0,-1
EndSplineSet
Substitution2: "<6,0> Monospaced Numbers lookup 22 subtable" seven.tf
Substitution2: "<11,2> Diagonal Fractions lookup 18 nested-substitutions 0 subtable" seven.denominator
Substitution2: "<11,2> Diagonal Fractions lookup 16 nested-substitutions 0 subtable" seven.numerator
Substitution2: "<11,2> Diagonal Fractions lookup 14 nested-substitutions 0 subtable" seven.numerator
Substitution2: "<11,2> Diagonal Fractions lookup 12 nested-substitutions 0 subtable" seven.numerator
Substitution2: "<11,2> Diagonal Fractions lookup 10 nested-substitutions 0 subtable" seven.numerator
Substitution2: "<11,2> Diagonal Fractions lookup 8 nested-substitutions 0 subtable" seven.numerator
Substitution2: "<11,2> Diagonal Fractions lookup 6 nested-substitutions 0 subtable" seven.numerator
Substitution2: "<11,2> Diagonal Fractions lookup 4 nested-substitutions 0 subtable" seven.numerator
Substitution2: "<11,2> Diagonal Fractions lookup 2 nested-substitutions 0 subtable" seven.numerator
EndChar

StartChar: eight
Encoding: 56 56 27
Width: 563
GlyphClass: 1
Flags: W
LayerCount: 2
UndoRedoHistory
Layer: 0
Undoes
UndoOperation
Index: 0
Type: 1
WasModified: 0
WasOrder2: 1
Layer: 2
Width: 550
VWidth: 1000
LBearingChange: 0
UnicodeEnc: 0
InstructionsLength: 0
EndUndoOperation
EndUndoes
Redoes
EndRedoes
EndUndoRedoHistory
UndoRedoHistory
Layer: 1
Undoes
UndoOperation
Index: 0
Type: 3
WasModified: 0
WasOrder2: 1
Layer: 2
EndUndoOperation
EndUndoes
Redoes
EndRedoes
EndUndoRedoHistory
Fore
SplineSet
282 -16 m 256,0,1
 214 -16 214 -16 160 13 c 128,-1,2
 106 42 106 42 75.5 91 c 128,-1,3
 45 140 45 140 45 202 c 0,4,5
 45 245 45 245 60.5 279.5 c 128,-1,6
 76 314 76 314 102.5 340.5 c 128,-1,7
 129 367 129 367 162 383 c 1,8,-1
 162 388 l 1,9,10
 136 404 136 404 114.5 428.5 c 128,-1,11
 93 453 93 453 81 482.5 c 128,-1,12
 69 512 69 512 69 544 c 0,13,14
 69 602 69 602 96 648.5 c 128,-1,15
 123 695 123 695 171 722.5 c 128,-1,16
 219 750 219 750 282 750 c 256,17,18
 344 750 344 750 391.5 722.5 c 128,-1,19
 439 695 439 695 466.5 648.5 c 128,-1,20
 494 602 494 602 494 544 c 0,21,22
 494 512 494 512 481.5 482.5 c 128,-1,23
 469 453 469 453 448 428.5 c 128,-1,24
 427 404 427 404 401 388 c 1,25,-1
 401 383 l 1,26,27
 434 367 434 367 460 340.5 c 128,-1,28
 486 314 486 314 502 279.5 c 128,-1,29
 518 245 518 245 518 202 c 0,30,31
 518 141 518 141 487 91.5 c 128,-1,32
 456 42 456 42 403 13 c 128,-1,33
 350 -16 350 -16 282 -16 c 256,0,1
282 67 m 256,34,35
 323 67 323 67 356 84 c 128,-1,36
 389 101 389 101 409 133 c 128,-1,37
 429 165 429 165 429 207 c 0,38,39
 429 248 429 248 409 278.5 c 128,-1,40
 389 309 389 309 356 326.5 c 128,-1,41
 323 344 323 344 282 344 c 256,42,43
 241 344 241 344 207 326.5 c 128,-1,44
 173 309 173 309 153 278.5 c 128,-1,45
 133 248 133 248 133 207 c 0,46,47
 133 165 133 165 153 133 c 128,-1,48
 173 101 173 101 207 84 c 128,-1,49
 241 67 241 67 282 67 c 256,34,35
282 424 m 0,50,51
 335 424 335 424 370.5 457 c 128,-1,52
 406 490 406 490 406 547 c 256,53,54
 406 603 406 603 369.5 635 c 128,-1,55
 333 667 333 667 282 667 c 0,56,57
 230 667 230 667 193.5 635 c 128,-1,58
 157 603 157 603 157 547 c 0,59,60
 157 509 157 509 173 481.5 c 128,-1,61
 189 454 189 454 218 439 c 128,-1,62
 247 424 247 424 282 424 c 0,50,51
EndSplineSet
Substitution2: "<6,0> Monospaced Numbers lookup 22 subtable" eight.tf
Substitution2: "<11,2> Diagonal Fractions lookup 18 nested-substitutions 0 subtable" eight.denominator
Substitution2: "<11,2> Diagonal Fractions lookup 16 nested-substitutions 0 subtable" eight.numerator
Substitution2: "<11,2> Diagonal Fractions lookup 14 nested-substitutions 0 subtable" eight.numerator
Substitution2: "<11,2> Diagonal Fractions lookup 12 nested-substitutions 0 subtable" eight.numerator
Substitution2: "<11,2> Diagonal Fractions lookup 10 nested-substitutions 0 subtable" eight.numerator
Substitution2: "<11,2> Diagonal Fractions lookup 8 nested-substitutions 0 subtable" eight.numerator
Substitution2: "<11,2> Diagonal Fractions lookup 6 nested-substitutions 0 subtable" eight.numerator
Substitution2: "<11,2> Diagonal Fractions lookup 4 nested-substitutions 0 subtable" eight.numerator
Substitution2: "<11,2> Diagonal Fractions lookup 2 nested-substitutions 0 subtable" eight.numerator
EndChar

StartChar: nine
Encoding: 57 57 28
Width: 568
GlyphClass: 1
Flags: W
LayerCount: 2
UndoRedoHistory
Layer: 0
Undoes
UndoOperation
Index: 0
Type: 1
WasModified: 0
WasOrder2: 1
Layer: 2
Width: 555
VWidth: 1000
LBearingChange: 0
UnicodeEnc: 0
InstructionsLength: 0
EndUndoOperation
EndUndoes
Redoes
EndRedoes
EndUndoRedoHistory
UndoRedoHistory
Layer: 1
Undoes
UndoOperation
Index: 0
Type: 3
WasModified: 0
WasOrder2: 1
Layer: 2
EndUndoOperation
EndUndoes
Redoes
EndRedoes
EndUndoRedoHistory
Fore
SplineSet
237 -16 m 1,0,-1
 167 32 l 1,1,2
 197 75 197 75 223 111.5 c 128,-1,3
 249 148 249 148 271.5 179.5 c 128,-1,4
 294 211 294 211 313 237 c 128,-1,5
 332 263 332 263 348 284 c 1,6,-1
 345 288 l 1,7,8
 337 283 337 283 315.5 277 c 128,-1,9
 294 271 294 271 264 271 c 0,10,11
 209 271 209 271 157 301 c 128,-1,12
 105 331 105 331 72 383.5 c 128,-1,13
 39 436 39 436 39 505 c 256,14,15
 39 574 39 574 71.5 629 c 128,-1,16
 104 684 104 684 159.5 716.5 c 128,-1,17
 215 749 215 749 283 749 c 0,18,19
 339 749 339 749 384.5 728 c 128,-1,20
 430 707 430 707 462 672 c 0,21,22
 495 637 495 637 512 593.5 c 128,-1,23
 529 550 529 550 529 505 c 0,24,25
 529 442 529 442 503.5 392 c 128,-1,26
 478 342 478 342 442 289 c 0,27,28
 411 243 411 243 379.5 196.5 c 128,-1,29
 348 150 348 150 313 97.5 c 128,-1,30
 278 45 278 45 237 -16 c 1,0,-1
284 352 m 0,31,32
 329 352 329 352 364.5 372.5 c 128,-1,33
 400 393 400 393 421 428.5 c 128,-1,34
 442 464 442 464 442 509 c 256,35,36
 442 554 442 554 421.5 589.5 c 128,-1,37
 401 625 401 625 365.5 645.5 c 128,-1,38
 330 666 330 666 284 666 c 0,39,40
 239 666 239 666 203 646 c 128,-1,41
 167 626 167 626 146.5 590.5 c 128,-1,42
 126 555 126 555 126 509 c 256,43,44
 126 463 126 463 147 427.5 c 128,-1,45
 168 392 168 392 204 372 c 128,-1,46
 240 352 240 352 284 352 c 0,31,32
EndSplineSet
Substitution2: "<6,0> Monospaced Numbers lookup 22 subtable" nine.tf
Substitution2: "<11,2> Diagonal Fractions lookup 18 nested-substitutions 0 subtable" nine.denominator
Substitution2: "<11,2> Diagonal Fractions lookup 16 nested-substitutions 0 subtable" nine.numerator
Substitution2: "<11,2> Diagonal Fractions lookup 14 nested-substitutions 0 subtable" nine.numerator
Substitution2: "<11,2> Diagonal Fractions lookup 12 nested-substitutions 0 subtable" nine.numerator
Substitution2: "<11,2> Diagonal Fractions lookup 10 nested-substitutions 0 subtable" nine.numerator
Substitution2: "<11,2> Diagonal Fractions lookup 8 nested-substitutions 0 subtable" nine.numerator
Substitution2: "<11,2> Diagonal Fractions lookup 6 nested-substitutions 0 subtable" nine.numerator
Substitution2: "<11,2> Diagonal Fractions lookup 4 nested-substitutions 0 subtable" nine.numerator
Substitution2: "<11,2> Diagonal Fractions lookup 2 nested-substitutions 0 subtable" nine.numerator
EndChar

StartChar: colon
Encoding: 58 58 29
Width: 241
GlyphClass: 1
Flags: W
LayerCount: 2
UndoRedoHistory
Layer: 0
Undoes
UndoOperation
Index: 0
Type: 1
WasModified: 0
WasOrder2: 1
Layer: 2
Width: 236
VWidth: 1000
LBearingChange: 0
UnicodeEnc: 0
InstructionsLength: 0
EndUndoOperation
EndUndoes
Redoes
EndRedoes
EndUndoRedoHistory
UndoRedoHistory
Layer: 1
Undoes
UndoOperation
Index: 0
Type: 3
WasModified: 0
WasOrder2: 1
Layer: 2
EndUndoOperation
EndUndoes
Redoes
EndRedoes
EndUndoRedoHistory
Fore
SplineSet
121 397 m 256,0,1
 93 397 93 397 74 416 c 128,-1,2
 55 435 55 435 55 463 c 256,3,4
 55 491 55 491 74 509.5 c 128,-1,5
 93 528 93 528 121 528 c 256,6,7
 149 528 149 528 167.5 509 c 128,-1,8
 186 490 186 490 186 463 c 256,9,10
 186 435 186 435 167.5 416 c 128,-1,11
 149 397 149 397 121 397 c 256,0,1
121 -6 m 256,12,13
 93 -6 93 -6 74 13 c 128,-1,14
 55 32 55 32 55 59 c 0,15,16
 55 86 55 86 74 105 c 128,-1,17
 93 124 93 124 121 124 c 256,18,19
 149 124 149 124 167.5 105 c 128,-1,20
 186 86 186 86 186 59 c 0,21,22
 186 31 186 31 167.5 12.5 c 128,-1,23
 149 -6 149 -6 121 -6 c 256,12,13
EndSplineSet
Substitution2: "<2,2> Cursive lookup 27 nested-substitutions 0 subtable" colon.time
Substitution2: "<2,2> Cursive lookup 25 nested-substitutions 0 subtable" colon.time
Substitution2: "<6,0> Monospaced Numbers lookup 22 subtable" colon.tf
EndChar

StartChar: semicolon
Encoding: 59 59 30
Width: 241
GlyphClass: 1
Flags: W
LayerCount: 2
UndoRedoHistory
Layer: 0
Undoes
UndoOperation
Index: 0
Type: 1
WasModified: 0
WasOrder2: 1
Layer: 2
Width: 236
VWidth: 1000
LBearingChange: 0
UnicodeEnc: 0
InstructionsLength: 0
EndUndoOperation
EndUndoes
Redoes
EndRedoes
EndUndoRedoHistory
UndoRedoHistory
Layer: 1
Undoes
UndoOperation
Index: 0
Type: 3
WasModified: 0
WasOrder2: 1
Layer: 2
EndUndoOperation
EndUndoes
Redoes
EndRedoes
EndUndoRedoHistory
Fore
SplineSet
127 397 m 256,0,1
 99 397 99 397 80 416 c 128,-1,2
 61 435 61 435 61 463 c 256,3,4
 61 491 61 491 80 509.5 c 128,-1,5
 99 528 99 528 127 528 c 256,6,7
 155 528 155 528 174 509 c 128,-1,8
 193 490 193 490 193 463 c 256,9,10
 193 435 193 435 174 416 c 128,-1,11
 155 397 155 397 127 397 c 256,0,1
93 -113 m 1,12,-1
 51 -85 l 1,13,-1
 106 0 l 1,14,15
 90 3 90 3 74 18.5 c 128,-1,16
 58 34 58 34 58 59 c 0,17,18
 58 86 58 86 77 105 c 128,-1,19
 96 124 96 124 124 124 c 0,20,21
 138 124 138 124 150 119 c 128,-1,22
 162 114 162 114 170.5 105 c 128,-1,23
 179 96 179 96 184 84.5 c 128,-1,24
 189 73 189 73 189 59 c 0,25,26
 189 47 189 47 185 35.5 c 128,-1,27
 181 24 181 24 175 12.5 c 128,-1,28
 169 1 169 1 161 -10 c 2,29,-1
 93 -113 l 1,12,-1
EndSplineSet
Substitution2: "<6,0> Monospaced Numbers lookup 22 subtable" semicolon.tf
EndChar

StartChar: less
Encoding: 60 60 31
Width: 506
GlyphClass: 1
Flags: W
LayerCount: 2
UndoRedoHistory
Layer: 0
Undoes
UndoOperation
Index: 0
Type: 1
WasModified: 0
WasOrder2: 1
Layer: 2
Width: 495
VWidth: 1000
LBearingChange: 0
UnicodeEnc: 0
InstructionsLength: 0
EndUndoOperation
EndUndoes
Redoes
EndRedoes
EndUndoRedoHistory
UndoRedoHistory
Layer: 1
Undoes
UndoOperation
Index: 0
Type: 3
WasModified: 0
WasOrder2: 1
Layer: 2
EndUndoOperation
EndUndoes
Redoes
EndRedoes
EndUndoRedoHistory
Fore
SplineSet
447 57 m 1,0,-1
 55 246 l 1,1,-1
 55 309 l 1,2,-1
 447 498 l 1,3,-1
 447 418 l 1,4,-1
 146 280 l 1,5,-1
 146 275 l 1,6,-1
 447 137 l 1,7,-1
 447 57 l 1,0,-1
EndSplineSet
Substitution2: "<6,0> Monospaced Numbers lookup 22 subtable" less.tf
Substitution2: "'rtla' Right to Left Alternates lookup 0 subtable" greater
EndChar

StartChar: equal
Encoding: 61 61 32
Width: 579
GlyphClass: 1
Flags: W
LayerCount: 2
UndoRedoHistory
Layer: 0
Undoes
UndoOperation
Index: 0
Type: 1
WasModified: 0
WasOrder2: 1
Layer: 2
Width: 566
VWidth: 1000
LBearingChange: 0
UnicodeEnc: 0
InstructionsLength: 0
EndUndoOperation
EndUndoes
Redoes
EndRedoes
EndUndoRedoHistory
UndoRedoHistory
Layer: 1
Undoes
UndoOperation
Index: 0
Type: 3
WasModified: 0
WasOrder2: 1
Layer: 2
EndUndoOperation
EndUndoes
Redoes
EndRedoes
EndUndoRedoHistory
Fore
SplineSet
61 337 m 1,0,-1
 61 409 l 1,1,-1
 518 409 l 1,2,-1
 518 337 l 1,3,-1
 61 337 l 1,0,-1
61 142 m 1,4,-1
 61 214 l 1,5,-1
 518 214 l 1,6,-1
 518 142 l 1,7,-1
 61 142 l 1,4,-1
EndSplineSet
Substitution2: "<6,0> Monospaced Numbers lookup 22 subtable" equal.tf
EndChar

StartChar: greater
Encoding: 62 62 33
Width: 506
GlyphClass: 1
Flags: W
LayerCount: 2
UndoRedoHistory
Layer: 0
Undoes
UndoOperation
Index: 0
Type: 1
WasModified: 0
WasOrder2: 1
Layer: 2
Width: 495
VWidth: 1000
LBearingChange: 0
UnicodeEnc: 0
InstructionsLength: 0
EndUndoOperation
EndUndoes
Redoes
EndRedoes
EndUndoRedoHistory
UndoRedoHistory
Layer: 1
Undoes
UndoOperation
Index: 0
Type: 3
WasModified: 0
WasOrder2: 1
Layer: 2
EndUndoOperation
EndUndoes
Redoes
EndRedoes
EndUndoRedoHistory
Fore
SplineSet
59 57 m 1,0,-1
 59 137 l 1,1,-1
 359 275 l 1,2,-1
 359 280 l 1,3,-1
 59 418 l 1,4,-1
 59 498 l 1,5,-1
 452 309 l 1,6,-1
 452 246 l 1,7,-1
 59 57 l 1,0,-1
EndSplineSet
Substitution2: "<6,0> Monospaced Numbers lookup 22 subtable" greater.tf
Substitution2: "'rtla' Right to Left Alternates lookup 0 subtable" less
EndChar

StartChar: question
Encoding: 63 63 34
Width: 498
GlyphClass: 1
Flags: W
LayerCount: 2
UndoRedoHistory
Layer: 0
Undoes
UndoOperation
Index: 0
Type: 1
WasModified: 0
WasOrder2: 1
Layer: 2
Width: 487
VWidth: 1000
LBearingChange: 0
UnicodeEnc: 0
InstructionsLength: 0
EndUndoOperation
EndUndoes
Redoes
EndRedoes
EndUndoRedoHistory
UndoRedoHistory
Layer: 1
Undoes
UndoOperation
Index: 0
Type: 3
WasModified: 0
WasOrder2: 1
Layer: 2
EndUndoOperation
EndUndoes
Redoes
EndRedoes
EndUndoRedoHistory
Fore
SplineSet
203 216 m 1,0,-1
 203 265 l 2,1,2
 203 301 203 301 211.5 327 c 128,-1,3
 220 353 220 353 240 377 c 128,-1,4
 260 401 260 401 292 431 c 0,5,6
 315 451 315 451 332 469.5 c 128,-1,7
 349 488 349 488 359 509 c 128,-1,8
 369 530 369 530 369 557 c 0,9,10
 369 605 369 605 337.5 636 c 128,-1,11
 306 667 306 667 249 667 c 0,12,13
 212 667 212 667 186.5 651.5 c 128,-1,14
 161 636 161 636 145.5 612.5 c 128,-1,15
 130 589 130 589 122 565 c 1,16,-1
 42 599 l 1,17,18
 53 631 53 631 78.5 665.5 c 128,-1,19
 104 700 104 700 146 725 c 128,-1,20
 188 750 188 750 249 750 c 0,21,22
 311 750 311 750 357.5 724.5 c 128,-1,23
 404 699 404 699 430.5 655.5 c 128,-1,24
 457 612 457 612 457 557 c 0,25,26
 457 514 457 514 439 480 c 128,-1,27
 421 446 421 446 397.5 422 c 128,-1,28
 374 398 374 398 356 382 c 0,29,30
 334 363 334 363 320 344.5 c 128,-1,31
 306 326 306 326 299 305.5 c 128,-1,32
 292 285 292 285 292 259 c 2,33,-1
 292 216 l 1,34,-1
 203 216 l 1,0,-1
248 -6 m 0,35,36
 220 -6 220 -6 201 13 c 128,-1,37
 182 32 182 32 182 59 c 0,38,39
 182 86 182 86 201 105 c 128,-1,40
 220 124 220 124 248 124 c 0,41,42
 275 124 275 124 293.5 105 c 128,-1,43
 312 86 312 86 312 59 c 0,44,45
 312 31 312 31 293.5 12.5 c 128,-1,46
 275 -6 275 -6 248 -6 c 0,35,36
EndSplineSet
EndChar

StartChar: at
Encoding: 64 64 35
Width: 903
GlyphClass: 1
Flags: W
LayerCount: 2
UndoRedoHistory
Layer: 0
Undoes
UndoOperation
Index: 0
Type: 1
WasModified: 0
WasOrder2: 1
Layer: 2
Width: 882
VWidth: 1000
LBearingChange: 0
UnicodeEnc: 0
InstructionsLength: 0
EndUndoOperation
EndUndoes
Redoes
EndRedoes
EndUndoRedoHistory
UndoRedoHistory
Layer: 1
Undoes
UndoOperation
Index: 0
Type: 3
WasModified: 0
WasOrder2: 1
Layer: 2
EndUndoOperation
EndUndoes
Redoes
EndRedoes
EndUndoRedoHistory
Fore
SplineSet
454 -84 m 0,0,1
 369 -84 369 -84 295.5 -53.5 c 128,-1,2
 222 -23 222 -23 168 31.5 c 128,-1,3
 114 86 114 86 83.5 157.5 c 128,-1,4
 53 229 53 229 53 311 c 256,5,6
 53 393 53 393 83.5 464.5 c 128,-1,7
 114 536 114 536 168.5 590.5 c 128,-1,8
 223 645 223 645 296 676 c 128,-1,9
 369 707 369 707 454 707 c 256,10,11
 539 707 539 707 610.5 676 c 128,-1,12
 682 645 682 645 736.5 591 c 128,-1,13
 791 537 791 537 820.5 465 c 128,-1,14
 850 393 850 393 850 311 c 0,15,16
 850 253 850 253 833 204.5 c 128,-1,17
 816 156 816 156 783 127 c 128,-1,18
 750 98 750 98 698 98 c 0,19,20
 659 98 659 98 630 119.5 c 128,-1,21
 601 141 601 141 585 176 c 1,22,23
 569 151 569 151 545.5 134 c 128,-1,24
 522 117 522 117 490 107.5 c 128,-1,25
 458 98 458 98 414 98 c 0,26,27
 369 98 369 98 329 125 c 128,-1,28
 289 152 289 152 265 199 c 128,-1,29
 241 246 241 246 241 307 c 256,30,31
 241 368 241 368 268 415.5 c 128,-1,32
 295 463 295 463 339 489.5 c 128,-1,33
 383 516 383 516 435 516 c 0,34,35
 463 516 463 516 487 508.5 c 128,-1,36
 511 501 511 501 532 486.5 c 128,-1,37
 553 472 553 472 569 453 c 1,38,-1
 573 453 l 1,39,-1
 573 502 l 1,40,-1
 642 502 l 1,41,-1
 642 234 l 2,42,43
 642 208 642 208 657 184 c 128,-1,44
 672 160 672 160 705 160 c 0,45,46
 729 160 729 160 744 174 c 128,-1,47
 759 188 759 188 767 211 c 128,-1,48
 775 234 775 234 778 261 c 128,-1,49
 781 288 781 288 781 311 c 0,50,51
 781 380 781 380 756 439.5 c 128,-1,52
 731 499 731 499 686 543.5 c 128,-1,53
 641 588 641 588 581.5 613 c 128,-1,54
 522 638 522 638 454 638 c 256,55,56
 385 638 385 638 325.5 613 c 128,-1,57
 266 588 266 588 221 543.5 c 128,-1,58
 176 499 176 499 150.5 439.5 c 128,-1,59
 125 380 125 380 125 311 c 256,60,61
 125 242 125 242 150.5 183 c 128,-1,62
 176 124 176 124 221 79.5 c 128,-1,63
 266 35 266 35 325.5 10 c 128,-1,64
 385 -15 385 -15 454 -15 c 0,65,66
 490 -15 490 -15 522.5 -8 c 128,-1,67
 555 -1 555 -1 584 13 c 1,68,-1
 611 -51 l 1,69,70
 576 -67 576 -67 536.5 -75.5 c 128,-1,71
 497 -84 497 -84 454 -84 c 0,0,1
439 167 m 0,72,73
 474 167 474 167 505 184.5 c 128,-1,74
 536 202 536 202 554.5 233 c 128,-1,75
 573 264 573 264 573 307 c 256,76,77
 573 350 573 350 555.5 381 c 128,-1,78
 538 412 538 412 508.5 428 c 128,-1,79
 479 444 479 444 445 444 c 256,80,81
 411 444 411 444 381.5 428 c 128,-1,82
 352 412 352 412 334 381 c 128,-1,83
 316 350 316 350 316 307 c 0,84,85
 316 265 316 265 331.5 233.5 c 128,-1,86
 347 202 347 202 374.5 184.5 c 128,-1,87
 402 167 402 167 439 167 c 0,72,73
EndSplineSet
EndChar

StartChar: A
Encoding: 65 65 36
Width: 686
GlyphClass: 1
Flags: W
LayerCount: 2
UndoRedoHistory
Layer: 0
Undoes
UndoOperation
Index: 0
Type: 1
WasModified: 0
WasOrder2: 1
Layer: 2
Width: 670
VWidth: 1000
LBearingChange: 0
UnicodeEnc: 0
InstructionsLength: 0
EndUndoOperation
EndUndoes
Redoes
EndRedoes
EndUndoRedoHistory
UndoRedoHistory
Layer: 1
Undoes
UndoOperation
Index: 0
Type: 3
WasModified: 0
WasOrder2: 1
Layer: 2
EndUndoOperation
EndUndoes
Redoes
EndRedoes
EndUndoRedoHistory
Fore
SplineSet
15 0 m 1,0,-1
 294 733 l 1,1,2
 294 733 294 733 392 733 c 1,3,4
 392 733 392 733 671 0 c 1,5,6
 671 0 671 0 575 0 c 1,7,8
 575 0 575 0 374 548 c 2,9,10
 374 548 374 548 345 627 c 1,11,12
 345 627 345 627 341 627 c 2,13,14
 341 627 341 627 312 548 c 2,15,16
 312 548 312 548 111 0 c 1,17,-1
 15 0 l 1,0,-1
333 202 m 1,18,19
 333 202 333 202 333 284 c 1,20,21
 333 284 333 284 502 284 c 1,22,23
 502 284 502 284 531 202 c 1,24,25
 532 202 532 202 333 202 c 1,18,19
134 202 m 1,26,27
 134 202 134 202 164 284 c 1,28,29
 164 284 164 284 333 284 c 1,30,31
 333 284 333 284 333 202 c 1,32,33
 333 202 333 202 134 202 c 1,26,27
EndSplineSet
EndChar

StartChar: B
Encoding: 66 66 37
Width: 614
GlyphClass: 1
Flags: W
LayerCount: 2
UndoRedoHistory
Layer: 0
Undoes
UndoOperation
Index: 0
Type: 1
WasModified: 0
WasOrder2: 1
Layer: 2
Width: 600
VWidth: 1000
LBearingChange: 0
UnicodeEnc: 0
InstructionsLength: 0
EndUndoOperation
EndUndoes
Redoes
EndRedoes
EndUndoRedoHistory
UndoRedoHistory
Layer: 1
Undoes
UndoOperation
Index: 0
Type: 3
WasModified: 0
WasOrder2: 1
Layer: 2
EndUndoOperation
EndUndoes
Redoes
EndRedoes
EndUndoRedoHistory
Fore
SplineSet
81 0 m 1,0,1
 81 0 81 0 81 733 c 1,2,3
 81 733 81 733 344 733 c 0,4,5
 400 733 400 733 448 708 c 128,-1,6
 496 683 496 683 525 638.5 c 128,-1,7
 554 594 554 594 554 536 c 0,8,9
 554 482 554 482 526.5 441.5 c 128,-1,10
 499 401 499 401 454 381 c 1,11,12
 454 381 454 381 454 377 c 0,13,14
 508 360 508 360 543.5 314.5 c 128,-1,15
 579 269 579 269 579 208 c 256,16,17
 579 147 579 147 548 100 c 128,-1,18
 517 53 517 53 467 26.5 c 128,-1,19
 417 0 417 0 358 0 c 2,20,21
 359 0 359 0 81 0 c 1,0,1
127 334 m 1,22,23
 127 334 127 334 127 417 c 1,24,25
 127 417 127 417 344 417 c 0,26,27
 383 417 383 417 410.5 435 c 128,-1,28
 438 453 438 453 453 479.5 c 128,-1,29
 468 506 468 506 468 534 c 256,30,31
 468 562 468 562 453.5 588 c 128,-1,32
 439 614 439 614 412.5 632 c 128,-1,33
 386 650 386 650 348 650 c 2,34,35
 348 650 348 650 168 650 c 1,36,37
 168 650 168 650 168 83 c 1,38,39
 168 83 168 83 364 83 c 0,40,41
 403 83 403 83 431.5 102 c 128,-1,42
 460 121 460 121 475 150 c 128,-1,43
 490 179 490 179 490 209 c 0,44,45
 490 240 490 240 474.5 268.5 c 128,-1,46
 459 297 459 297 429.5 315.5 c 128,-1,47
 400 334 400 334 359 334 c 2,48,49
 359 334 359 334 127 334 c 1,22,23
EndSplineSet
EndChar

StartChar: C
Encoding: 67 67 38
Width: 753
GlyphClass: 1
Flags: W
LayerCount: 2
UndoRedoHistory
Layer: 0
Undoes
UndoOperation
Index: 0
Type: 1
WasModified: 0
WasOrder2: 1
Layer: 2
Width: 736
VWidth: 1000
LBearingChange: 0
UnicodeEnc: 0
InstructionsLength: 0
EndUndoOperation
EndUndoes
Redoes
EndRedoes
EndUndoRedoHistory
UndoRedoHistory
Layer: 1
Undoes
UndoOperation
Index: 0
Type: 3
WasModified: 0
WasOrder2: 1
Layer: 2
EndUndoOperation
EndUndoes
Redoes
EndRedoes
EndUndoRedoHistory
Fore
SplineSet
425 -16 m 0,0,1
 344 -16 344 -16 275 13 c 128,-1,2
 206 42 206 42 154 93.5 c 128,-1,3
 102 145 102 145 73.5 215.5 c 128,-1,4
 45 286 45 286 45 367 c 0,5,6
 45 449 45 449 73.5 518.5 c 128,-1,7
 102 588 102 588 154 639.5 c 128,-1,8
 206 691 206 691 275 720.5 c 128,-1,9
 344 750 344 750 425 750 c 0,10,11
 481 750 481 750 530 735.5 c 128,-1,12
 579 721 579 721 619.5 694.5 c 128,-1,13
 660 668 660 668 693 630 c 1,14,15
 693 630 693 630 631 569 c 1,16,17
 603 603 603 603 572 624.5 c 128,-1,18
 541 646 541 646 504.5 656.5 c 128,-1,19
 468 667 468 667 425 667 c 0,20,21
 346 667 346 667 279.5 630 c 128,-1,22
 213 593 213 593 173 526 c 128,-1,23
 133 459 133 459 133 367 c 0,24,25
 133 276 133 276 173 208 c 128,-1,26
 213 140 213 140 279.5 103.5 c 128,-1,27
 346 67 346 67 425 67 c 0,28,29
 497 67 497 67 552.5 96.5 c 128,-1,30
 608 126 608 126 651 176 c 1,31,32
 651 176 651 176 715 115 c 1,33,34
 683 77 683 77 638.5 47 c 128,-1,35
 594 17 594 17 540 0.5 c 128,-1,36
 486 -16 486 -16 425 -16 c 0,0,1
EndSplineSet
EndChar

StartChar: D
Encoding: 68 68 39
Width: 717
GlyphClass: 1
Flags: W
LayerCount: 2
UndoRedoHistory
Layer: 0
Undoes
UndoOperation
Index: 0
Type: 1
WasModified: 0
WasOrder2: 1
Layer: 2
Width: 701
VWidth: 1000
LBearingChange: 0
UnicodeEnc: 0
InstructionsLength: 0
EndUndoOperation
EndUndoes
Redoes
EndRedoes
EndUndoRedoHistory
UndoRedoHistory
Layer: 1
Undoes
UndoOperation
Index: 0
Type: 3
WasModified: 0
WasOrder2: 1
Layer: 2
EndUndoOperation
EndUndoes
Redoes
EndRedoes
EndUndoRedoHistory
Fore
SplineSet
81 0 m 1,0,1
 81 0 81 0 81 733 c 1,2,3
 81 733 81 733 302 733 c 0,4,5
 417 733 417 733 500 686.5 c 128,-1,6
 583 640 583 640 628 557 c 128,-1,7
 673 474 673 474 673 367 c 256,8,9
 673 259 673 259 628 176.5 c 128,-1,10
 583 94 583 94 500 47 c 128,-1,11
 417 0 417 0 302 0 c 2,12,-1
 81 0 l 1,0,1
168 83 m 1,13,14
 168 83 168 83 302 83 c 0,15,16
 388 83 388 83 451.5 116.5 c 128,-1,17
 515 150 515 150 550 213 c 128,-1,18
 585 276 585 276 585 367 c 256,19,20
 585 457 585 457 550 520.5 c 128,-1,21
 515 584 515 584 451.5 617 c 128,-1,22
 388 650 388 650 302 650 c 2,23,24
 302 650 302 650 168 650 c 1,25,26
 168 650 168 650 168 83 c 1,13,14
EndSplineSet
EndChar

StartChar: E
Encoding: 69 69 40
Width: 557
GlyphClass: 1
Flags: W
LayerCount: 2
UndoRedoHistory
Layer: 0
Undoes
UndoOperation
Index: 0
Type: 1
WasModified: 0
WasOrder2: 1
Layer: 2
Width: 544
VWidth: 1000
LBearingChange: 0
UnicodeEnc: 0
InstructionsLength: 0
EndUndoOperation
EndUndoes
Redoes
EndRedoes
EndUndoRedoHistory
UndoRedoHistory
Layer: 1
Undoes
UndoOperation
Index: 0
Type: 3
WasModified: 0
WasOrder2: 1
Layer: 2
EndUndoOperation
EndUndoes
Redoes
EndRedoes
EndUndoRedoHistory
Fore
SplineSet
81 0 m 1,0,-1
 81 733 l 1,1,-1
 505 733 l 1,2,-1
 505 650 l 1,3,-1
 168 650 l 1,4,-1
 168 83 l 1,5,-1
 505 83 l 1,6,-1
 505 0 l 1,7,-1
 81 0 l 1,0,-1
127 326 m 1,8,-1
 127 408 l 1,9,-1
 472 408 l 1,10,-1
 472 326 l 1,11,-1
 127 326 l 1,8,-1
EndSplineSet
EndChar

StartChar: F
Encoding: 70 70 41
Width: 541
GlyphClass: 1
Flags: W
LayerCount: 2
UndoRedoHistory
Layer: 0
Undoes
UndoOperation
Index: 0
Type: 1
WasModified: 0
WasOrder2: 1
Layer: 2
Width: 529
VWidth: 1000
LBearingChange: 0
UnicodeEnc: 0
InstructionsLength: 0
EndUndoOperation
EndUndoes
Redoes
EndRedoes
EndUndoRedoHistory
UndoRedoHistory
Layer: 1
Undoes
UndoOperation
Index: 0
Type: 3
WasModified: 0
WasOrder2: 1
Layer: 2
EndUndoOperation
EndUndoes
Redoes
EndRedoes
EndUndoRedoHistory
Fore
SplineSet
81 0 m 1,0,-1
 81 733 l 1,1,-1
 505 733 l 1,2,-1
 505 650 l 1,3,-1
 168 650 l 1,4,-1
 168 0 l 1,5,-1
 81 0 l 1,0,-1
127 317 m 1,6,-1
 127 399 l 1,7,-1
 472 399 l 1,8,-1
 472 317 l 1,9,-1
 127 317 l 1,6,-1
EndSplineSet
EndChar

StartChar: G
Encoding: 71 71 42
Width: 825
GlyphClass: 1
Flags: W
LayerCount: 2
UndoRedoHistory
Layer: 0
Undoes
UndoOperation
Index: 0
Type: 1
WasModified: 0
WasOrder2: 1
Layer: 2
Width: 806
VWidth: 1000
LBearingChange: 0
UnicodeEnc: 0
InstructionsLength: 0
EndUndoOperation
EndUndoes
Redoes
EndRedoes
EndUndoRedoHistory
UndoRedoHistory
Layer: 1
Undoes
UndoOperation
Index: 0
Type: 3
WasModified: 0
WasOrder2: 1
Layer: 2
EndUndoOperation
EndUndoes
Redoes
EndRedoes
EndUndoRedoHistory
Fore
SplineSet
425 -16 m 0,0,1
 347 -16 347 -16 278 12.5 c 128,-1,2
 209 41 209 41 156.5 93 c 128,-1,3
 104 145 104 145 74.5 215 c 128,-1,4
 45 285 45 285 45 367 c 256,5,6
 45 449 45 449 74.5 518.5 c 128,-1,7
 104 588 104 588 156.5 640 c 128,-1,8
 209 692 209 692 278 721 c 128,-1,9
 347 750 347 750 425 750 c 0,10,11
 506 750 506 750 577 721 c 128,-1,12
 648 692 648 692 694 640 c 1,13,-1
 633 579 l 1,14,15
 609 608 609 608 576.5 627 c 128,-1,16
 544 646 544 646 506 656.5 c 128,-1,17
 468 667 468 667 426 667 c 0,18,19
 368 667 368 667 314.5 646 c 128,-1,20
 261 625 261 625 220.5 585.5 c 128,-1,21
 180 546 180 546 156.5 490.5 c 128,-1,22
 133 435 133 435 133 367 c 256,23,24
 133 298 133 298 157 242.5 c 128,-1,25
 181 187 181 187 222 148 c 128,-1,26
 263 109 263 109 316 88 c 128,-1,27
 369 67 369 67 426 67 c 0,28,29
 475 67 475 67 521.5 80.5 c 128,-1,30
 568 94 568 94 605.5 123.5 c 128,-1,31
 643 153 643 153 667.5 199 c 128,-1,32
 692 245 692 245 697 309 c 1,33,-1
 427 309 l 1,34,35
 427 309 427 309 427 390 c 1,36,37
 427 390 427 390 779 390 c 1,38,39
 781 377 781 377 782.5 364.5 c 128,-1,40
 784 352 784 352 784 338 c 1,41,42
 784 338 784 338 784 338 c 257,43,44
 784 338 784 338 784 338 c 257,45,46
 784 338 784 338 784 337 c 0,47,48
 784 258 784 258 757.5 193 c 128,-1,49
 731 128 731 128 683 81.5 c 128,-1,50
 635 35 635 35 569.5 9.5 c 128,-1,51
 504 -16 504 -16 425 -16 c 0,0,1
EndSplineSet
EndChar

StartChar: H
Encoding: 72 72 43
Width: 712
GlyphClass: 1
Flags: W
LayerCount: 2
UndoRedoHistory
Layer: 0
Undoes
UndoOperation
Index: 0
Type: 1
WasModified: 0
WasOrder2: 1
Layer: 2
Width: 696
VWidth: 1000
LBearingChange: 0
UnicodeEnc: 0
InstructionsLength: 0
EndUndoOperation
EndUndoes
Redoes
EndRedoes
EndUndoRedoHistory
UndoRedoHistory
Layer: 1
Undoes
UndoOperation
Index: 0
Type: 3
WasModified: 0
WasOrder2: 1
Layer: 2
EndUndoOperation
EndUndoes
Redoes
EndRedoes
EndUndoRedoHistory
Fore
SplineSet
81 0 m 1,0,-1
 81 733 l 1,1,-1
 168 733 l 1,2,-1
 168 0 l 1,3,-1
 81 0 l 1,0,-1
127 334 m 1,4,-1
 127 417 l 1,5,-1
 565 417 l 1,6,-1
 565 334 l 1,7,-1
 127 334 l 1,4,-1
545 0 m 1,8,-1
 545 733 l 1,9,-1
 632 733 l 1,10,-1
 632 0 l 1,11,-1
 545 0 l 1,8,-1
EndSplineSet
EndChar

StartChar: I
Encoding: 73 73 44
Width: 248
GlyphClass: 1
Flags: W
LayerCount: 2
UndoRedoHistory
Layer: 0
Undoes
UndoOperation
Index: 0
Type: 1
WasModified: 0
WasOrder2: 1
Layer: 2
Width: 243
VWidth: 1000
LBearingChange: 0
UnicodeEnc: 0
InstructionsLength: 0
EndUndoOperation
EndUndoes
Redoes
EndRedoes
EndUndoRedoHistory
UndoRedoHistory
Layer: 1
Undoes
UndoOperation
Index: 0
Type: 3
WasModified: 0
WasOrder2: 1
Layer: 2
EndUndoOperation
EndUndoes
Redoes
EndRedoes
EndUndoRedoHistory
Fore
SplineSet
81 0 m 1,0,1
 81 0 81 0 81 733 c 1,2,3
 81 733 81 733 168 733 c 1,4,5
 168 733 168 733 168 0 c 1,6,7
 168 0 168 0 81 0 c 1,0,1
EndSplineSet
EndChar

StartChar: J
Encoding: 74 74 45
Width: 542
GlyphClass: 1
Flags: W
LayerCount: 2
UndoRedoHistory
Layer: 0
Undoes
UndoOperation
Index: 0
Type: 1
WasModified: 0
WasOrder2: 1
Layer: 2
Width: 530
VWidth: 1000
LBearingChange: 0
UnicodeEnc: 0
InstructionsLength: 0
EndUndoOperation
EndUndoes
Redoes
EndRedoes
EndUndoRedoHistory
UndoRedoHistory
Layer: 1
Undoes
UndoOperation
Index: 0
Type: 3
WasModified: 0
WasOrder2: 1
Layer: 2
EndUndoOperation
EndUndoes
Redoes
EndRedoes
EndUndoRedoHistory
Fore
SplineSet
251 -16 m 0,0,1
 171 -16 171 -16 110.5 28 c 128,-1,2
 50 72 50 72 25 154 c 1,3,4
 25 154 25 154 106 187 c 1,5,6
 126 118 126 118 165 92.5 c 128,-1,7
 204 67 204 67 251 67 c 0,8,9
 312 67 312 67 348 109.5 c 128,-1,10
 384 152 384 152 384 219 c 2,11,12
 384 219 384 219 384 733 c 1,13,14
 384 733 384 733 471 733 c 1,15,16
 471 733 471 733 471 226 c 0,17,18
 471 148 471 148 443 94 c 128,-1,19
 415 40 415 40 365.5 12 c 128,-1,20
 316 -16 316 -16 251 -16 c 0,0,1
EndSplineSet
EndChar

StartChar: K
Encoding: 75 75 46
Width: 642
GlyphClass: 1
Flags: W
LayerCount: 2
UndoRedoHistory
Layer: 0
Undoes
UndoOperation
Index: 0
Type: 1
WasModified: 0
WasOrder2: 1
Layer: 2
Width: 627
VWidth: 1000
LBearingChange: 0
UnicodeEnc: 0
InstructionsLength: 0
EndUndoOperation
EndUndoes
Redoes
EndRedoes
EndUndoRedoHistory
UndoRedoHistory
Layer: 1
Undoes
UndoOperation
Index: 0
Type: 3
WasModified: 0
WasOrder2: 1
Layer: 2
EndUndoOperation
EndUndoes
Redoes
EndRedoes
EndUndoRedoHistory
Fore
SplineSet
81 0 m 1,0,1
 81 0 81 0 81 733 c 1,2,3
 81 733 81 733 168 733 c 1,4,5
 168 733 168 733 168 256 c 2,6,7
 168 256 168 256 168 0 c 1,8,9
 168 0 168 0 81 0 c 1,0,1
527 0 m 1,10,11
 527 0 527 0 261 381 c 1,12,13
 261 381 261 381 319 447 c 1,14,15
 319 447 319 447 633 4 c 1,16,17
 633 4 633 4 633 0 c 1,18,19
 632 0 632 0 527 0 c 1,10,11
125 165 m 1,20,21
 125 165 125 165 125 291 c 1,22,23
 125 291 125 291 502 733 c 1,24,25
 502 733 502 733 613 733 c 1,26,27
 613 733 613 733 613 729 c 2,28,29
 613 729 613 729 125 165 c 1,20,21
EndSplineSet
EndChar

StartChar: L
Encoding: 76 76 47
Width: 517
GlyphClass: 1
Flags: W
LayerCount: 2
UndoRedoHistory
Layer: 0
Undoes
UndoOperation
Index: 0
Type: 1
WasModified: 0
WasOrder2: 1
Layer: 2
Width: 505
VWidth: 1000
LBearingChange: 0
UnicodeEnc: 0
InstructionsLength: 0
EndUndoOperation
EndUndoes
Redoes
EndRedoes
EndUndoRedoHistory
UndoRedoHistory
Layer: 1
Undoes
UndoOperation
Index: 0
Type: 3
WasModified: 0
WasOrder2: 1
Layer: 2
EndUndoOperation
EndUndoes
Redoes
EndRedoes
EndUndoRedoHistory
Fore
SplineSet
81 0 m 1,0,-1
 81 733 l 1,1,-1
 168 733 l 1,2,-1
 168 83 l 1,3,-1
 488 83 l 1,4,-1
 488 0 l 1,5,-1
 81 0 l 1,0,-1
EndSplineSet
EndChar

StartChar: M
Encoding: 77 77 48
Width: 884
GlyphClass: 1
Flags: W
LayerCount: 2
UndoRedoHistory
Layer: 0
Undoes
UndoOperation
Index: 0
Type: 1
WasModified: 0
WasOrder2: 1
Layer: 2
Width: 864
VWidth: 1000
LBearingChange: 0
UnicodeEnc: 0
InstructionsLength: 0
EndUndoOperation
EndUndoes
Redoes
EndRedoes
EndUndoRedoHistory
UndoRedoHistory
Layer: 1
Undoes
UndoOperation
Index: 0
Type: 3
WasModified: 0
WasOrder2: 1
Layer: 2
EndUndoOperation
EndUndoes
Redoes
EndRedoes
EndUndoRedoHistory
Fore
SplineSet
81 0 m 1,0,1
 81 0 81 0 81 733 c 1,2,3
 81 733 81 733 207 733 c 1,4,5
 207 733 207 733 440 132 c 1,6,7
 440 132 440 132 444 132 c 2,8,9
 444 132 444 132 678 733 c 1,10,11
 678 733 678 733 804 733 c 1,12,13
 804 733 804 733 804 0 c 1,14,15
 804 0 804 0 718 0 c 1,16,17
 718 0 718 0 718 466 c 1,18,19
 718 466 718 466 722 605 c 1,20,21
 722 605 722 605 718 605 c 2,22,23
 718 605 718 605 478 0 c 1,24,-1
 407 0 l 1,25,-1
 167 605 l 1,26,-1
 163 605 l 1,27,28
 163 605 163 605 167 466 c 1,29,30
 167 466 167 466 167 0 c 1,31,32
 167 0 167 0 81 0 c 1,0,1
EndSplineSet
EndChar

StartChar: N
Encoding: 78 78 49
Width: 722
GlyphClass: 1
Flags: W
LayerCount: 2
UndoRedoHistory
Layer: 0
Undoes
UndoOperation
Index: 0
Type: 1
WasModified: 0
WasOrder2: 1
Layer: 2
Width: 706
VWidth: 1000
LBearingChange: 0
UnicodeEnc: 0
InstructionsLength: 0
EndUndoOperation
EndUndoes
Redoes
EndRedoes
EndUndoRedoHistory
UndoRedoHistory
Layer: 1
Undoes
UndoOperation
Index: 0
Type: 3
WasModified: 0
WasOrder2: 1
Layer: 2
EndUndoOperation
EndUndoes
Redoes
EndRedoes
EndUndoRedoHistory
Fore
SplineSet
81 0 m 1,0,1
 81 0 81 0 81 733 c 1,2,3
 81 733 81 733 187 733 c 1,4,5
 187 733 187 733 555 150 c 1,6,7
 555 150 555 150 559 150 c 1,8,9
 559 150 559 150 555 291 c 1,10,11
 555 291 555 291 555 733 c 1,12,13
 555 733 555 733 642 733 c 1,14,15
 642 733 642 733 642 0 c 1,16,17
 642 0 642 0 552 0 c 1,18,19
 552 0 552 0 168 611 c 1,20,21
 168 611 168 611 164 611 c 1,22,23
 164 611 164 611 168 470 c 1,24,25
 168 470 168 470 168 0 c 1,26,27
 168 0 168 0 81 0 c 1,0,1
EndSplineSet
EndChar

StartChar: O
Encoding: 79 79 50
Width: 841
GlyphClass: 1
Flags: W
LayerCount: 2
UndoRedoHistory
Layer: 0
Undoes
UndoOperation
Index: 0
Type: 1
WasModified: 0
WasOrder2: 1
Layer: 2
Width: 822
VWidth: 1000
LBearingChange: 0
UnicodeEnc: 0
InstructionsLength: 0
EndUndoOperation
EndUndoes
Redoes
EndRedoes
EndUndoRedoHistory
UndoRedoHistory
Layer: 1
Undoes
UndoOperation
Index: 0
Type: 3
WasModified: 0
WasOrder2: 1
Layer: 2
EndUndoOperation
EndUndoes
Redoes
EndRedoes
EndUndoRedoHistory
Fore
SplineSet
421 -16 m 256,0,1
 340 -16 340 -16 271.5 13.5 c 128,-1,2
 203 43 203 43 152 95.5 c 128,-1,3
 101 148 101 148 73 217.5 c 128,-1,4
 45 287 45 287 45 367 c 256,5,6
 45 447 45 447 73 516 c 128,-1,7
 101 585 101 585 152 637.5 c 128,-1,8
 203 690 203 690 271.5 720 c 128,-1,9
 340 750 340 750 421 750 c 256,10,11
 502 750 502 750 570.5 720 c 128,-1,12
 639 690 639 690 689.5 637.5 c 128,-1,13
 740 585 740 585 768.5 515.5 c 128,-1,14
 797 446 797 446 797 367 c 256,15,16
 797 287 797 287 768.5 217.5 c 128,-1,17
 740 148 740 148 689.5 95.5 c 128,-1,18
 639 43 639 43 570.5 13.5 c 128,-1,19
 502 -16 502 -16 421 -16 c 256,0,1
421 67 m 0,20,21
 501 67 501 67 566 104.5 c 128,-1,22
 631 142 631 142 670 210.5 c 128,-1,23
 709 279 709 279 709 367 c 0,24,25
 709 456 709 456 670 523.5 c 128,-1,26
 631 591 631 591 566 629 c 128,-1,27
 501 667 501 667 421 667 c 0,28,29
 342 667 342 667 276.5 629 c 128,-1,30
 211 591 211 591 172 523.5 c 128,-1,31
 133 456 133 456 133 367 c 0,32,33
 133 279 133 279 172 210.5 c 128,-1,34
 211 142 211 142 276.5 104.5 c 128,-1,35
 342 67 342 67 421 67 c 0,20,21
EndSplineSet
EndChar

StartChar: P
Encoding: 80 80 51
Width: 587
GlyphClass: 1
Flags: W
LayerCount: 2
UndoRedoHistory
Layer: 0
Undoes
UndoOperation
Index: 0
Type: 1
WasModified: 0
WasOrder2: 1
Layer: 2
Width: 574
VWidth: 1000
LBearingChange: 0
UnicodeEnc: 0
InstructionsLength: 0
EndUndoOperation
EndUndoes
Redoes
EndRedoes
EndUndoRedoHistory
UndoRedoHistory
Layer: 1
Undoes
UndoOperation
Index: 0
Type: 3
WasModified: 0
WasOrder2: 1
Layer: 2
EndUndoOperation
EndUndoes
Redoes
EndRedoes
EndUndoRedoHistory
Fore
SplineSet
81 0 m 1,0,1
 81 0 81 0 81 733 c 1,2,3
 81 733 81 733 328 733 c 0,4,5
 389 733 389 733 441.5 705.5 c 128,-1,6
 494 678 494 678 525 629.5 c 128,-1,7
 556 581 556 581 556 516 c 0,8,9
 556 453 556 453 525 403.5 c 128,-1,10
 494 354 494 354 441.5 326.5 c 128,-1,11
 389 299 389 299 328 299 c 2,12,13
 328 299 328 299 127 299 c 1,14,15
 127 299 127 299 127 382 c 1,16,17
 127 382 127 382 330 382 c 0,18,19
 373 382 373 382 403.5 402 c 128,-1,20
 434 422 434 422 451 452.5 c 128,-1,21
 468 483 468 483 468 516 c 256,22,23
 468 549 468 549 451 579.5 c 128,-1,24
 434 610 434 610 403.5 630 c 128,-1,25
 373 650 373 650 330 650 c 2,26,-1
 168 650 l 1,27,28
 168 650 168 650 168 0 c 1,29,30
 168 0 168 0 81 0 c 1,0,1
EndSplineSet
EndChar

StartChar: Q
Encoding: 81 81 52
Width: 841
GlyphClass: 1
Flags: W
LayerCount: 2
UndoRedoHistory
Layer: 0
Undoes
UndoOperation
Index: 0
Type: 1
WasModified: 0
WasOrder2: 1
Layer: 2
Width: 822
VWidth: 1000
LBearingChange: 0
UnicodeEnc: 0
InstructionsLength: 0
EndUndoOperation
EndUndoes
Redoes
EndRedoes
EndUndoRedoHistory
UndoRedoHistory
Layer: 1
Undoes
UndoOperation
Index: 0
Type: 3
WasModified: 0
WasOrder2: 1
Layer: 2
EndUndoOperation
EndUndoes
Redoes
EndRedoes
EndUndoRedoHistory
Fore
SplineSet
421 -16 m 256,0,1
 340 -16 340 -16 271.5 13.5 c 128,-1,2
 203 43 203 43 152 95 c 128,-1,3
 101 147 101 147 73 217 c 128,-1,4
 45 287 45 287 45 367 c 256,5,6
 45 447 45 447 73 516 c 128,-1,7
 101 585 101 585 152 637.5 c 128,-1,8
 203 690 203 690 271.5 720 c 128,-1,9
 340 750 340 750 421 750 c 256,10,11
 502 750 502 750 570.5 720 c 128,-1,12
 639 690 639 690 689.5 637.5 c 128,-1,13
 740 585 740 585 768.5 515.5 c 128,-1,14
 797 446 797 446 797 367 c 256,15,16
 797 287 797 287 768.5 217.5 c 128,-1,17
 740 148 740 148 689.5 95.5 c 128,-1,18
 639 43 639 43 570.5 13.5 c 128,-1,19
 502 -16 502 -16 421 -16 c 256,0,1
650 -46 m 1,20,-1
 464 231 l 1,21,-1
 531 278 l 1,22,-1
 718 -2 l 1,23,-1
 650 -46 l 1,20,-1
421 67 m 256,24,25
 500 67 500 67 565.5 104.5 c 128,-1,26
 631 142 631 142 670 210.5 c 128,-1,27
 709 279 709 279 709 367 c 0,28,29
 709 456 709 456 670 523.5 c 128,-1,30
 631 591 631 591 566 629 c 128,-1,31
 501 667 501 667 421 667 c 0,32,33
 342 667 342 667 276.5 629 c 128,-1,34
 211 591 211 591 172 523.5 c 128,-1,35
 133 456 133 456 133 367 c 0,36,37
 133 279 133 279 172 210.5 c 128,-1,38
 211 142 211 142 276.5 104.5 c 128,-1,39
 342 67 342 67 421 67 c 256,24,25
EndSplineSet
EndChar

StartChar: R
Encoding: 82 82 53
Width: 605
GlyphClass: 1
Flags: W
LayerCount: 2
UndoRedoHistory
Layer: 0
Undoes
UndoOperation
Index: 0
Type: 1
WasModified: 0
WasOrder2: 1
Layer: 2
Width: 591
VWidth: 1000
LBearingChange: 0
UnicodeEnc: 0
InstructionsLength: 0
EndUndoOperation
EndUndoes
Redoes
EndRedoes
EndUndoRedoHistory
UndoRedoHistory
Layer: 1
Undoes
UndoOperation
Index: 0
Type: 3
WasModified: 0
WasOrder2: 1
Layer: 2
EndUndoOperation
EndUndoes
Redoes
EndRedoes
EndUndoRedoHistory
Fore
SplineSet
81 0 m 1,0,1
 81 0 81 0 81 733 c 1,2,3
 81 733 81 733 329 733 c 0,4,5
 390 733 390 733 442 705.5 c 128,-1,6
 494 678 494 678 525 629.5 c 128,-1,7
 556 581 556 581 556 516 c 0,8,9
 556 477 556 477 541.5 438.5 c 128,-1,10
 527 400 527 400 497 368.5 c 128,-1,11
 467 337 467 337 420.5 318 c 128,-1,12
 374 299 374 299 309 299 c 2,13,14
 309 299 309 299 127 299 c 1,15,16
 127 299 127 299 127 380 c 1,17,18
 127 380 127 380 324 380 c 0,19,20
 362 380 362 380 394.5 397.5 c 128,-1,21
 427 415 427 415 447.5 445.5 c 128,-1,22
 468 476 468 476 468 516 c 0,23,24
 468 549 468 549 451 579.5 c 128,-1,25
 434 610 434 610 403.5 630 c 128,-1,26
 373 650 373 650 330 650 c 2,27,28
 330 650 330 650 168 650 c 1,29,30
 168 650 168 650 168 0 c 1,31,32
 168 0 168 0 81 0 c 1,0,1
258 336 m 1,33,34
 258 336 258 336 353 341 c 1,35,36
 353 341 353 341 585 4 c 1,37,38
 585 4 585 4 585 0 c 1,39,40
 585 0 585 0 482 0 c 1,41,42
 482 0 482 0 258 336 c 1,33,34
EndSplineSet
EndChar

StartChar: S
Encoding: 83 83 54
Width: 568
GlyphClass: 1
Flags: W
LayerCount: 2
UndoRedoHistory
Layer: 0
Undoes
UndoOperation
Index: 0
Type: 1
WasModified: 0
WasOrder2: 1
Layer: 2
Width: 555
VWidth: 1000
LBearingChange: 0
UnicodeEnc: 0
InstructionsLength: 0
EndUndoOperation
EndUndoes
Redoes
EndRedoes
EndUndoRedoHistory
UndoRedoHistory
Layer: 1
Undoes
UndoOperation
Index: 0
Type: 3
WasModified: 0
WasOrder2: 1
Layer: 2
EndUndoOperation
EndUndoes
Redoes
EndRedoes
EndUndoRedoHistory
Fore
SplineSet
286 -16 m 0,0,1
 233 -16 233 -16 180.5 6.5 c 128,-1,2
 128 29 128 29 88 73 c 128,-1,3
 48 117 48 117 30 182 c 1,4,5
 30 182 30 182 113 216 c 1,6,7
 130 153 130 153 176 110 c 128,-1,8
 222 67 222 67 288 67 c 0,9,10
 329 67 329 67 363 81.5 c 128,-1,11
 397 96 397 96 418 125 c 128,-1,12
 439 154 439 154 439 195 c 0,13,14
 439 232 439 232 421 257.5 c 128,-1,15
 403 283 403 283 367.5 303 c 128,-1,16
 332 323 332 323 280 341 c 2,17,18
 280 341 280 341 233 357 c 0,19,20
 202 368 202 368 171 384 c 128,-1,21
 140 400 140 400 114 423 c 128,-1,22
 88 446 88 446 72.5 478.5 c 128,-1,23
 57 511 57 511 57 555 c 0,24,25
 57 608 57 608 86 652 c 128,-1,26
 115 696 115 696 165 723 c 128,-1,27
 215 750 215 750 281 750 c 0,28,29
 350 750 350 750 396 724.5 c 128,-1,30
 442 699 442 699 469.5 665 c 128,-1,31
 497 631 497 631 506 602 c 1,32,33
 506 602 506 602 425 567 c 1,34,35
 419 589 419 589 401.5 612 c 128,-1,36
 384 635 384 635 355 651 c 128,-1,37
 326 667 326 667 282 667 c 0,38,39
 246 667 246 667 214.5 652.5 c 128,-1,40
 183 638 183 638 164 613 c 128,-1,41
 145 588 145 588 145 555 c 0,42,43
 145 509 145 509 182 482.5 c 128,-1,44
 219 456 219 456 282 434 c 2,45,46
 282 434 282 434 330 418 c 0,47,48
 363 407 363 407 397 390.5 c 128,-1,49
 431 374 431 374 460.5 348.5 c 128,-1,50
 490 323 490 323 508.5 285.5 c 128,-1,51
 527 248 527 248 527 196 c 0,52,53
 527 140 527 140 505 99 c 128,-1,54
 483 58 483 58 447.5 32.5 c 128,-1,55
 412 7 412 7 369.5 -4.5 c 128,-1,56
 327 -16 327 -16 286 -16 c 0,0,1
EndSplineSet
EndChar

StartChar: T
Encoding: 84 84 55
Width: 542
GlyphClass: 1
Flags: W
LayerCount: 2
UndoRedoHistory
Layer: 0
Undoes
UndoOperation
Index: 0
Type: 1
WasModified: 0
WasOrder2: 1
Layer: 2
Width: 530
VWidth: 1000
LBearingChange: 0
UnicodeEnc: 0
InstructionsLength: 0
EndUndoOperation
EndUndoes
Redoes
EndRedoes
EndUndoRedoHistory
UndoRedoHistory
Layer: 1
Undoes
UndoOperation
Index: 0
Type: 3
WasModified: 0
WasOrder2: 1
Layer: 2
EndUndoOperation
EndUndoes
Redoes
EndRedoes
EndUndoRedoHistory
Fore
SplineSet
228 0 m 1,0,-1
 228 681 l 1,1,-1
 315 681 l 1,2,-1
 315 0 l 1,3,-1
 228 0 l 1,0,-1
23 650 m 1,4,-1
 23 733 l 1,5,-1
 520 733 l 1,6,-1
 520 650 l 1,7,-1
 23 650 l 1,4,-1
EndSplineSet
EndChar

StartChar: U
Encoding: 85 85 56
Width: 683
GlyphClass: 1
Flags: W
LayerCount: 2
UndoRedoHistory
Layer: 0
Undoes
UndoOperation
Index: 0
Type: 1
WasModified: 0
WasOrder2: 1
Layer: 2
Width: 667
VWidth: 1000
LBearingChange: 0
UnicodeEnc: 0
InstructionsLength: 0
EndUndoOperation
EndUndoes
Redoes
EndRedoes
EndUndoRedoHistory
UndoRedoHistory
Layer: 1
Undoes
UndoOperation
Index: 0
Type: 3
WasModified: 0
WasOrder2: 1
Layer: 2
EndUndoOperation
EndUndoes
Redoes
EndRedoes
EndUndoRedoHistory
Fore
SplineSet
341 -16 m 0,0,1
 261 -16 261 -16 200.5 20 c 128,-1,2
 140 56 140 56 106 121 c 128,-1,3
 72 186 72 186 72 271 c 2,4,-1
 72 733 l 1,5,-1
 159 733 l 1,6,-1
 159 267 l 2,7,8
 159 210 159 210 179.5 164.5 c 128,-1,9
 200 119 200 119 240.5 93 c 128,-1,10
 281 67 281 67 341 67 c 256,11,12
 401 67 401 67 442 93 c 128,-1,13
 483 119 483 119 503.5 164.5 c 128,-1,14
 524 210 524 210 524 267 c 2,15,-1
 524 733 l 1,16,-1
 611 733 l 1,17,-1
 611 271 l 2,18,19
 611 186 611 186 579 121 c 128,-1,20
 547 56 547 56 486.5 20 c 128,-1,21
 426 -16 426 -16 341 -16 c 0,0,1
EndSplineSet
EndChar

StartChar: V
Encoding: 86 86 57
Width: 648
GlyphClass: 1
Flags: W
LayerCount: 2
UndoRedoHistory
Layer: 0
Undoes
UndoOperation
Index: 0
Type: 1
WasModified: 0
WasOrder2: 1
Layer: 2
Width: 633
VWidth: 1000
LBearingChange: 0
UnicodeEnc: 0
InstructionsLength: 0
EndUndoOperation
EndUndoes
Redoes
EndRedoes
EndUndoRedoHistory
UndoRedoHistory
Layer: 1
Undoes
UndoOperation
Index: 0
Type: 3
WasModified: 0
WasOrder2: 1
Layer: 2
EndUndoOperation
EndUndoes
Redoes
EndRedoes
EndUndoRedoHistory
Fore
SplineSet
275 0 m 1,0,-1
 15 733 l 1,1,-1
 112 733 l 1,2,-1
 293 202 l 1,3,4
 293 202 293 202 317 129 c 1,5,6
 317 129 317 129 322 129 c 2,7,8
 322 129 322 129 347 202 c 2,9,10
 347 202 347 202 537 733 c 1,11,12
 537 733 537 733 633 733 c 1,13,14
 633 733 633 733 365 0 c 1,15,16
 364 0 364 0 275 0 c 1,0,-1
EndSplineSet
EndChar

StartChar: W
Encoding: 87 87 58
Width: 966
GlyphClass: 1
Flags: W
LayerCount: 2
UndoRedoHistory
Layer: 0
Undoes
UndoOperation
Index: 0
Type: 1
WasModified: 0
WasOrder2: 1
Layer: 2
Width: 944
VWidth: 1000
LBearingChange: 0
UnicodeEnc: 0
InstructionsLength: 0
EndUndoOperation
EndUndoes
Redoes
EndRedoes
EndUndoRedoHistory
UndoRedoHistory
Layer: 1
Undoes
UndoOperation
Index: 0
Type: 3
WasModified: 0
WasOrder2: 1
Layer: 2
EndUndoOperation
EndUndoes
Redoes
EndRedoes
EndUndoRedoHistory
Fore
SplineSet
216 0 m 1,0,-1
 17 733 l 1,1,-1
 114 733 l 1,2,-1
 247 195 l 1,3,-1
 259 144 l 1,4,-1
 263 144 l 1,5,-1
 279 195 l 1,6,-1
 442 733 l 1,7,-1
 532 733 l 1,8,-1
 689 195 l 1,9,-1
 705 144 l 1,10,-1
 709 144 l 1,11,-1
 721 195 l 1,12,-1
 853 733 l 1,13,-1
 949 733 l 1,14,-1
 752 0 l 1,15,-1
 662 0 l 1,16,-1
 506 530 l 1,17,-1
 489 588 l 1,18,-1
 485 588 l 1,19,-1
 468 530 l 1,20,-1
 306 0 l 1,21,-1
 216 0 l 1,0,-1
EndSplineSet
EndChar

StartChar: X
Encoding: 88 88 59
Width: 633
GlyphClass: 1
Flags: W
LayerCount: 2
UndoRedoHistory
Layer: 0
Undoes
UndoOperation
Index: 0
Type: 1
WasModified: 0
WasOrder2: 1
Layer: 2
Width: 619
VWidth: 1000
LBearingChange: 0
UnicodeEnc: 0
InstructionsLength: 0
EndUndoOperation
EndUndoes
Redoes
EndRedoes
EndUndoRedoHistory
UndoRedoHistory
Layer: 1
Undoes
UndoOperation
Index: 0
Type: 3
WasModified: 0
WasOrder2: 1
Layer: 2
EndUndoOperation
EndUndoes
Redoes
EndRedoes
EndUndoRedoHistory
Fore
SplineSet
27 733 m 1,0,-1
 131 733 l 1,1,-1
 315 447 l 1,2,-1
 329 447 l 1,3,-1
 622 0 l 1,4,-1
 519 0 l 1,5,-1
 319 306 l 1,6,-1
 308 306 l 1,7,-1
 27 733 l 1,0,-1
12 0 m 1,8,-1
 305 447 l 1,9,-1
 319 447 l 1,10,-1
 504 733 l 1,11,-1
 607 733 l 1,12,-1
 326 306 l 1,13,-1
 315 306 l 1,14,-1
 115 0 l 1,15,-1
 12 0 l 1,8,-1
EndSplineSet
EndChar

StartChar: Y
Encoding: 89 89 60
Width: 599
GlyphClass: 1
Flags: W
LayerCount: 2
UndoRedoHistory
Layer: 0
Undoes
UndoOperation
Index: 0
Type: 1
WasModified: 0
WasOrder2: 1
Layer: 2
Width: 585
VWidth: 1000
LBearingChange: 0
UnicodeEnc: 0
InstructionsLength: 0
EndUndoOperation
EndUndoes
Redoes
EndRedoes
EndUndoRedoHistory
UndoRedoHistory
Layer: 1
Undoes
UndoOperation
Index: 0
Type: 3
WasModified: 0
WasOrder2: 1
Layer: 2
EndUndoOperation
EndUndoes
Redoes
EndRedoes
EndUndoRedoHistory
Fore
SplineSet
258 0 m 1,0,-1
 258 380 l 1,1,-1
 345 380 l 1,2,-1
 345 0 l 1,3,-1
 258 0 l 1,0,-1
10 733 m 1,4,-1
 112 733 l 1,5,-1
 299 426 l 1,6,-1
 303 426 l 1,7,-1
 487 733 l 1,8,-1
 589 733 l 1,9,-1
 345 339 l 1,10,-1
 258 339 l 1,11,-1
 10 733 l 1,4,-1
EndSplineSet
EndChar

StartChar: Z
Encoding: 90 90 61
Width: 583
GlyphClass: 1
Flags: W
LayerCount: 2
UndoRedoHistory
Layer: 0
Undoes
UndoOperation
Index: 0
Type: 1
WasModified: 0
WasOrder2: 1
Layer: 2
Width: 570
VWidth: 1000
LBearingChange: 0
UnicodeEnc: 0
InstructionsLength: 0
EndUndoOperation
EndUndoes
Redoes
EndRedoes
EndUndoRedoHistory
UndoRedoHistory
Layer: 1
Undoes
UndoOperation
Index: 0
Type: 3
WasModified: 0
WasOrder2: 1
Layer: 2
EndUndoOperation
EndUndoes
Redoes
EndRedoes
EndUndoRedoHistory
Fore
SplineSet
41 0 m 1,0,-1
 41 91 l 1,1,-1
 436 650 l 1,2,-1
 57 650 l 1,3,-1
 57 733 l 1,4,-1
 537 733 l 1,5,-1
 537 642 l 1,6,-1
 141 83 l 1,7,-1
 541 83 l 1,8,-1
 541 0 l 1,9,-1
 41 0 l 1,0,-1
EndSplineSet
EndChar

StartChar: bracketleft
Encoding: 91 91 62
Width: 323
GlyphClass: 1
Flags: W
LayerCount: 2
UndoRedoHistory
Layer: 0
Undoes
UndoOperation
Index: 0
Type: 1
WasModified: 0
WasOrder2: 1
Layer: 2
Width: 316
VWidth: 1000
LBearingChange: 0
UnicodeEnc: 0
InstructionsLength: 0
EndUndoOperation
EndUndoes
Redoes
EndRedoes
EndUndoRedoHistory
UndoRedoHistory
Layer: 1
Undoes
UndoOperation
Index: 0
Type: 3
WasModified: 0
WasOrder2: 1
Layer: 2
EndUndoOperation
EndUndoes
Redoes
EndRedoes
EndUndoRedoHistory
Fore
SplineSet
81 -127 m 1,0,-1
 81 811 l 1,1,-1
 287 811 l 1,2,-1
 287 739 l 1,3,-1
 160 739 l 1,4,-1
 160 -55 l 1,5,-1
 287 -55 l 1,6,-1
 287 -127 l 1,7,-1
 81 -127 l 1,0,-1
EndSplineSet
Substitution2: "'rtla' Right to Left Alternates lookup 0 subtable" bracketright
EndChar

StartChar: backslash
Encoding: 92 92 63
Width: 307
GlyphClass: 1
Flags: W
LayerCount: 2
UndoRedoHistory
Layer: 0
Undoes
UndoOperation
Index: 0
Type: 1
WasModified: 0
WasOrder2: 1
Layer: 2
Width: 300
VWidth: 1000
LBearingChange: 0
UnicodeEnc: 0
InstructionsLength: 0
EndUndoOperation
EndUndoes
Redoes
EndRedoes
EndUndoRedoHistory
UndoRedoHistory
Layer: 1
Undoes
UndoOperation
Index: 0
Type: 3
WasModified: 0
WasOrder2: 1
Layer: 2
EndUndoOperation
EndUndoes
Redoes
EndRedoes
EndUndoRedoHistory
Fore
SplineSet
225 0 m 1,0,-1
 2 733 l 1,1,-1
 82 733 l 1,2,-1
 305 0 l 1,3,-1
 225 0 l 1,0,-1
EndSplineSet
EndChar

StartChar: bracketright
Encoding: 93 93 64
Width: 323
GlyphClass: 1
Flags: W
LayerCount: 2
UndoRedoHistory
Layer: 0
Undoes
UndoOperation
Index: 0
Type: 1
WasModified: 0
WasOrder2: 1
Layer: 2
Width: 316
VWidth: 1000
LBearingChange: 0
UnicodeEnc: 0
InstructionsLength: 0
EndUndoOperation
EndUndoes
Redoes
EndRedoes
EndUndoRedoHistory
UndoRedoHistory
Layer: 1
Undoes
UndoOperation
Index: 0
Type: 3
WasModified: 0
WasOrder2: 1
Layer: 2
EndUndoOperation
EndUndoes
Redoes
EndRedoes
EndUndoRedoHistory
Fore
SplineSet
37 -127 m 1,0,-1
 37 -55 l 1,1,-1
 164 -55 l 1,2,-1
 164 739 l 1,3,-1
 37 739 l 1,4,-1
 37 811 l 1,5,-1
 243 811 l 1,6,-1
 243 -127 l 1,7,-1
 37 -127 l 1,0,-1
EndSplineSet
Substitution2: "'rtla' Right to Left Alternates lookup 0 subtable" bracketleft
EndChar

StartChar: asciicircum
Encoding: 94 94 65
Width: 474
GlyphClass: 1
Flags: W
LayerCount: 2
UndoRedoHistory
Layer: 0
Undoes
UndoOperation
Index: 0
Type: 1
WasModified: 0
WasOrder2: 1
Layer: 2
Width: 463
VWidth: 1000
LBearingChange: 0
UnicodeEnc: 0
InstructionsLength: 0
EndUndoOperation
EndUndoes
Redoes
EndRedoes
EndUndoRedoHistory
UndoRedoHistory
Layer: 1
Undoes
UndoOperation
Index: 0
Type: 3
WasModified: 0
WasOrder2: 1
Layer: 2
EndUndoOperation
EndUndoes
Redoes
EndRedoes
EndUndoRedoHistory
Fore
SplineSet
11 420 m 1,0,-1
 203 733 l 1,1,-1
 271 733 l 1,2,-1
 463 420 l 1,3,-1
 372 420 l 1,4,-1
 239 649 l 1,5,-1
 234 649 l 1,6,-1
 102 420 l 1,7,-1
 11 420 l 1,0,-1
EndSplineSet
EndChar

StartChar: underscore
Encoding: 95 95 66
Width: 487
GlyphClass: 1
Flags: W
LayerCount: 2
UndoRedoHistory
Layer: 0
Undoes
UndoOperation
Index: 0
Type: 1
WasModified: 0
WasOrder2: 1
Layer: 2
Width: 476
VWidth: 1000
LBearingChange: 0
UnicodeEnc: 0
InstructionsLength: 0
EndUndoOperation
EndUndoes
Redoes
EndRedoes
EndUndoRedoHistory
UndoRedoHistory
Layer: 1
Undoes
UndoOperation
Index: 0
Type: 3
WasModified: 0
WasOrder2: 1
Layer: 2
EndUndoOperation
EndUndoes
Redoes
EndRedoes
EndUndoRedoHistory
Fore
SplineSet
0 -221 m 1,0,-1
 0 -150 l 1,1,-1
 487 -150 l 1,2,-1
 487 -221 l 1,3,-1
 0 -221 l 1,0,-1
EndSplineSet
EndChar

StartChar: a
Encoding: 97 97 68
Width: 543
GlyphClass: 1
Flags: W
LayerCount: 2
UndoRedoHistory
Layer: 0
Undoes
UndoOperation
Index: 0
Type: 1
WasModified: 0
WasOrder2: 1
Layer: 2
Width: 531
VWidth: 1000
LBearingChange: 0
UnicodeEnc: 0
InstructionsLength: 0
EndUndoOperation
EndUndoes
Redoes
EndRedoes
EndUndoRedoHistory
UndoRedoHistory
Layer: 1
Undoes
UndoOperation
Index: 0
Type: 3
WasModified: 0
WasOrder2: 1
Layer: 2
EndUndoOperation
EndUndoes
Redoes
EndRedoes
EndUndoRedoHistory
Fore
SplineSet
232 -16 m 0,0,1
 174 -16 174 -16 130 6.5 c 128,-1,2
 86 29 86 29 61 68.5 c 128,-1,3
 36 108 36 108 36 158 c 0,4,5
 36 215 36 215 65.5 254.5 c 128,-1,6
 95 294 95 294 145.5 314 c 128,-1,7
 196 334 196 334 256 334 c 0,8,9
 291 334 291 334 320.5 328.5 c 128,-1,10
 350 323 350 323 372 315 c 128,-1,11
 394 307 394 307 406 300 c 1,12,-1
 406 332 l 2,13,14
 406 391 406 391 364 426 c 128,-1,15
 322 461 322 461 261 461 c 0,16,17
 218 461 218 461 180.5 442 c 128,-1,18
 143 423 143 423 122 389 c 1,19,-1
 56 438 l 1,20,21
 76 469 76 469 107 491.5 c 128,-1,22
 138 514 138 514 177.5 526.5 c 128,-1,23
 217 539 217 539 261 539 c 0,24,25
 367 539 367 539 427.5 482.5 c 128,-1,26
 488 426 488 426 488 331 c 2,27,-1
 488 0 l 1,28,-1
 406 0 l 1,29,-1
 406 75 l 1,30,-1
 401 75 l 1,31,32
 388 52 388 52 363.5 31 c 128,-1,33
 339 10 339 10 305.5 -3 c 128,-1,34
 272 -16 272 -16 232 -16 c 0,0,1
241 60 m 0,35,36
 286 60 286 60 323 82.5 c 128,-1,37
 360 105 360 105 383 143 c 128,-1,38
 406 181 406 181 406 226 c 1,39,40
 382 242 382 242 346.5 252.5 c 128,-1,41
 311 263 311 263 269 263 c 0,42,43
 194 263 194 263 159.5 232.5 c 128,-1,44
 125 202 125 202 125 157 c 0,45,46
 125 114 125 114 158 87 c 128,-1,47
 191 60 191 60 241 60 c 0,35,36
EndSplineSet
EndChar

StartChar: b
Encoding: 98 98 69
Width: 614
GlyphClass: 1
Flags: W
LayerCount: 2
UndoRedoHistory
Layer: 0
Undoes
UndoOperation
Index: 0
Type: 1
WasModified: 0
WasOrder2: 1
Layer: 2
Width: 600
VWidth: 1000
LBearingChange: 0
UnicodeEnc: 0
InstructionsLength: 0
EndUndoOperation
EndUndoes
Redoes
EndRedoes
EndUndoRedoHistory
UndoRedoHistory
Layer: 1
Undoes
UndoOperation
Index: 0
Type: 3
WasModified: 0
WasOrder2: 1
Layer: 2
EndUndoOperation
EndUndoes
Redoes
EndRedoes
EndUndoRedoHistory
Fore
SplineSet
329 -16 m 0,0,1
 287 -16 287 -16 252 -3 c 128,-1,2
 217 10 217 10 191 31.5 c 128,-1,3
 165 53 165 53 151 77 c 1,4,-1
 146 77 l 1,5,-1
 146 0 l 1,6,-1
 63 0 l 1,7,-1
 63 733 l 1,8,-1
 151 733 l 1,9,-1
 151 517 l 1,10,-1
 146 444 l 1,11,-1
 151 444 l 1,12,13
 165 469 165 469 191 490.5 c 128,-1,14
 217 512 217 512 252 525.5 c 128,-1,15
 287 539 287 539 329 539 c 0,16,17
 401 539 401 539 457 503 c 128,-1,18
 513 467 513 467 546 404.5 c 128,-1,19
 579 342 579 342 579 261 c 256,20,21
 579 180 579 180 546 117.5 c 128,-1,22
 513 55 513 55 457 19.5 c 128,-1,23
 401 -16 401 -16 329 -16 c 0,0,1
319 62 m 256,24,25
 364 62 364 62 403.5 86.5 c 128,-1,26
 443 111 443 111 467.5 156 c 128,-1,27
 492 201 492 201 492 261 c 0,28,29
 492 322 492 322 467.5 367 c 128,-1,30
 443 412 443 412 404 436 c 128,-1,31
 365 460 365 460 319 460 c 256,32,33
 274 460 274 460 235 436 c 128,-1,34
 196 412 196 412 171 367.5 c 128,-1,35
 146 323 146 323 146 261 c 256,36,37
 146 200 146 200 171 155.5 c 128,-1,38
 196 111 196 111 235 86.5 c 128,-1,39
 274 62 274 62 319 62 c 256,24,25
EndSplineSet
EndChar

StartChar: c
Encoding: 99 99 70
Width: 552
GlyphClass: 1
Flags: W
LayerCount: 2
UndoRedoHistory
Layer: 0
Undoes
UndoOperation
Index: 0
Type: 1
WasModified: 0
WasOrder2: 1
Layer: 2
Width: 540
VWidth: 1000
LBearingChange: 0
UnicodeEnc: 0
InstructionsLength: 0
EndUndoOperation
EndUndoes
Redoes
EndRedoes
EndUndoRedoHistory
UndoRedoHistory
Layer: 1
Undoes
UndoOperation
Index: 0
Type: 3
WasModified: 0
WasOrder2: 1
Layer: 2
EndUndoOperation
EndUndoes
Redoes
EndRedoes
EndUndoRedoHistory
Fore
SplineSet
300 -16 m 0,0,1
 223 -16 223 -16 163 20 c 128,-1,2
 103 56 103 56 69.5 119 c 128,-1,3
 36 182 36 182 36 261 c 0,4,5
 36 341 36 341 69.5 403.5 c 128,-1,6
 103 466 103 466 163 502.5 c 128,-1,7
 223 539 223 539 300 539 c 0,8,9
 388 539 388 539 445 498.5 c 128,-1,10
 502 458 502 458 525 394 c 1,11,-1
 446 361 l 1,12,13
 427 409 427 409 388.5 434.5 c 128,-1,14
 350 460 350 460 296 460 c 0,15,16
 250 460 250 460 210.5 435.5 c 128,-1,17
 171 411 171 411 146.5 366.5 c 128,-1,18
 122 322 122 322 122 261 c 0,19,20
 122 202 122 202 146.5 157 c 128,-1,21
 171 112 171 112 210.5 87 c 128,-1,22
 250 62 250 62 296 62 c 0,23,24
 351 62 351 62 391 88 c 128,-1,25
 431 114 431 114 451 161 c 1,26,-1
 528 128 l 1,27,28
 502 68 502 68 445 26 c 128,-1,29
 388 -16 388 -16 300 -16 c 0,0,1
EndSplineSet
EndChar

StartChar: d
Encoding: 100 100 71
Width: 614
GlyphClass: 1
Flags: W
LayerCount: 2
UndoRedoHistory
Layer: 0
Undoes
UndoOperation
Index: 0
Type: 1
WasModified: 0
WasOrder2: 1
Layer: 2
Width: 600
VWidth: 1000
LBearingChange: 0
UnicodeEnc: 0
InstructionsLength: 0
EndUndoOperation
EndUndoes
Redoes
EndRedoes
EndUndoRedoHistory
UndoRedoHistory
Layer: 1
Undoes
UndoOperation
Index: 0
Type: 3
WasModified: 0
WasOrder2: 1
Layer: 2
EndUndoOperation
EndUndoes
Redoes
EndRedoes
EndUndoRedoHistory
Fore
SplineSet
286 -16 m 0,0,1
 215 -16 215 -16 158 19.5 c 128,-1,2
 101 55 101 55 68.5 117.5 c 128,-1,3
 36 180 36 180 36 261 c 256,4,5
 36 342 36 342 68.5 404.5 c 128,-1,6
 101 467 101 467 158 503 c 128,-1,7
 215 539 215 539 286 539 c 0,8,9
 328 539 328 539 362.5 525.5 c 128,-1,10
 397 512 397 512 423.5 490.5 c 128,-1,11
 450 469 450 469 464 444 c 1,12,-1
 468 444 l 1,13,-1
 464 517 l 1,14,-1
 464 733 l 1,15,-1
 551 733 l 1,16,-1
 551 0 l 1,17,-1
 468 0 l 1,18,-1
 468 77 l 1,19,-1
 464 77 l 1,20,21
 450 53 450 53 423.5 31.5 c 128,-1,22
 397 10 397 10 362.5 -3 c 128,-1,23
 328 -16 328 -16 286 -16 c 0,0,1
295 62 m 256,24,25
 340 62 340 62 379.5 86.5 c 128,-1,26
 419 111 419 111 443.5 155.5 c 128,-1,27
 468 200 468 200 468 261 c 256,28,29
 468 322 468 322 443.5 367 c 128,-1,30
 419 412 419 412 379.5 436 c 128,-1,31
 340 460 340 460 295 460 c 256,32,33
 250 460 250 460 210.5 436 c 128,-1,34
 171 412 171 412 146.5 367.5 c 128,-1,35
 122 323 122 323 122 261 c 0,36,37
 122 201 122 201 146.5 156 c 128,-1,38
 171 111 171 111 210.5 86.5 c 128,-1,39
 250 62 250 62 295 62 c 256,24,25
EndSplineSet
EndChar

StartChar: e
Encoding: 101 101 72
Width: 574
GlyphClass: 1
Flags: W
LayerCount: 2
UndoRedoHistory
Layer: 0
Undoes
UndoOperation
Index: 0
Type: 1
WasModified: 0
WasOrder2: 1
Layer: 2
Width: 561
VWidth: 1000
LBearingChange: 0
UnicodeEnc: 0
InstructionsLength: 0
EndUndoOperation
EndUndoes
Redoes
EndRedoes
EndUndoRedoHistory
UndoRedoHistory
Layer: 1
Undoes
UndoOperation
Index: 0
Type: 3
WasModified: 0
WasOrder2: 1
Layer: 2
EndUndoOperation
EndUndoes
Redoes
EndRedoes
EndUndoRedoHistory
Fore
SplineSet
296 -16 m 0,0,1
 220 -16 220 -16 161 19.5 c 128,-1,2
 102 55 102 55 69 117.5 c 128,-1,3
 36 180 36 180 36 260 c 0,4,5
 36 335 36 335 67 398.5 c 128,-1,6
 98 462 98 462 155 500.5 c 128,-1,7
 212 539 212 539 289 539 c 0,8,9
 367 539 367 539 422.5 504.5 c 128,-1,10
 478 470 478 470 508.5 409.5 c 128,-1,11
 539 349 539 349 539 271 c 0,12,13
 539 264 539 264 538.5 257 c 128,-1,14
 538 250 538 250 537 245 c 1,15,-1
 87 245 l 1,16,-1
 87 316 l 1,17,-1
 446 316 l 1,18,19
 445 338 445 338 436.5 363 c 128,-1,20
 428 388 428 388 409 410 c 128,-1,21
 390 432 390 432 361 446 c 128,-1,22
 332 460 332 460 289 460 c 0,23,24
 238 460 238 460 200.5 434 c 128,-1,25
 163 408 163 408 143 362.5 c 128,-1,26
 123 317 123 317 123 260 c 0,27,28
 123 193 123 193 148.5 149 c 128,-1,29
 174 105 174 105 214.5 83.5 c 128,-1,30
 255 62 255 62 299 62 c 0,31,32
 356 62 356 62 393.5 89.5 c 128,-1,33
 431 117 431 117 454 157 c 1,34,-1
 527 121 l 1,35,36
 496 62 496 62 439 23 c 128,-1,37
 382 -16 382 -16 296 -16 c 0,0,1
EndSplineSet
EndChar

StartChar: g
Encoding: 103 103 74
Width: 609
GlyphClass: 1
Flags: W
LayerCount: 2
UndoRedoHistory
Layer: 0
Undoes
UndoOperation
Index: 0
Type: 1
WasModified: 0
WasOrder2: 1
Layer: 2
Width: 595
VWidth: 1000
LBearingChange: 0
UnicodeEnc: 0
InstructionsLength: 0
EndUndoOperation
EndUndoes
Redoes
EndRedoes
EndUndoRedoHistory
UndoRedoHistory
Layer: 1
Undoes
UndoOperation
Index: 0
Type: 3
WasModified: 0
WasOrder2: 1
Layer: 2
EndUndoOperation
EndUndoes
Redoes
EndRedoes
EndUndoRedoHistory
Fore
SplineSet
293 -238 m 0,0,1
 226 -238 226 -238 178.5 -216 c 128,-1,2
 131 -194 131 -194 102 -160 c 128,-1,3
 73 -126 73 -126 60 -91 c 1,4,-1
 140 -57 l 1,5,6
 156 -100 156 -100 196 -129.5 c 128,-1,7
 236 -159 236 -159 293 -159 c 0,8,9
 375 -159 375 -159 419 -111 c 128,-1,10
 463 -63 463 -63 463 22 c 2,11,-1
 463 80 l 1,12,-1
 459 80 l 1,13,14
 434 42 434 42 388 16 c 128,-1,15
 342 -10 342 -10 281 -10 c 0,16,17
 213 -10 213 -10 157 24.5 c 128,-1,18
 101 59 101 59 68.5 121 c 128,-1,19
 36 183 36 183 36 264 c 256,20,21
 36 345 36 345 68.5 407 c 128,-1,22
 101 469 101 469 157 504 c 128,-1,23
 213 539 213 539 281 539 c 0,24,25
 342 539 342 539 388 512.5 c 128,-1,26
 434 486 434 486 459 447 c 1,27,-1
 463 447 l 1,28,-1
 463 522 l 1,29,-1
 546 522 l 1,30,-1
 546 20 l 2,31,32
 546 -67 546 -67 512.5 -124 c 128,-1,33
 479 -181 479 -181 422.5 -209.5 c 128,-1,34
 366 -238 366 -238 293 -238 c 0,0,1
293 69 m 256,35,36
 339 69 339 69 378 92 c 128,-1,37
 417 115 417 115 440 159 c 128,-1,38
 463 203 463 203 463 264 c 0,39,40
 463 327 463 327 440 371 c 128,-1,41
 417 415 417 415 378 437.5 c 128,-1,42
 339 460 339 460 293 460 c 256,43,44
 247 460 247 460 208 437 c 128,-1,45
 169 414 169 414 145.5 370.5 c 128,-1,46
 122 327 122 327 122 264 c 256,47,48
 122 202 122 202 145.5 158.5 c 128,-1,49
 169 115 169 115 208 92 c 128,-1,50
 247 69 247 69 293 69 c 256,35,36
EndSplineSet
EndChar

StartChar: h
Encoding: 104 104 75
Width: 575
GlyphClass: 1
Flags: W
LayerCount: 2
UndoRedoHistory
Layer: 0
Undoes
UndoOperation
Index: 0
Type: 1
WasModified: 0
WasOrder2: 1
Layer: 2
Width: 562
VWidth: 1000
LBearingChange: 0
UnicodeEnc: 0
InstructionsLength: 0
EndUndoOperation
EndUndoes
Redoes
EndRedoes
EndUndoRedoHistory
UndoRedoHistory
Layer: 1
Undoes
UndoOperation
Index: 0
Type: 3
WasModified: 0
WasOrder2: 1
Layer: 2
EndUndoOperation
EndUndoes
Redoes
EndRedoes
EndUndoRedoHistory
Fore
SplineSet
63 0 m 1,0,-1
 63 733 l 1,1,-1
 151 733 l 1,2,-1
 151 517 l 1,3,-1
 146 445 l 1,4,-1
 151 445 l 1,5,6
 171 484 171 484 217.5 511.5 c 128,-1,7
 264 539 264 539 321 539 c 0,8,9
 388 539 388 539 430.5 512 c 128,-1,10
 473 485 473 485 494.5 439.5 c 128,-1,11
 516 394 516 394 516 335 c 2,12,-1
 516 0 l 1,13,-1
 429 0 l 1,14,-1
 429 322 l 2,15,16
 429 372 429 372 411 402 c 128,-1,17
 393 432 393 432 364 446 c 128,-1,18
 335 460 335 460 300 460 c 0,19,20
 257 460 257 460 223 435.5 c 128,-1,21
 189 411 189 411 170 372 c 128,-1,22
 151 333 151 333 151 291 c 2,23,-1
 151 0 l 1,24,-1
 63 0 l 1,0,-1
EndSplineSet
EndChar

StartChar: i
Encoding: 105 105 76
Width: 214
GlyphClass: 1
Flags: W
LayerCount: 2
UndoRedoHistory
Layer: 0
Undoes
UndoOperation
Index: 0
Type: 1
WasModified: 0
WasOrder2: 1
Layer: 2
Width: 209
VWidth: 1000
LBearingChange: 0
UnicodeEnc: 0
InstructionsLength: 0
EndUndoOperation
EndUndoes
Redoes
EndRedoes
EndUndoRedoHistory
UndoRedoHistory
Layer: 1
Undoes
UndoOperation
Index: 0
Type: 3
WasModified: 0
WasOrder2: 1
Layer: 2
EndUndoOperation
EndUndoes
Redoes
EndRedoes
EndUndoRedoHistory
Fore
SplineSet
63 0 m 1,0,-1
 63 522 l 1,1,-1
 151 522 l 1,2,-1
 151 0 l 1,3,-1
 63 0 l 1,0,-1
106 618 m 0,4,5
 80 618 80 618 62 636.5 c 128,-1,6
 44 655 44 655 44 681 c 0,7,8
 44 708 44 708 62.5 725.5 c 128,-1,9
 81 743 81 743 106 743 c 0,10,11
 133 743 133 743 151 725.5 c 128,-1,12
 169 708 169 708 169 681 c 0,13,14
 169 655 169 655 151 636.5 c 128,-1,15
 133 618 133 618 106 618 c 0,4,5
EndSplineSet
EndChar

StartChar: j
Encoding: 106 106 77
Width: 214
GlyphClass: 1
Flags: W
LayerCount: 2
UndoRedoHistory
Layer: 0
Undoes
UndoOperation
Index: 0
Type: 1
WasModified: 0
WasOrder2: 1
Layer: 2
Width: 209
VWidth: 1000
LBearingChange: 0
UnicodeEnc: 0
InstructionsLength: 0
EndUndoOperation
EndUndoes
Redoes
EndRedoes
EndUndoRedoHistory
UndoRedoHistory
Layer: 1
Undoes
UndoOperation
Index: 0
Type: 3
WasModified: 0
WasOrder2: 1
Layer: 2
EndUndoOperation
EndUndoes
Redoes
EndRedoes
EndUndoRedoHistory
Fore
SplineSet
6 -231 m 0,0,1
 -8 -231 -8 -231 -19.5 -229 c 128,-1,2
 -31 -227 -31 -227 -40 -224 c 1,3,-1
 -40 -141 l 1,4,5
 -32 -145 -32 -145 -19.5 -149 c 128,-1,6
 -7 -153 -7 -153 3 -153 c 0,7,8
 36 -153 36 -153 49.5 -132.5 c 128,-1,9
 63 -112 63 -112 63 -74 c 2,10,-1
 63 522 l 1,11,-1
 151 522 l 1,12,-1
 151 -74 l 2,13,14
 151 -128 151 -128 133 -163 c 128,-1,15
 115 -198 115 -198 82.5 -214.5 c 128,-1,16
 50 -231 50 -231 6 -231 c 0,0,1
106 618 m 0,17,18
 80 618 80 618 62 636.5 c 128,-1,19
 44 655 44 655 44 681 c 0,20,21
 44 708 44 708 62.5 725.5 c 128,-1,22
 81 743 81 743 106 743 c 0,23,24
 133 743 133 743 151 725.5 c 128,-1,25
 169 708 169 708 169 681 c 0,26,27
 169 655 169 655 151 636.5 c 128,-1,28
 133 618 133 618 106 618 c 0,17,18
EndSplineSet
EndChar

StartChar: k
Encoding: 107 107 78
Width: 516
GlyphClass: 1
Flags: W
LayerCount: 2
UndoRedoHistory
Layer: 0
Undoes
UndoOperation
Index: 0
Type: 1
WasModified: 0
WasOrder2: 1
Layer: 2
Width: 504
VWidth: 1000
LBearingChange: 0
UnicodeEnc: 0
InstructionsLength: 0
EndUndoOperation
EndUndoes
Redoes
EndRedoes
EndUndoRedoHistory
UndoRedoHistory
Layer: 1
Undoes
UndoOperation
Index: 0
Type: 3
WasModified: 0
WasOrder2: 1
Layer: 2
EndUndoOperation
EndUndoes
Redoes
EndRedoes
EndUndoRedoHistory
Fore
SplineSet
63 0 m 1,0,-1
 63 733 l 1,1,-1
 151 733 l 1,2,-1
 151 0 l 1,3,-1
 63 0 l 1,0,-1
96 106 m 1,4,-1
 96 218 l 1,5,-1
 396 522 l 1,6,-1
 507 522 l 1,7,-1
 507 518 l 1,8,-1
 96 106 l 1,4,-1
409 0 m 1,9,-1
 220 281 l 1,10,-1
 282 341 l 1,11,-1
 513 4 l 1,12,-1
 513 0 l 1,13,-1
 409 0 l 1,9,-1
EndSplineSet
EndChar

StartChar: l
Encoding: 108 108 79
Width: 214
GlyphClass: 1
Flags: W
LayerCount: 2
UndoRedoHistory
Layer: 0
Undoes
UndoOperation
Index: 0
Type: 1
WasModified: 0
WasOrder2: 1
Layer: 2
Width: 209
VWidth: 1000
LBearingChange: 0
UnicodeEnc: 0
InstructionsLength: 0
EndUndoOperation
EndUndoes
Redoes
EndRedoes
EndUndoRedoHistory
UndoRedoHistory
Layer: 1
Undoes
UndoOperation
Index: 0
Type: 3
WasModified: 0
WasOrder2: 1
Layer: 2
EndUndoOperation
EndUndoes
Redoes
EndRedoes
EndUndoRedoHistory
Fore
SplineSet
63 0 m 1,0,-1
 63 733 l 1,1,-1
 151 733 l 1,2,-1
 151 0 l 1,3,-1
 63 0 l 1,0,-1
EndSplineSet
EndChar

StartChar: m
Encoding: 109 109 80
Width: 893
GlyphClass: 1
Flags: W
LayerCount: 2
UndoRedoHistory
Layer: 0
Undoes
UndoOperation
Index: 0
Type: 1
WasModified: 0
WasOrder2: 1
Layer: 2
Width: 873
VWidth: 1000
LBearingChange: 0
UnicodeEnc: 0
InstructionsLength: 0
EndUndoOperation
EndUndoes
Redoes
EndRedoes
EndUndoRedoHistory
UndoRedoHistory
Layer: 1
Undoes
UndoOperation
Index: 0
Type: 3
WasModified: 0
WasOrder2: 1
Layer: 2
EndUndoOperation
EndUndoes
Redoes
EndRedoes
EndUndoRedoHistory
Fore
SplineSet
63 0 m 1,0,-1
 63 522 l 1,1,-1
 146 522 l 1,2,-1
 146 445 l 1,3,-1
 151 445 l 1,4,5
 165 471 165 471 190 492 c 128,-1,6
 215 513 215 513 247.5 526 c 128,-1,7
 280 539 280 539 313 539 c 0,8,9
 371 539 371 539 413.5 510.5 c 128,-1,10
 456 482 456 482 474 437 c 1,11,12
 501 481 501 481 546 510 c 128,-1,13
 591 539 591 539 653 539 c 0,14,15
 746 539 746 539 790.5 482.5 c 128,-1,16
 835 426 835 426 835 335 c 2,17,-1
 835 0 l 1,18,-1
 749 0 l 1,19,-1
 749 322 l 2,20,21
 749 398 749 398 718 429 c 128,-1,22
 687 460 687 460 631 460 c 0,23,24
 591 460 591 460 559.5 437 c 128,-1,25
 528 414 528 414 510.5 376.5 c 128,-1,26
 493 339 493 339 493 295 c 2,27,-1
 493 0 l 1,28,-1
 406 0 l 1,29,-1
 406 321 l 2,30,31
 406 397 406 397 375 428.5 c 128,-1,32
 344 460 344 460 289 460 c 0,33,34
 249 460 249 460 217.5 436.5 c 128,-1,35
 186 413 186 413 168.5 375 c 128,-1,36
 151 337 151 337 151 293 c 2,37,-1
 151 0 l 1,38,-1
 63 0 l 1,0,-1
EndSplineSet
EndChar

StartChar: n
Encoding: 110 110 81
Width: 572
GlyphClass: 1
Flags: W
LayerCount: 2
UndoRedoHistory
Layer: 0
Undoes
UndoOperation
Index: 0
Type: 1
WasModified: 0
WasOrder2: 1
Layer: 2
Width: 559
VWidth: 1000
LBearingChange: 0
UnicodeEnc: 0
InstructionsLength: 0
EndUndoOperation
EndUndoes
Redoes
EndRedoes
EndUndoRedoHistory
UndoRedoHistory
Layer: 1
Undoes
UndoOperation
Index: 0
Type: 3
WasModified: 0
WasOrder2: 1
Layer: 2
EndUndoOperation
EndUndoes
Redoes
EndRedoes
EndUndoRedoHistory
Fore
SplineSet
63 0 m 1,0,-1
 63 522 l 1,1,-1
 146 522 l 1,2,-1
 146 445 l 1,3,-1
 151 445 l 1,4,5
 171 483 171 483 217.5 511 c 128,-1,6
 264 539 264 539 319 539 c 0,7,8
 415 539 415 539 464 483 c 128,-1,9
 513 427 513 427 513 335 c 2,10,-1
 513 0 l 1,11,-1
 426 0 l 1,12,-1
 426 322 l 2,13,14
 426 398 426 398 389.5 429 c 128,-1,15
 353 460 353 460 296 460 c 0,16,17
 253 460 253 460 220 436 c 128,-1,18
 187 412 187 412 169 374 c 128,-1,19
 151 336 151 336 151 294 c 2,20,-1
 151 0 l 1,21,-1
 63 0 l 1,0,-1
EndSplineSet
EndChar

StartChar: o
Encoding: 111 111 82
Width: 608
GlyphClass: 1
Flags: W
LayerCount: 2
UndoRedoHistory
Layer: 0
Undoes
UndoOperation
Index: 0
Type: 1
WasModified: 0
WasOrder2: 1
Layer: 2
Width: 594
VWidth: 1000
LBearingChange: 0
UnicodeEnc: 0
InstructionsLength: 0
EndUndoOperation
EndUndoes
Redoes
EndRedoes
EndUndoRedoHistory
UndoRedoHistory
Layer: 1
Undoes
UndoOperation
Index: 0
Type: 3
WasModified: 0
WasOrder2: 1
Layer: 2
EndUndoOperation
EndUndoes
Redoes
EndRedoes
EndUndoRedoHistory
Fore
SplineSet
304 -16 m 256,0,1
 225 -16 225 -16 164.5 20.5 c 128,-1,2
 104 57 104 57 70 120 c 128,-1,3
 36 183 36 183 36 261 c 256,4,5
 36 339 36 339 70 402 c 128,-1,6
 104 465 104 465 164.5 502 c 128,-1,7
 225 539 225 539 304 539 c 256,8,9
 383 539 383 539 443.5 501.5 c 128,-1,10
 504 464 504 464 538 401 c 128,-1,11
 572 338 572 338 572 261 c 0,12,13
 572 183 572 183 538 120 c 128,-1,14
 504 57 504 57 443.5 20.5 c 128,-1,15
 383 -16 383 -16 304 -16 c 256,0,1
304 62 m 256,16,17
 351 62 351 62 392.5 86 c 128,-1,18
 434 110 434 110 459.5 154.5 c 128,-1,19
 485 199 485 199 485 261 c 256,20,21
 485 323 485 323 459.5 368 c 128,-1,22
 434 413 434 413 392.5 436.5 c 128,-1,23
 351 460 351 460 304 460 c 256,24,25
 257 460 257 460 215 436.5 c 128,-1,26
 173 413 173 413 147.5 368.5 c 128,-1,27
 122 324 122 324 122 261 c 256,28,29
 122 199 122 199 147.5 154.5 c 128,-1,30
 173 110 173 110 215 86 c 128,-1,31
 257 62 257 62 304 62 c 256,16,17
EndSplineSet
EndChar

StartChar: p
Encoding: 112 112 83
Width: 614
GlyphClass: 1
Flags: W
LayerCount: 2
UndoRedoHistory
Layer: 0
Undoes
UndoOperation
Index: 0
Type: 1
WasModified: 0
WasOrder2: 1
Layer: 2
Width: 600
VWidth: 1000
LBearingChange: 0
UnicodeEnc: 0
InstructionsLength: 0
EndUndoOperation
EndUndoes
Redoes
EndRedoes
EndUndoRedoHistory
UndoRedoHistory
Layer: 1
Undoes
UndoOperation
Index: 0
Type: 3
WasModified: 0
WasOrder2: 1
Layer: 2
EndUndoOperation
EndUndoes
Redoes
EndRedoes
EndUndoRedoHistory
Fore
SplineSet
63 -221 m 1,0,-1
 63 522 l 1,1,-1
 146 522 l 1,2,-1
 146 444 l 1,3,-1
 151 444 l 1,4,5
 165 469 165 469 191 490.5 c 128,-1,6
 217 512 217 512 252 525.5 c 128,-1,7
 287 539 287 539 329 539 c 0,8,9
 401 539 401 539 457 503 c 128,-1,10
 513 467 513 467 546 404.5 c 128,-1,11
 579 342 579 342 579 261 c 256,12,13
 579 180 579 180 546 117.5 c 128,-1,14
 513 55 513 55 456.5 19.5 c 128,-1,15
 400 -16 400 -16 329 -16 c 0,16,17
 267 -16 267 -16 219.5 12.5 c 128,-1,18
 172 41 172 41 151 77 c 1,19,-1
 146 77 l 1,20,-1
 151 5 l 1,21,-1
 151 -221 l 1,22,-1
 63 -221 l 1,0,-1
319 62 m 256,23,24
 364 62 364 62 403.5 86.5 c 128,-1,25
 443 111 443 111 467.5 156 c 128,-1,26
 492 201 492 201 492 261 c 0,27,28
 492 322 492 322 467.5 367 c 128,-1,29
 443 412 443 412 404 436 c 128,-1,30
 365 460 365 460 319 460 c 256,31,32
 274 460 274 460 235 436 c 128,-1,33
 196 412 196 412 171 367.5 c 128,-1,34
 146 323 146 323 146 261 c 256,35,36
 146 200 146 200 171 155.5 c 128,-1,37
 196 111 196 111 235 86.5 c 128,-1,38
 274 62 274 62 319 62 c 256,23,24
EndSplineSet
EndChar

StartChar: q
Encoding: 113 113 84
Width: 614
GlyphClass: 1
Flags: W
LayerCount: 2
UndoRedoHistory
Layer: 0
Undoes
UndoOperation
Index: 0
Type: 1
WasModified: 0
WasOrder2: 1
Layer: 2
Width: 600
VWidth: 1000
LBearingChange: 0
UnicodeEnc: 0
InstructionsLength: 0
EndUndoOperation
EndUndoes
Redoes
EndRedoes
EndUndoRedoHistory
UndoRedoHistory
Layer: 1
Undoes
UndoOperation
Index: 0
Type: 3
WasModified: 0
WasOrder2: 1
Layer: 2
EndUndoOperation
EndUndoes
Redoes
EndRedoes
EndUndoRedoHistory
Fore
SplineSet
464 -221 m 1,0,-1
 464 5 l 1,1,-1
 468 77 l 1,2,-1
 464 77 l 1,3,4
 450 53 450 53 423.5 31.5 c 128,-1,5
 397 10 397 10 362.5 -3 c 128,-1,6
 328 -16 328 -16 286 -16 c 0,7,8
 215 -16 215 -16 158 19.5 c 128,-1,9
 101 55 101 55 68.5 117.5 c 128,-1,10
 36 180 36 180 36 261 c 256,11,12
 36 342 36 342 68.5 404.5 c 128,-1,13
 101 467 101 467 158 503 c 128,-1,14
 215 539 215 539 286 539 c 0,15,16
 328 539 328 539 362.5 525.5 c 128,-1,17
 397 512 397 512 423.5 490.5 c 128,-1,18
 450 469 450 469 464 444 c 1,19,-1
 468 444 l 1,20,-1
 468 522 l 1,21,-1
 551 522 l 1,22,-1
 551 -221 l 1,23,-1
 464 -221 l 1,0,-1
295 62 m 256,24,25
 340 62 340 62 379.5 86.5 c 128,-1,26
 419 111 419 111 443.5 155.5 c 128,-1,27
 468 200 468 200 468 261 c 256,28,29
 468 322 468 322 443.5 367 c 128,-1,30
 419 412 419 412 379.5 436 c 128,-1,31
 340 460 340 460 295 460 c 256,32,33
 250 460 250 460 210.5 436 c 128,-1,34
 171 412 171 412 146.5 367.5 c 128,-1,35
 122 323 122 323 122 261 c 0,36,37
 122 201 122 201 146.5 156 c 128,-1,38
 171 111 171 111 210.5 86.5 c 128,-1,39
 250 62 250 62 295 62 c 256,24,25
EndSplineSet
EndChar

StartChar: r
Encoding: 114 114 85
Width: 378
GlyphClass: 1
Flags: W
LayerCount: 2
UndoRedoHistory
Layer: 0
Undoes
UndoOperation
Index: 0
Type: 1
WasModified: 0
WasOrder2: 1
Layer: 2
Width: 370
VWidth: 1000
LBearingChange: 0
UnicodeEnc: 0
InstructionsLength: 0
EndUndoOperation
EndUndoes
Redoes
EndRedoes
EndUndoRedoHistory
UndoRedoHistory
Layer: 1
Undoes
UndoOperation
Index: 0
Type: 3
WasModified: 0
WasOrder2: 1
Layer: 2
EndUndoOperation
EndUndoes
Redoes
EndRedoes
EndUndoRedoHistory
Fore
SplineSet
63 0 m 1,0,-1
 63 522 l 1,1,-1
 146 522 l 1,2,-1
 146 438 l 1,3,-1
 151 438 l 1,4,5
 161 468 161 468 185 490 c 128,-1,6
 209 512 209 512 240 525 c 128,-1,7
 271 538 271 538 302 538 c 0,8,9
 326 538 326 538 339 535 c 128,-1,10
 352 532 352 532 364 527 c 1,11,-1
 364 433 l 1,12,13
 348 441 348 441 328.5 445.5 c 128,-1,14
 309 450 309 450 290 450 c 0,15,16
 252 450 252 450 220 428.5 c 128,-1,17
 188 407 188 407 169.5 371 c 128,-1,18
 151 335 151 335 151 292 c 2,19,-1
 151 0 l 1,20,-1
 63 0 l 1,0,-1
EndSplineSet
EndChar

StartChar: s
Encoding: 115 115 86
Width: 482
GlyphClass: 1
Flags: W
LayerCount: 2
UndoRedoHistory
Layer: 0
Undoes
UndoOperation
Index: 0
Type: 1
WasModified: 0
WasOrder2: 1
Layer: 2
Width: 471
VWidth: 1000
LBearingChange: 0
UnicodeEnc: 0
InstructionsLength: 0
EndUndoOperation
EndUndoes
Redoes
EndRedoes
EndUndoRedoHistory
UndoRedoHistory
Layer: 1
Undoes
UndoOperation
Index: 0
Type: 3
WasModified: 0
WasOrder2: 1
Layer: 2
EndUndoOperation
EndUndoes
Redoes
EndRedoes
EndUndoRedoHistory
Fore
SplineSet
246 -16 m 0,0,1
 188 -16 188 -16 143 3 c 128,-1,2
 98 22 98 22 69 54 c 128,-1,3
 40 86 40 86 26 124 c 1,4,-1
 103 159 l 1,5,6
 123 112 123 112 162.5 86 c 128,-1,7
 202 60 202 60 252 60 c 0,8,9
 300 60 300 60 332.5 79.5 c 128,-1,10
 365 99 365 99 365 137 c 0,11,12
 365 161 365 161 351.5 177 c 128,-1,13
 338 193 338 193 312.5 204 c 128,-1,14
 287 215 287 215 250 224 c 2,15,-1
 186 241 l 2,16,17
 149 251 149 251 116.5 269.5 c 128,-1,18
 84 288 84 288 64 317 c 128,-1,19
 44 346 44 346 44 388 c 0,20,21
 44 435 44 435 71.5 469 c 128,-1,22
 99 503 99 503 144 521 c 128,-1,23
 189 539 189 539 241 539 c 0,24,25
 286 539 286 539 325.5 526 c 128,-1,26
 365 513 365 513 394.5 488 c 128,-1,27
 424 463 424 463 439 426 c 1,28,-1
 364 391 l 1,29,30
 345 430 345 430 312 445.5 c 128,-1,31
 279 461 279 461 239 461 c 0,32,33
 196 461 196 461 164 442 c 128,-1,34
 132 423 132 423 132 390 c 256,35,36
 132 357 132 357 158 341 c 128,-1,37
 184 325 184 325 222 314 c 2,38,-1
 298 295 l 2,39,40
 375 276 375 276 414 237.5 c 128,-1,41
 453 199 453 199 453 143 c 0,42,43
 453 94 453 94 425 58.5 c 128,-1,44
 397 23 397 23 350 3.5 c 128,-1,45
 303 -16 303 -16 246 -16 c 0,0,1
EndSplineSet
EndChar

StartChar: u
Encoding: 117 117 88
Width: 572
GlyphClass: 1
Flags: W
LayerCount: 2
UndoRedoHistory
Layer: 0
Undoes
UndoOperation
Index: 0
Type: 1
WasModified: 0
WasOrder2: 1
Layer: 2
Width: 559
VWidth: 1000
LBearingChange: 0
UnicodeEnc: 0
InstructionsLength: 0
EndUndoOperation
EndUndoes
Redoes
EndRedoes
EndUndoRedoHistory
UndoRedoHistory
Layer: 1
Undoes
UndoOperation
Index: 0
Type: 3
WasModified: 0
WasOrder2: 1
Layer: 2
EndUndoOperation
EndUndoes
Redoes
EndRedoes
EndUndoRedoHistory
Fore
SplineSet
253 -16 m 0,0,1
 157 -16 157 -16 108 40 c 128,-1,2
 59 96 59 96 59 194 c 2,3,-1
 59 522 l 1,4,-1
 146 522 l 1,5,-1
 146 207 l 2,6,7
 146 129 146 129 182 95.5 c 128,-1,8
 218 62 218 62 271 62 c 0,9,10
 317 62 317 62 351 86.5 c 128,-1,11
 385 111 385 111 403.5 148.5 c 128,-1,12
 422 186 422 186 422 227 c 2,13,-1
 422 522 l 1,14,-1
 509 522 l 1,15,-1
 509 0 l 1,16,-1
 426 0 l 1,17,-1
 426 76 l 1,18,-1
 422 76 l 1,19,20
 409 51 409 51 382.5 30 c 128,-1,21
 356 9 356 9 323 -3.5 c 128,-1,22
 290 -16 290 -16 253 -16 c 0,0,1
EndSplineSet
EndChar

StartChar: v
Encoding: 118 118 89
Width: 520
GlyphClass: 1
Flags: W
LayerCount: 2
UndoRedoHistory
Layer: 0
Undoes
UndoOperation
Index: 0
Type: 1
WasModified: 0
WasOrder2: 1
Layer: 2
Width: 508
VWidth: 1000
LBearingChange: 0
UnicodeEnc: 0
InstructionsLength: 0
EndUndoOperation
EndUndoes
Redoes
EndRedoes
EndUndoRedoHistory
UndoRedoHistory
Layer: 1
Undoes
UndoOperation
Index: 0
Type: 3
WasModified: 0
WasOrder2: 1
Layer: 2
EndUndoOperation
EndUndoes
Redoes
EndRedoes
EndUndoRedoHistory
Fore
SplineSet
215 0 m 1,0,-1
 4 522 l 1,1,-1
 97 522 l 1,2,-1
 259 102 l 1,3,-1
 261 102 l 1,4,-1
 425 522 l 1,5,-1
 516 522 l 1,6,-1
 303 0 l 1,7,-1
 215 0 l 1,0,-1
EndSplineSet
EndChar

StartChar: w
Encoding: 119 119 90
Width: 793
GlyphClass: 1
Flags: W
LayerCount: 2
UndoRedoHistory
Layer: 0
Undoes
UndoOperation
Index: 0
Type: 1
WasModified: 0
WasOrder2: 1
Layer: 2
Width: 775
VWidth: 1000
LBearingChange: 0
UnicodeEnc: 0
InstructionsLength: 0
EndUndoOperation
EndUndoes
Redoes
EndRedoes
EndUndoRedoHistory
UndoRedoHistory
Layer: 1
Undoes
UndoOperation
Index: 0
Type: 3
WasModified: 0
WasOrder2: 1
Layer: 2
EndUndoOperation
EndUndoes
Redoes
EndRedoes
EndUndoRedoHistory
Fore
SplineSet
174 0 m 1,0,-1
 6 522 l 1,1,-1
 96 522 l 1,2,-1
 220 110 l 1,3,-1
 221 110 l 1,4,-1
 353 522 l 1,5,-1
 442 522 l 1,6,-1
 574 111 l 1,7,-1
 575 111 l 1,8,-1
 699 522 l 1,9,-1
 787 522 l 1,10,-1
 618 0 l 1,11,-1
 530 0 l 1,12,-1
 395 417 l 1,13,-1
 395 417 l 1,14,-1
 261 0 l 1,15,-1
 174 0 l 1,0,-1
EndSplineSet
EndChar

StartChar: x
Encoding: 120 120 91
Width: 484
GlyphClass: 1
Flags: W
LayerCount: 2
UndoRedoHistory
Layer: 0
Undoes
UndoOperation
Index: 0
Type: 1
WasModified: 0
WasOrder2: 1
Layer: 2
Width: 473
VWidth: 1000
LBearingChange: 0
UnicodeEnc: 0
InstructionsLength: 0
EndUndoOperation
EndUndoes
Redoes
EndRedoes
EndUndoRedoHistory
UndoRedoHistory
Layer: 1
Undoes
UndoOperation
Index: 0
Type: 3
WasModified: 0
WasOrder2: 1
Layer: 2
EndUndoOperation
EndUndoes
Redoes
EndRedoes
EndUndoRedoHistory
Fore
SplineSet
6 0 m 1,0,-1
 215 300 l 1,1,-1
 224 300 l 1,2,-1
 373 522 l 1,3,-1
 475 522 l 1,4,-1
 270 234 l 1,5,-1
 264 234 l 1,6,-1
 108 0 l 1,7,-1
 6 0 l 1,0,-1
10 522 m 1,8,-1
 109 522 l 1,9,-1
 270 290 l 1,10,-1
 274 290 l 1,11,-1
 478 0 l 1,12,-1
 377 0 l 1,13,-1
 221 231 l 1,14,-1
 214 231 l 1,15,-1
 10 522 l 1,8,-1
EndSplineSet
EndChar

StartChar: y
Encoding: 121 121 92
Width: 520
GlyphClass: 1
Flags: W
LayerCount: 2
UndoRedoHistory
Layer: 0
Undoes
UndoOperation
Index: 0
Type: 1
WasModified: 0
WasOrder2: 1
Layer: 2
Width: 508
VWidth: 1000
LBearingChange: 0
UnicodeEnc: 0
InstructionsLength: 0
EndUndoOperation
EndUndoes
Redoes
EndRedoes
EndUndoRedoHistory
UndoRedoHistory
Layer: 1
Undoes
UndoOperation
Index: 0
Type: 3
WasModified: 0
WasOrder2: 1
Layer: 2
EndUndoOperation
EndUndoes
Redoes
EndRedoes
EndUndoRedoHistory
Fore
SplineSet
206 -195 m 0,0,1
 203 -202 203 -202 199 -210.5 c 128,-1,2
 195 -219 195 -219 194 -221 c 2,3,-1
 103 -221 l 1,4,5
 109 -208 109 -208 116.5 -192 c 128,-1,6
 124 -176 124 -176 134 -154 c 0,7,8
 140 -141 140 -141 145.5 -129.5 c 128,-1,9
 151 -118 151 -118 157.5 -104 c 128,-1,10
 164 -90 164 -90 173 -70 c 2,11,-1
 245 86 l 1,12,-1
 264 134 l 1,13,-1
 422 522 l 1,14,-1
 516 522 l 1,15,-1
 246 -101 l 2,16,17
 242 -110 242 -110 233 -130.5 c 128,-1,18
 224 -151 224 -151 216.5 -170 c 128,-1,19
 209 -189 209 -189 206 -195 c 0,0,1
225 22 m 1,20,-1
 4 522 l 1,21,-1
 98 522 l 1,22,-1
 262 134 l 1,23,-1
 270 134 l 1,24,-1
 225 22 l 1,20,-1
EndSplineSet
EndChar

StartChar: z
Encoding: 122 122 93
Width: 497
GlyphClass: 1
Flags: W
LayerCount: 2
UndoRedoHistory
Layer: 0
Undoes
UndoOperation
Index: 0
Type: 1
WasModified: 0
WasOrder2: 1
Layer: 2
Width: 486
VWidth: 1000
LBearingChange: 0
UnicodeEnc: 0
InstructionsLength: 0
EndUndoOperation
EndUndoes
Redoes
EndRedoes
EndUndoRedoHistory
UndoRedoHistory
Layer: 1
Undoes
UndoOperation
Index: 0
Type: 3
WasModified: 0
WasOrder2: 1
Layer: 2
EndUndoOperation
EndUndoes
Redoes
EndRedoes
EndUndoRedoHistory
Fore
SplineSet
41 0 m 1,0,-1
 41 75 l 1,1,-1
 349 443 l 1,2,-1
 50 443 l 1,3,-1
 50 522 l 1,4,-1
 456 522 l 1,5,-1
 456 447 l 1,6,-1
 147 79 l 1,7,-1
 464 79 l 1,8,-1
 464 0 l 1,9,-1
 41 0 l 1,0,-1
EndSplineSet
EndChar

StartChar: braceleft
Encoding: 123 123 94
Width: 318
GlyphClass: 1
Flags: W
LayerCount: 2
UndoRedoHistory
Layer: 0
Undoes
UndoOperation
Index: 0
Type: 1
WasModified: 0
WasOrder2: 1
Layer: 2
Width: 311
VWidth: 1000
LBearingChange: 0
UnicodeEnc: 0
InstructionsLength: 0
EndUndoOperation
EndUndoes
Redoes
EndRedoes
EndUndoRedoHistory
UndoRedoHistory
Layer: 1
Undoes
UndoOperation
Index: 0
Type: 3
WasModified: 0
WasOrder2: 1
Layer: 2
EndUndoOperation
EndUndoes
Redoes
EndRedoes
EndUndoRedoHistory
Fore
SplineSet
265 -127 m 2,0,1
 214 -127 214 -127 176 -106 c 128,-1,2
 138 -85 138 -85 118 -47.5 c 128,-1,3
 98 -10 98 -10 98 40 c 2,4,-1
 98 219 l 2,5,6
 98 249 98 249 88.5 268 c 128,-1,7
 79 287 79 287 61.5 296.5 c 128,-1,8
 44 306 44 306 23 306 c 1,9,-1
 23 378 l 1,10,11
 45 378 45 378 62 387.5 c 128,-1,12
 79 397 79 397 88.5 416.5 c 128,-1,13
 98 436 98 436 98 465 c 2,14,-1
 98 644 l 2,15,16
 98 694 98 694 118 731.5 c 128,-1,17
 138 769 138 769 176 790 c 128,-1,18
 214 811 214 811 265 811 c 2,19,-1
 288 811 l 1,20,-1
 288 739 l 1,21,-1
 266 739 l 2,22,23
 228 739 228 739 203 713 c 128,-1,24
 178 687 178 687 178 641 c 2,25,-1
 178 462 l 2,26,27
 178 413 178 413 160.5 384.5 c 128,-1,28
 143 356 143 356 109 344 c 1,29,-1
 109 340 l 1,30,31
 144 328 144 328 161 300 c 128,-1,32
 178 272 178 272 178 222 c 2,33,-1
 178 43 l 2,34,35
 178 -3 178 -3 203 -29 c 128,-1,36
 228 -55 228 -55 266 -55 c 2,37,-1
 288 -55 l 1,38,-1
 288 -127 l 1,39,-1
 265 -127 l 2,0,1
EndSplineSet
Substitution2: "'rtla' Right to Left Alternates lookup 0 subtable" braceright
EndChar

StartChar: bar
Encoding: 124 124 95
Width: 240
GlyphClass: 1
Flags: W
LayerCount: 2
UndoRedoHistory
Layer: 0
Undoes
UndoOperation
Index: 0
Type: 1
WasModified: 0
WasOrder2: 1
Layer: 2
Width: 235
VWidth: 1000
LBearingChange: 0
UnicodeEnc: 0
InstructionsLength: 0
EndUndoOperation
EndUndoes
Redoes
EndRedoes
EndUndoRedoHistory
UndoRedoHistory
Layer: 1
Undoes
UndoOperation
Index: 0
Type: 3
WasModified: 0
WasOrder2: 1
Layer: 2
EndUndoOperation
EndUndoes
Redoes
EndRedoes
EndUndoRedoHistory
Fore
SplineSet
81 -123 m 1,0,-1
 81 811 l 1,1,-1
 160 811 l 1,2,-1
 160 -123 l 1,3,-1
 81 -123 l 1,0,-1
EndSplineSet
EndChar

StartChar: braceright
Encoding: 125 125 96
Width: 318
GlyphClass: 1
Flags: W
LayerCount: 2
UndoRedoHistory
Layer: 0
Undoes
UndoOperation
Index: 0
Type: 1
WasModified: 0
WasOrder2: 1
Layer: 2
Width: 311
VWidth: 1000
LBearingChange: 0
UnicodeEnc: 0
InstructionsLength: 0
EndUndoOperation
EndUndoes
Redoes
EndRedoes
EndUndoRedoHistory
UndoRedoHistory
Layer: 1
Undoes
UndoOperation
Index: 0
Type: 3
WasModified: 0
WasOrder2: 1
Layer: 2
EndUndoOperation
EndUndoes
Redoes
EndRedoes
EndUndoRedoHistory
Fore
SplineSet
31 -127 m 1,0,-1
 31 -55 l 1,1,-1
 52 -55 l 2,2,3
 91 -55 91 -55 116 -29 c 128,-1,4
 141 -3 141 -3 141 43 c 2,5,-1
 141 222 l 2,6,7
 141 272 141 272 158 300 c 128,-1,8
 175 328 175 328 210 340 c 1,9,-1
 210 344 l 1,10,11
 175 356 175 356 158 384.5 c 128,-1,12
 141 413 141 413 141 462 c 2,13,-1
 141 641 l 2,14,15
 141 687 141 687 116 713 c 128,-1,16
 91 739 91 739 52 739 c 2,17,-1
 31 739 l 1,18,-1
 31 811 l 1,19,-1
 53 811 l 2,20,21
 105 811 105 811 142.5 790 c 128,-1,22
 180 769 180 769 200 731.5 c 128,-1,23
 220 694 220 694 220 644 c 2,24,-1
 220 465 l 2,25,26
 220 436 220 436 230.5 416.5 c 128,-1,27
 241 397 241 397 257.5 387.5 c 128,-1,28
 274 378 274 378 296 378 c 1,29,-1
 296 306 l 1,30,31
 274 306 274 306 257.5 296.5 c 128,-1,32
 241 287 241 287 230.5 268 c 128,-1,33
 220 249 220 249 220 219 c 2,34,-1
 220 40 l 2,35,36
 220 -10 220 -10 200 -47.5 c 128,-1,37
 180 -85 180 -85 142.5 -106 c 128,-1,38
 105 -127 105 -127 53 -127 c 2,39,-1
 31 -127 l 1,0,-1
EndSplineSet
Substitution2: "'rtla' Right to Left Alternates lookup 0 subtable" braceleft
EndChar

StartChar: asciitilde
Encoding: 126 126 97
Width: 546
GlyphClass: 1
Flags: W
LayerCount: 2
UndoRedoHistory
Layer: 0
Undoes
UndoOperation
Index: 0
Type: 1
WasModified: 0
WasOrder2: 1
Layer: 2
Width: 534
VWidth: 1000
LBearingChange: 0
UnicodeEnc: 0
InstructionsLength: 0
EndUndoOperation
EndUndoes
Redoes
EndRedoes
EndUndoRedoHistory
UndoRedoHistory
Layer: 1
Undoes
UndoOperation
Index: 0
Type: 3
WasModified: 0
WasOrder2: 1
Layer: 2
EndUndoOperation
EndUndoes
Redoes
EndRedoes
EndUndoRedoHistory
Fore
SplineSet
387 242 m 0,0,1
 360 242 360 242 327.5 254 c 128,-1,2
 295 266 295 266 262 280 c 0,3,4
 233 292 233 292 206.5 301.5 c 128,-1,5
 180 311 180 311 161 311 c 0,6,7
 135 311 135 311 121.5 293 c 128,-1,8
 108 275 108 275 105 255 c 1,9,-1
 37 255 l 1,10,11
 37 297 37 297 55 327 c 128,-1,12
 73 357 73 357 101 373 c 128,-1,13
 129 389 129 389 159 389 c 0,14,15
 188 389 188 389 221 377.5 c 128,-1,16
 254 366 254 366 287 351 c 0,17,18
 316 339 316 339 341.5 329 c 128,-1,19
 367 319 367 319 386 319 c 0,20,21
 412 319 412 319 426 337 c 128,-1,22
 440 355 440 355 441 376 c 1,23,-1
 510 376 l 1,24,25
 510 334 510 334 492 303.5 c 128,-1,26
 474 273 474 273 446 257.5 c 128,-1,27
 418 242 418 242 387 242 c 0,0,1
EndSplineSet
EndChar

StartChar: exclamdown
Encoding: 161 161 99
Width: 241
GlyphClass: 1
Flags: W
LayerCount: 2
UndoRedoHistory
Layer: 0
Undoes
UndoOperation
Index: 0
Type: 1
WasModified: 0
WasOrder2: 1
Layer: 2
Width: 236
VWidth: 1000
LBearingChange: 0
UnicodeEnc: 0
InstructionsLength: 0
EndUndoOperation
EndUndoes
Redoes
EndRedoes
EndUndoRedoHistory
UndoRedoHistory
Layer: 1
Undoes
UndoOperation
Index: 0
Type: 3
WasModified: 0
WasOrder2: 1
Layer: 2
EndUndoOperation
EndUndoes
Redoes
EndRedoes
EndUndoRedoHistory
Fore
SplineSet
78 -221 m 1,0,-1
 78 28 l 1,1,-1
 87 311 l 1,2,-1
 154 311 l 1,3,-1
 164 28 l 1,4,-1
 164 -221 l 1,5,-1
 78 -221 l 1,0,-1
121 408 m 256,6,7
 93 408 93 408 74 426.5 c 128,-1,8
 55 445 55 445 55 473 c 256,9,10
 55 501 55 501 74 520 c 128,-1,11
 93 539 93 539 121 539 c 256,12,13
 149 539 149 539 167.5 520 c 128,-1,14
 186 501 186 501 186 473 c 256,15,16
 186 445 186 445 167.5 426.5 c 128,-1,17
 149 408 149 408 121 408 c 256,6,7
EndSplineSet
EndChar

StartChar: cent
Encoding: 162 162 100
Width: 541
GlyphClass: 1
Flags: W
LayerCount: 2
UndoRedoHistory
Layer: 0
Undoes
UndoOperation
Index: 0
Type: 1
WasModified: 0
WasOrder2: 1
Layer: 2
Width: 529
VWidth: 1000
LBearingChange: 0
UnicodeEnc: 0
InstructionsLength: 0
EndUndoOperation
EndUndoes
Redoes
EndRedoes
EndUndoRedoHistory
UndoRedoHistory
Layer: 1
Undoes
UndoOperation
Index: 0
Type: 3
WasModified: 0
WasOrder2: 1
Layer: 2
EndUndoOperation
EndUndoes
Redoes
EndRedoes
EndUndoRedoHistory
Fore
SplineSet
292 101 m 0,0,1
 218 101 218 101 160 136 c 128,-1,2
 102 171 102 171 69 231 c 128,-1,3
 36 291 36 291 36 367 c 0,4,5
 36 444 36 444 69 503.5 c 128,-1,6
 102 563 102 563 160 597.5 c 128,-1,7
 218 632 218 632 292 632 c 0,8,9
 350 632 350 632 393 612 c 128,-1,10
 436 592 436 592 465.5 559.5 c 128,-1,11
 495 527 495 527 510 489 c 1,12,-1
 431 457 l 1,13,14
 412 504 412 504 376 529.5 c 128,-1,15
 340 555 340 555 286 555 c 0,16,17
 245 555 245 555 207 531.5 c 128,-1,18
 169 508 169 508 145.5 465.5 c 128,-1,19
 122 423 122 423 122 367 c 256,20,21
 122 311 122 311 145.5 268 c 128,-1,22
 169 225 169 225 207 201.5 c 128,-1,23
 245 178 245 178 286 178 c 0,24,25
 340 178 340 178 378.5 204 c 128,-1,26
 417 230 417 230 436 276 c 1,27,-1
 513 244 l 1,28,29
 498 206 498 206 468 173.5 c 128,-1,30
 438 141 438 141 394 121 c 128,-1,31
 350 101 350 101 292 101 c 0,0,1
254 0 m 1,32,-1
 254 733 l 1,33,-1
 326 733 l 1,34,-1
 326 0 l 1,35,-1
 254 0 l 1,32,-1
EndSplineSet
Substitution2: "<6,0> Monospaced Numbers lookup 22 subtable" cent.tf
EndChar

StartChar: sterling
Encoding: 163 163 101
Width: 535
GlyphClass: 1
Flags: W
LayerCount: 2
UndoRedoHistory
Layer: 0
Undoes
UndoOperation
Index: 0
Type: 1
WasModified: 0
WasOrder2: 1
Layer: 2
Width: 523
VWidth: 1000
LBearingChange: 0
UnicodeEnc: 0
InstructionsLength: 0
EndUndoOperation
EndUndoes
Redoes
EndRedoes
EndUndoRedoHistory
UndoRedoHistory
Layer: 1
Undoes
UndoOperation
Index: 0
Type: 3
WasModified: 0
WasOrder2: 1
Layer: 2
EndUndoOperation
EndUndoes
Redoes
EndRedoes
EndUndoRedoHistory
Fore
SplineSet
38 0 m 1,0,-1
 38 75 l 1,1,2
 73 91 73 91 95.5 119.5 c 128,-1,3
 118 148 118 148 129 182 c 128,-1,4
 140 216 140 216 140 247 c 0,5,6
 140 285 140 285 125 319 c 128,-1,7
 110 353 110 353 90 388 c 128,-1,8
 70 423 70 423 54.5 462 c 128,-1,9
 39 501 39 501 39 548 c 0,10,11
 39 601 39 601 65 647 c 128,-1,12
 91 693 91 693 138 721.5 c 128,-1,13
 185 750 185 750 248 750 c 0,14,15
 308 750 308 750 349 726.5 c 128,-1,16
 390 703 390 703 414.5 670 c 128,-1,17
 439 637 439 637 450 605 c 1,18,-1
 370 572 l 1,19,20
 360 606 360 606 331 636.5 c 128,-1,21
 302 667 302 667 248 667 c 0,22,23
 208 667 208 667 181 649.5 c 128,-1,24
 154 632 154 632 139.5 605 c 128,-1,25
 125 578 125 578 125 548 c 0,26,27
 125 508 125 508 140.5 473 c 128,-1,28
 156 438 156 438 175.5 405 c 128,-1,29
 195 372 195 372 210 336.5 c 128,-1,30
 225 301 225 301 225 260 c 0,31,32
 225 231 225 231 217.5 199 c 128,-1,33
 210 167 210 167 195.5 137.5 c 128,-1,34
 181 108 181 108 161 86 c 1,35,-1
 165 83 l 1,36,-1
 354 83 l 2,37,38
 395 83 395 83 414.5 99 c 128,-1,39
 434 115 434 115 444 143 c 1,40,-1
 516 114 l 1,41,42
 504 80 504 80 482.5 54.5 c 128,-1,43
 461 29 461 29 429 14.5 c 128,-1,44
 397 0 397 0 354 0 c 2,45,-1
 38 0 l 1,0,-1
39 271 m 1,46,-1
 39 344 l 1,47,-1
 346 344 l 1,48,-1
 346 271 l 1,49,-1
 39 271 l 1,46,-1
EndSplineSet
Substitution2: "<6,0> Monospaced Numbers lookup 22 subtable" sterling.tf
EndChar

StartChar: currency
Encoding: 164 164 102
Width: 623
GlyphClass: 1
Flags: W
LayerCount: 2
UndoRedoHistory
Layer: 0
Undoes
UndoOperation
Index: 0
Type: 1
WasModified: 0
WasOrder2: 1
Layer: 2
Width: 609
VWidth: 1000
LBearingChange: 0
UnicodeEnc: 0
InstructionsLength: 0
EndUndoOperation
EndUndoes
Redoes
EndRedoes
EndUndoRedoHistory
UndoRedoHistory
Layer: 1
Undoes
UndoOperation
Index: 0
Type: 3
WasModified: 0
WasOrder2: 1
Layer: 2
EndUndoOperation
EndUndoes
Redoes
EndRedoes
EndUndoRedoHistory
Fore
SplineSet
120 95 m 1,0,-1
 69 146 l 1,1,-1
 130 206 l 1,2,3
 113 234 113 234 102 266 c 128,-1,4
 91 298 91 298 91 333 c 0,5,6
 91 369 91 369 102 401 c 128,-1,7
 113 433 113 433 130 460 c 1,8,-1
 69 520 l 1,9,-1
 120 571 l 1,10,-1
 180 513 l 1,11,12
 207 533 207 533 240.5 545 c 128,-1,13
 274 557 274 557 312 557 c 0,14,15
 349 557 349 557 383 545.5 c 128,-1,16
 417 534 417 534 443 513 c 1,17,-1
 504 571 l 1,18,-1
 555 520 l 1,19,-1
 495 461 l 1,20,21
 512 433 512 433 522 401 c 128,-1,22
 532 369 532 369 532 333 c 0,23,24
 532 298 532 298 522 265.5 c 128,-1,25
 512 233 512 233 495 206 c 1,26,-1
 555 146 l 1,27,-1
 504 95 l 1,28,-1
 443 154 l 1,29,30
 416 134 416 134 382.5 121.5 c 128,-1,31
 349 109 349 109 312 109 c 0,32,33
 274 109 274 109 240.5 121 c 128,-1,34
 207 133 207 133 180 154 c 1,35,-1
 120 95 l 1,0,-1
312 184 m 256,36,37
 351 184 351 184 383 204 c 128,-1,38
 415 224 415 224 434 258 c 128,-1,39
 453 292 453 292 453 333 c 256,40,41
 453 374 453 374 434 407.5 c 128,-1,42
 415 441 415 441 383 461 c 128,-1,43
 351 481 351 481 312 481 c 256,44,45
 273 481 273 481 241 461 c 128,-1,46
 209 441 209 441 190 407.5 c 128,-1,47
 171 374 171 374 171 333 c 256,48,49
 171 292 171 292 190 258 c 128,-1,50
 209 224 209 224 241 204 c 128,-1,51
 273 184 273 184 312 184 c 256,36,37
EndSplineSet
Substitution2: "<6,0> Monospaced Numbers lookup 22 subtable" currency.tf
EndChar

StartChar: yen
Encoding: 165 165 103
Width: 583
GlyphClass: 1
Flags: W
LayerCount: 2
UndoRedoHistory
Layer: 0
Undoes
UndoOperation
Index: 0
Type: 1
WasModified: 0
WasOrder2: 1
Layer: 2
Width: 570
VWidth: 1000
LBearingChange: 0
UnicodeEnc: 0
InstructionsLength: 0
EndUndoOperation
EndUndoes
Redoes
EndRedoes
EndUndoRedoHistory
UndoRedoHistory
Layer: 1
Undoes
UndoOperation
Index: 0
Type: 3
WasModified: 0
WasOrder2: 1
Layer: 2
EndUndoOperation
EndUndoes
Redoes
EndRedoes
EndUndoRedoHistory
Fore
SplineSet
251 0 m 1,0,-1
 251 350 l 1,1,-1
 14 733 l 1,2,-1
 114 733 l 1,3,-1
 257 489 l 1,4,-1
 292 424 l 1,5,-1
 296 424 l 1,6,-1
 330 489 l 1,7,-1
 470 733 l 1,8,-1
 569 733 l 1,9,-1
 337 352 l 1,10,-1
 337 0 l 1,11,-1
 251 0 l 1,0,-1
76 189 m 1,12,-1
 76 261 l 1,13,-1
 508 261 l 1,14,-1
 508 189 l 1,15,-1
 76 189 l 1,12,-1
76 351 m 1,16,-1
 76 423 l 1,17,-1
 508 423 l 1,18,-1
 508 351 l 1,19,-1
 76 351 l 1,16,-1
EndSplineSet
Substitution2: "<6,0> Monospaced Numbers lookup 22 subtable" yen.tf
EndChar

StartChar: brokenbar
Encoding: 166 166 104
Width: 240
GlyphClass: 1
Flags: W
LayerCount: 2
UndoRedoHistory
Layer: 0
Undoes
UndoOperation
Index: 0
Type: 1
WasModified: 0
WasOrder2: 1
Layer: 2
Width: 235
VWidth: 1000
LBearingChange: 0
UnicodeEnc: 0
InstructionsLength: 0
EndUndoOperation
EndUndoes
Redoes
EndRedoes
EndUndoRedoHistory
UndoRedoHistory
Layer: 1
Undoes
UndoOperation
Index: 0
Type: 3
WasModified: 0
WasOrder2: 1
Layer: 2
EndUndoOperation
EndUndoes
Redoes
EndRedoes
EndUndoRedoHistory
Fore
SplineSet
81 -123 m 1,0,-1
 81 299 l 1,1,-1
 160 299 l 1,2,-1
 160 -123 l 1,3,-1
 81 -123 l 1,0,-1
81 385 m 1,4,-1
 81 774 l 1,5,-1
 160 774 l 1,6,-1
 160 385 l 1,7,-1
 81 385 l 1,4,-1
EndSplineSet
EndChar

StartChar: section
Encoding: 167 167 105
Width: 557
GlyphClass: 1
Flags: W
LayerCount: 2
UndoRedoHistory
Layer: 0
Undoes
UndoOperation
Index: 0
Type: 1
WasModified: 0
WasOrder2: 1
Layer: 2
Width: 544
VWidth: 1000
LBearingChange: 0
UnicodeEnc: 0
InstructionsLength: 0
EndUndoOperation
EndUndoes
Redoes
EndRedoes
EndUndoRedoHistory
UndoRedoHistory
Layer: 1
Undoes
UndoOperation
Index: 0
Type: 3
WasModified: 0
WasOrder2: 1
Layer: 2
EndUndoOperation
EndUndoes
Redoes
EndRedoes
EndUndoRedoHistory
Fore
SplineSet
297 -238 m 0,0,1
 238 -238 238 -238 186.5 -216.5 c 128,-1,2
 135 -195 135 -195 98 -152 c 128,-1,3
 61 -109 61 -109 45 -43 c 1,4,-1
 126 -10 l 1,5,6
 137 -50 137 -50 160 -83 c 128,-1,7
 183 -116 183 -116 216.5 -135.5 c 128,-1,8
 250 -155 250 -155 290 -155 c 0,9,10
 348 -155 348 -155 384 -126.5 c 128,-1,11
 420 -98 420 -98 420 -48 c 0,12,13
 420 -11 420 -11 404.5 12 c 128,-1,14
 389 35 389 35 355 53 c 128,-1,15
 321 71 321 71 263 92 c 2,16,-1
 233 103 l 2,17,18
 176 126 176 126 139 151 c 128,-1,19
 102 176 102 176 85.5 209 c 128,-1,20
 69 242 69 242 69 287 c 0,21,22
 69 337 69 337 101 377.5 c 128,-1,23
 133 418 133 418 186 440 c 1,24,-1
 259 400 l 1,25,26
 231 396 231 396 207 382.5 c 128,-1,27
 183 369 183 369 168.5 347.5 c 128,-1,28
 154 326 154 326 154 296 c 0,29,30
 154 270 154 270 166.5 249 c 128,-1,31
 179 228 179 228 210 209.5 c 128,-1,32
 241 191 241 191 293 174 c 0,33,34
 336 160 336 160 375 140 c 128,-1,35
 414 120 414 120 444 94 c 128,-1,36
 474 68 474 68 491.5 34 c 128,-1,37
 509 0 509 0 509 -43 c 0,38,39
 509 -105 509 -105 479.5 -149 c 128,-1,40
 450 -193 450 -193 401.5 -215.5 c 128,-1,41
 353 -238 353 -238 297 -238 c 0,0,1
406 80 m 1,42,-1
 339 118 l 1,43,44
 376 130 376 130 396.5 148.5 c 128,-1,45
 417 167 417 167 425 191 c 128,-1,46
 433 215 433 215 433 242 c 0,47,48
 433 279 433 279 411 304.5 c 128,-1,49
 389 330 389 330 350.5 349 c 128,-1,50
 312 368 312 368 263 386 c 0,51,52
 198 411 198 411 158.5 436.5 c 128,-1,53
 119 462 119 462 100.5 493.5 c 128,-1,54
 82 525 82 525 82 565 c 0,55,56
 82 608 82 608 106 650.5 c 128,-1,57
 130 693 130 693 176.5 721.5 c 128,-1,58
 223 750 223 750 291 750 c 0,59,60
 349 750 349 750 392.5 725.5 c 128,-1,61
 436 701 436 701 462.5 666.5 c 128,-1,62
 489 632 489 632 499 601 c 1,63,-1
 419 568 l 1,64,65
 413 590 413 590 396.5 612.5 c 128,-1,66
 380 635 380 635 353 651 c 128,-1,67
 326 667 326 667 288 667 c 0,68,69
 235 667 235 667 202.5 639.5 c 128,-1,70
 170 612 170 612 170 572 c 0,71,72
 170 533 170 533 198.5 510 c 128,-1,73
 227 487 227 487 288 467 c 2,74,-1
 311 459 l 2,75,76
 365 441 365 441 413 415.5 c 128,-1,77
 461 390 461 390 491 350 c 128,-1,78
 521 310 521 310 521 246 c 0,79,80
 521 212 521 212 509 180 c 128,-1,81
 497 148 497 148 471.5 122.5 c 128,-1,82
 446 97 446 97 406 80 c 1,42,-1
EndSplineSet
Substitution2: "<6,0> Monospaced Numbers lookup 22 subtable" section.tf
EndChar

StartChar: copyright
Encoding: 169 169 107
Width: 542
GlyphClass: 1
Flags: W
LayerCount: 2
UndoRedoHistory
Layer: 0
Undoes
UndoOperation
Index: 0
Type: 1
WasModified: 0
WasOrder2: 1
Layer: 2
Width: 530
VWidth: 1000
LBearingChange: 0
UnicodeEnc: 0
InstructionsLength: 0
EndUndoOperation
EndUndoes
Redoes
EndRedoes
EndUndoRedoHistory
UndoRedoHistory
Layer: 1
Undoes
UndoOperation
Index: 0
Type: 3
WasModified: 0
WasOrder2: 1
Layer: 2
EndUndoOperation
EndUndoes
Redoes
EndRedoes
EndUndoRedoHistory
Fore
SplineSet
271 279 m 256,0,1
 206 279 206 279 152.5 310.5 c 128,-1,2
 99 342 99 342 67.5 396 c 128,-1,3
 36 450 36 450 36 514 c 256,4,5
 36 579 36 579 67.5 632.5 c 128,-1,6
 99 686 99 686 153 718 c 128,-1,7
 207 750 207 750 271 750 c 256,8,9
 336 750 336 750 389.5 718 c 128,-1,10
 443 686 443 686 475 632.5 c 128,-1,11
 507 579 507 579 507 514 c 256,12,13
 507 449 507 449 475 395.5 c 128,-1,14
 443 342 443 342 389.5 310.5 c 128,-1,15
 336 279 336 279 271 279 c 256,0,1
275 392 m 0,16,17
 241 392 241 392 213.5 408.5 c 128,-1,18
 186 425 186 425 170.5 453 c 128,-1,19
 155 481 155 481 155 514 c 0,20,21
 155 548 155 548 170.5 575.5 c 128,-1,22
 186 603 186 603 214 619.5 c 128,-1,23
 242 636 242 636 275 636 c 0,24,25
 307 636 307 636 327.5 624.5 c 128,-1,26
 348 613 348 613 365 596 c 1,27,-1
 333 567 l 1,28,29
 323 579 323 579 310.5 586 c 128,-1,30
 298 593 298 593 275 593 c 0,31,32
 245 593 245 593 222.5 570.5 c 128,-1,33
 200 548 200 548 200 514 c 256,34,35
 200 480 200 480 223 457.5 c 128,-1,36
 246 435 246 435 275 435 c 0,37,38
 298 435 298 435 313 444.5 c 128,-1,39
 328 454 328 454 338 468 c 1,40,-1
 372 441 l 1,41,42
 356 419 356 419 332 405.5 c 128,-1,43
 308 392 308 392 275 392 c 0,16,17
271 326 m 0,44,45
 323 326 323 326 366.5 351.5 c 128,-1,46
 410 377 410 377 435.5 420 c 128,-1,47
 461 463 461 463 461 514 c 0,48,49
 461 566 461 566 435.5 608.5 c 128,-1,50
 410 651 410 651 367 676.5 c 128,-1,51
 324 702 324 702 271 702 c 0,52,53
 220 702 220 702 177 676.5 c 128,-1,54
 134 651 134 651 108.5 608.5 c 128,-1,55
 83 566 83 566 83 514 c 0,56,57
 83 463 83 463 108.5 420 c 128,-1,58
 134 377 134 377 177 351.5 c 128,-1,59
 220 326 220 326 271 326 c 0,44,45
EndSplineSet
EndChar

StartChar: ordfeminine
Encoding: 170 170 108
Width: 483
GlyphClass: 1
Flags: W
LayerCount: 2
UndoRedoHistory
Layer: 0
Undoes
UndoOperation
Index: 0
Type: 1
WasModified: 0
WasOrder2: 1
Layer: 2
Width: 472
VWidth: 1000
LBearingChange: 0
UnicodeEnc: 0
InstructionsLength: 0
EndUndoOperation
EndUndoes
Redoes
EndRedoes
EndUndoRedoHistory
UndoRedoHistory
Layer: 1
Undoes
UndoOperation
Index: 0
Type: 3
WasModified: 0
WasOrder2: 1
Layer: 2
EndUndoOperation
EndUndoes
Redoes
EndRedoes
EndUndoRedoHistory
Fore
SplineSet
211 279 m 0,0,1
 166 279 166 279 127 297 c 128,-1,2
 88 315 88 315 64.5 349.5 c 128,-1,3
 41 384 41 384 41 429 c 0,4,5
 41 479 41 479 68 512.5 c 128,-1,6
 95 546 95 546 139 563 c 128,-1,7
 183 580 183 580 234 580 c 0,8,9
 264 580 264 580 289 574.5 c 128,-1,10
 314 569 314 569 333 562 c 128,-1,11
 352 555 352 555 362 549 c 1,12,-1
 362 565 l 2,13,14
 362 601 362 601 346 625.5 c 128,-1,15
 330 650 330 650 303 663 c 128,-1,16
 276 676 276 676 246 676 c 0,17,18
 207 676 207 676 180 662.5 c 128,-1,19
 153 649 153 649 135 617 c 1,20,-1
 61 653 l 1,21,22
 72 677 72 677 95.5 699 c 128,-1,23
 119 721 119 721 156 735.5 c 128,-1,24
 193 750 193 750 243 750 c 0,25,26
 297 750 297 750 342.5 728.5 c 128,-1,27
 388 707 388 707 415 665 c 128,-1,28
 442 623 442 623 442 561 c 2,29,-1
 442 293 l 1,30,-1
 362 293 l 1,31,-1
 362 360 l 1,32,-1
 358 360 l 1,33,34
 346 337 346 337 324.5 319 c 128,-1,35
 303 301 303 301 274.5 290 c 128,-1,36
 246 279 246 279 211 279 c 0,0,1
223 350 m 0,37,38
 249 350 249 350 274 360 c 128,-1,39
 299 370 299 370 319 388 c 128,-1,40
 339 406 339 406 350.5 430.5 c 128,-1,41
 362 455 362 455 362 483 c 0,42,43
 360 485 360 485 347 493 c 128,-1,44
 334 501 334 501 310.5 508.5 c 128,-1,45
 287 516 287 516 252 516 c 0,46,47
 208 516 208 516 180.5 504 c 128,-1,48
 153 492 153 492 140 471.5 c 128,-1,49
 127 451 127 451 127 425 c 0,50,51
 127 387 127 387 157.5 368.5 c 128,-1,52
 188 350 188 350 223 350 c 0,37,38
EndSplineSet
EndChar

StartChar: logicalnot
Encoding: 172 172 110
Width: 584
GlyphClass: 1
Flags: W
LayerCount: 2
UndoRedoHistory
Layer: 0
Undoes
UndoOperation
Index: 0
Type: 1
WasModified: 0
WasOrder2: 1
Layer: 2
Width: 571
VWidth: 1000
LBearingChange: 0
UnicodeEnc: 0
InstructionsLength: 0
EndUndoOperation
EndUndoes
Redoes
EndRedoes
EndUndoRedoHistory
UndoRedoHistory
Layer: 1
Undoes
UndoOperation
Index: 0
Type: 3
WasModified: 0
WasOrder2: 1
Layer: 2
EndUndoOperation
EndUndoes
Redoes
EndRedoes
EndUndoRedoHistory
Fore
SplineSet
427 56 m 1,0,-1
 427 268 l 1,1,-1
 55 268 l 1,2,-1
 55 340 l 1,3,-1
 497 340 l 1,4,-1
 497 56 l 1,5,-1
 427 56 l 1,0,-1
EndSplineSet
Substitution2: "<6,0> Monospaced Numbers lookup 22 subtable" logicalnot.tf
EndChar

StartChar: registered
Encoding: 174 174 112
Width: 542
GlyphClass: 1
Flags: W
LayerCount: 2
UndoRedoHistory
Layer: 0
Undoes
UndoOperation
Index: 0
Type: 1
WasModified: 0
WasOrder2: 1
Layer: 2
Width: 530
VWidth: 1000
LBearingChange: 0
UnicodeEnc: 0
InstructionsLength: 0
EndUndoOperation
EndUndoes
Redoes
EndRedoes
EndUndoRedoHistory
UndoRedoHistory
Layer: 1
Undoes
UndoOperation
Index: 0
Type: 3
WasModified: 0
WasOrder2: 1
Layer: 2
EndUndoOperation
EndUndoes
Redoes
EndRedoes
EndUndoRedoHistory
Fore
SplineSet
271 279 m 256,0,1
 206 279 206 279 152.5 310.5 c 128,-1,2
 99 342 99 342 67.5 396 c 128,-1,3
 36 450 36 450 36 514 c 256,4,5
 36 579 36 579 67.5 632.5 c 128,-1,6
 99 686 99 686 153 718 c 128,-1,7
 207 750 207 750 271 750 c 256,8,9
 336 750 336 750 389.5 718 c 128,-1,10
 443 686 443 686 475 632.5 c 128,-1,11
 507 579 507 579 507 514 c 256,12,13
 507 449 507 449 475 395.5 c 128,-1,14
 443 342 443 342 389.5 310.5 c 128,-1,15
 336 279 336 279 271 279 c 256,0,1
271 326 m 0,16,17
 323 326 323 326 366.5 351.5 c 128,-1,18
 410 377 410 377 435.5 420 c 128,-1,19
 461 463 461 463 461 514 c 0,20,21
 461 566 461 566 435.5 608.5 c 128,-1,22
 410 651 410 651 367 676.5 c 128,-1,23
 324 702 324 702 271 702 c 0,24,25
 220 702 220 702 177 676.5 c 128,-1,26
 134 651 134 651 108.5 608.5 c 128,-1,27
 83 566 83 566 83 514 c 0,28,29
 83 463 83 463 108.5 420 c 128,-1,30
 134 377 134 377 177 351.5 c 128,-1,31
 220 326 220 326 271 326 c 0,16,17
194 398 m 1,32,-1
 194 630 l 1,33,-1
 291 630 l 2,34,35
 321 630 321 630 343.5 609 c 128,-1,36
 366 588 366 588 366 556 c 0,37,38
 366 532 366 532 351 514 c 128,-1,39
 336 496 336 496 314 489 c 1,40,-1
 312 487 l 1,41,-1
 374 400 l 1,42,-1
 374 398 l 1,43,-1
 323 398 l 1,44,-1
 265 485 l 1,45,-1
 239 485 l 1,46,-1
 239 398 l 1,47,-1
 194 398 l 1,32,-1
239 526 m 1,48,-1
 287 526 l 2,49,50
 300 526 300 526 310.5 534.5 c 128,-1,51
 321 543 321 543 321 556 c 0,52,53
 321 567 321 567 311.5 577 c 128,-1,54
 302 587 302 587 288 587 c 2,55,-1
 239 587 l 1,56,-1
 239 526 l 1,48,-1
EndSplineSet
EndChar

StartChar: degree
Encoding: 176 176 114
Width: 329
GlyphClass: 1
Flags: W
LayerCount: 2
UndoRedoHistory
Layer: 0
Undoes
UndoOperation
Index: 0
Type: 1
WasModified: 0
WasOrder2: 1
Layer: 2
Width: 322
VWidth: 1000
LBearingChange: 0
UnicodeEnc: 0
InstructionsLength: 0
EndUndoOperation
EndUndoes
Redoes
EndRedoes
EndUndoRedoHistory
UndoRedoHistory
Layer: 1
Undoes
UndoOperation
Index: 0
Type: 3
WasModified: 0
WasOrder2: 1
Layer: 2
EndUndoOperation
EndUndoes
Redoes
EndRedoes
EndUndoRedoHistory
Fore
SplineSet
166 485 m 256,0,1
 129 485 129 485 99 503 c 128,-1,2
 69 521 69 521 50.5 551.5 c 128,-1,3
 32 582 32 582 32 617 c 0,4,5
 32 654 32 654 50.5 684.5 c 128,-1,6
 69 715 69 715 99 732.5 c 128,-1,7
 129 750 129 750 166 750 c 256,8,9
 203 750 203 750 232.5 732.5 c 128,-1,10
 262 715 262 715 280 684.5 c 128,-1,11
 298 654 298 654 298 617 c 0,12,13
 298 581 298 581 280 551 c 128,-1,14
 262 521 262 521 232.5 503 c 128,-1,15
 203 485 203 485 166 485 c 256,0,1
166 546 m 256,16,17
 195 546 195 546 214 567.5 c 128,-1,18
 233 589 233 589 233 617 c 0,19,20
 233 647 233 647 214 668 c 128,-1,21
 195 689 195 689 166 689 c 256,22,23
 137 689 137 689 116.5 668 c 128,-1,24
 96 647 96 647 96 617 c 0,25,26
 96 588 96 588 116.5 567 c 128,-1,27
 137 546 137 546 166 546 c 256,16,17
EndSplineSet
EndChar

StartChar: plusminus
Encoding: 177 177 115
Width: 555
GlyphClass: 1
Flags: W
LayerCount: 2
UndoRedoHistory
Layer: 0
Undoes
UndoOperation
Index: 0
Type: 1
WasModified: 0
WasOrder2: 1
Layer: 2
Width: 542
VWidth: 1000
LBearingChange: 0
UnicodeEnc: 0
InstructionsLength: 0
EndUndoOperation
EndUndoes
Redoes
EndRedoes
EndUndoRedoHistory
UndoRedoHistory
Layer: 1
Undoes
UndoOperation
Index: 0
Type: 3
WasModified: 0
WasOrder2: 1
Layer: 2
EndUndoOperation
EndUndoes
Redoes
EndRedoes
EndUndoRedoHistory
Fore
SplineSet
55 0 m 1,0,-1
 55 72 l 1,1,-1
 500 72 l 1,2,-1
 500 0 l 1,3,-1
 55 0 l 1,0,-1
242 145 m 1,4,-1
 242 539 l 1,5,-1
 313 539 l 1,6,-1
 313 145 l 1,7,-1
 242 145 l 1,4,-1
55 306 m 1,8,-1
 55 378 l 1,9,-1
 500 378 l 1,10,-1
 500 306 l 1,11,-1
 55 306 l 1,8,-1
EndSplineSet
Substitution2: "<6,0> Monospaced Numbers lookup 22 subtable" plusminus.tf
EndChar

StartChar: paragraph
Encoding: 182 182 120
Width: 626
GlyphClass: 1
Flags: W
LayerCount: 2
UndoRedoHistory
Layer: 0
Undoes
UndoOperation
Index: 0
Type: 1
WasModified: 0
WasOrder2: 1
Layer: 2
Width: 612
VWidth: 1000
LBearingChange: 0
UnicodeEnc: 0
InstructionsLength: 0
EndUndoOperation
EndUndoes
Redoes
EndRedoes
EndUndoRedoHistory
UndoRedoHistory
Layer: 1
Undoes
UndoOperation
Index: 0
Type: 3
WasModified: 0
WasOrder2: 1
Layer: 2
EndUndoOperation
EndUndoes
Redoes
EndRedoes
EndUndoRedoHistory
Fore
SplineSet
298 -221 m 1,0,-1
 298 303 l 1,1,-1
 253 303 l 2,2,3
 192 303 192 303 139 328.5 c 128,-1,4
 86 354 86 354 54.5 403 c 128,-1,5
 23 452 23 452 23 518 c 0,6,7
 23 586 23 586 54.5 634 c 128,-1,8
 86 682 86 682 138.5 707.5 c 128,-1,9
 191 733 191 733 253 733 c 2,10,-1
 548 733 l 1,11,-1
 548 -221 l 1,12,-1
 468 -221 l 1,13,-1
 468 650 l 1,14,-1
 377 650 l 1,15,-1
 377 -221 l 1,16,-1
 298 -221 l 1,0,-1
EndSplineSet
EndChar

StartChar: ordmasculine
Encoding: 186 186 124
Width: 525
GlyphClass: 1
Flags: W
LayerCount: 2
UndoRedoHistory
Layer: 0
Undoes
UndoOperation
Index: 0
Type: 1
WasModified: 0
WasOrder2: 1
Layer: 2
Width: 513
VWidth: 1000
LBearingChange: 0
UnicodeEnc: 0
InstructionsLength: 0
EndUndoOperation
EndUndoes
Redoes
EndRedoes
EndUndoRedoHistory
UndoRedoHistory
Layer: 1
Undoes
UndoOperation
Index: 0
Type: 3
WasModified: 0
WasOrder2: 1
Layer: 2
EndUndoOperation
EndUndoes
Redoes
EndRedoes
EndUndoRedoHistory
Fore
SplineSet
263 279 m 256,0,1
 197 279 197 279 146 309.5 c 128,-1,2
 95 340 95 340 66 393.5 c 128,-1,3
 37 447 37 447 37 514 c 0,4,5
 37 582 37 582 66 635 c 128,-1,6
 95 688 95 688 146.5 719 c 128,-1,7
 198 750 198 750 263 750 c 256,8,9
 329 750 329 750 380 719 c 128,-1,10
 431 688 431 688 460 635 c 128,-1,11
 489 582 489 582 489 514 c 0,12,13
 489 447 489 447 460 393.5 c 128,-1,14
 431 340 431 340 380 309.5 c 128,-1,15
 329 279 329 279 263 279 c 256,0,1
263 354 m 256,16,17
 300 354 300 354 332.5 374 c 128,-1,18
 365 394 365 394 385.5 430.5 c 128,-1,19
 406 467 406 467 406 514 c 0,20,21
 406 562 406 562 385.5 598 c 128,-1,22
 365 634 365 634 332.5 654 c 128,-1,23
 300 674 300 674 263 674 c 256,24,25
 226 674 226 674 193.5 654 c 128,-1,26
 161 634 161 634 140.5 598 c 128,-1,27
 120 562 120 562 120 514 c 0,28,29
 120 467 120 467 140.5 430.5 c 128,-1,30
 161 394 161 394 193.5 374 c 128,-1,31
 226 354 226 354 263 354 c 256,16,17
EndSplineSet
EndChar

StartChar: questiondown
Encoding: 191 191 129
Width: 473
GlyphClass: 1
Flags: W
LayerCount: 2
UndoRedoHistory
Layer: 0
Undoes
UndoOperation
Index: 0
Type: 1
WasModified: 0
WasOrder2: 1
Layer: 2
Width: 462
VWidth: 1000
LBearingChange: 0
UnicodeEnc: 0
InstructionsLength: 0
EndUndoOperation
EndUndoes
Redoes
EndRedoes
EndUndoRedoHistory
UndoRedoHistory
Layer: 1
Undoes
UndoOperation
Index: 0
Type: 3
WasModified: 0
WasOrder2: 1
Layer: 2
EndUndoOperation
EndUndoes
Redoes
EndRedoes
EndUndoRedoHistory
Fore
SplineSet
250 -238 m 0,0,1
 188 -238 188 -238 141 -212.5 c 128,-1,2
 94 -187 94 -187 68 -143 c 128,-1,3
 42 -99 42 -99 42 -45 c 0,4,5
 42 -2 42 -2 60 32 c 128,-1,6
 78 66 78 66 101.5 90.5 c 128,-1,7
 125 115 125 115 141 130 c 0,8,9
 174 160 174 160 190.5 187.5 c 128,-1,10
 207 215 207 215 207 253 c 2,11,-1
 207 311 l 1,12,-1
 295 311 l 1,13,-1
 295 247 l 2,14,15
 295 212 295 212 286.5 185.5 c 128,-1,16
 278 159 278 159 258.5 135 c 128,-1,17
 239 111 239 111 206 81 c 0,18,19
 184 61 184 61 167 42.5 c 128,-1,20
 150 24 150 24 140 3.5 c 128,-1,21
 130 -17 130 -17 130 -45 c 0,22,23
 130 -93 130 -93 162 -124 c 128,-1,24
 194 -155 194 -155 250 -155 c 0,25,26
 288 -155 288 -155 313 -139.5 c 128,-1,27
 338 -124 338 -124 353.5 -100.5 c 128,-1,28
 369 -77 369 -77 376 -53 c 1,29,-1
 457 -87 l 1,30,31
 446 -119 446 -119 420 -153.5 c 128,-1,32
 394 -188 394 -188 352 -213 c 128,-1,33
 310 -238 310 -238 250 -238 c 0,0,1
251 408 m 256,34,35
 223 408 223 408 204 426.5 c 128,-1,36
 185 445 185 445 185 473 c 256,37,38
 185 501 185 501 204 520 c 128,-1,39
 223 539 223 539 251 539 c 256,40,41
 279 539 279 539 297.5 520 c 128,-1,42
 316 501 316 501 316 473 c 256,43,44
 316 445 316 445 297.5 426.5 c 128,-1,45
 279 408 279 408 251 408 c 256,34,35
EndSplineSet
EndChar

StartChar: AE
Encoding: 198 198 136
Width: 975
GlyphClass: 1
Flags: W
LayerCount: 2
UndoRedoHistory
Layer: 0
Undoes
UndoOperation
Index: 0
Type: 1
WasModified: 0
WasOrder2: 1
Layer: 2
Width: 953
VWidth: 1000
LBearingChange: 0
UnicodeEnc: 0
InstructionsLength: 0
EndUndoOperation
EndUndoes
Redoes
EndRedoes
EndUndoRedoHistory
UndoRedoHistory
Layer: 1
Undoes
UndoOperation
Index: 0
Type: 3
WasModified: 0
WasOrder2: 1
Layer: 2
EndUndoOperation
EndUndoes
Redoes
EndRedoes
EndUndoRedoHistory
Fore
SplineSet
6 0 m 1,0,-1
 449 733 l 1,1,-1
 924 733 l 1,2,-1
 924 650 l 1,3,-1
 587 650 l 1,4,-1
 587 83 l 1,5,-1
 924 83 l 1,6,-1
 924 0 l 1,7,-1
 500 0 l 1,8,-1
 500 650 l 1,9,-1
 496 650 l 1,10,-1
 466 599 l 1,11,-1
 109 0 l 1,12,-1
 6 0 l 1,0,-1
188 202 m 1,13,-1
 237 284 l 1,14,-1
 390 284 l 1,15,-1
 390 202 l 1,16,-1
 188 202 l 1,13,-1
541 202 m 1,17,-1
 390 202 l 1,18,-1
 390 284 l 1,19,-1
 541 284 l 1,20,-1
 541 202 l 1,17,-1
546 326 m 1,21,-1
 546 408 l 1,22,-1
 891 408 l 1,23,-1
 891 326 l 1,24,-1
 546 326 l 1,21,-1
EndSplineSet
EndChar

StartChar: multiply
Encoding: 215 215 153
Width: 557
GlyphClass: 1
Flags: W
LayerCount: 2
UndoRedoHistory
Layer: 0
Undoes
UndoOperation
Index: 0
Type: 1
WasModified: 0
WasOrder2: 1
Layer: 2
Width: 544
VWidth: 1000
LBearingChange: 0
UnicodeEnc: 0
InstructionsLength: 0
EndUndoOperation
EndUndoes
Redoes
EndRedoes
EndUndoRedoHistory
UndoRedoHistory
Layer: 1
Undoes
UndoOperation
Index: 0
Type: 3
WasModified: 0
WasOrder2: 1
Layer: 2
EndUndoOperation
EndUndoes
Redoes
EndRedoes
EndUndoRedoHistory
Fore
SplineSet
67 119 m 1,0,-1
 442 484 l 1,1,-1
 490 436 l 1,2,-1
 115 71 l 1,3,-1
 67 119 l 1,0,-1
67 436 m 1,4,-1
 115 484 l 1,5,-1
 490 119 l 1,6,-1
 442 71 l 1,7,-1
 67 436 l 1,4,-1
EndSplineSet
Substitution2: "<6,0> Monospaced Numbers lookup 22 subtable" multiply.tf
EndChar

StartChar: Thorn
Encoding: 222 222 160
Width: 587
GlyphClass: 1
Flags: W
LayerCount: 2
UndoRedoHistory
Layer: 0
Undoes
UndoOperation
Index: 0
Type: 1
WasModified: 0
WasOrder2: 1
Layer: 2
Width: 574
VWidth: 1000
LBearingChange: 0
UnicodeEnc: 0
InstructionsLength: 0
EndUndoOperation
EndUndoes
Redoes
EndRedoes
EndUndoRedoHistory
UndoRedoHistory
Layer: 1
Undoes
UndoOperation
Index: 0
Type: 3
WasModified: 0
WasOrder2: 1
Layer: 2
EndUndoOperation
EndUndoes
Redoes
EndRedoes
EndUndoRedoHistory
Fore
SplineSet
81 0 m 1,0,1
 81 0 81 0 81 733 c 1,2,3
 81 733 81 733 168 733 c 1,4,5
 168 733 168 733 168 0 c 1,6,7
 168 0 168 0 81 0 c 1,0,1
127 173 m 1,8,9
 127 173 127 173 127 256 c 1,10,11
 127 256 127 256 330 256 c 0,12,13
 373 256 373 256 403.5 276 c 128,-1,14
 434 296 434 296 451 326.5 c 128,-1,15
 468 357 468 357 468 390 c 256,16,17
 468 423 468 423 451 453.5 c 128,-1,18
 434 484 434 484 403.5 504 c 128,-1,19
 373 524 373 524 330 524 c 2,20,-1
 127 524 l 1,21,22
 127 524 127 524 127 607 c 1,23,24
 127 607 127 607 328 607 c 0,25,26
 389 607 389 607 441.5 579.5 c 128,-1,27
 494 552 494 552 525 503.5 c 128,-1,28
 556 455 556 455 556 390 c 0,29,30
 556 327 556 327 525 277.5 c 128,-1,31
 494 228 494 228 441.5 200.5 c 128,-1,32
 389 173 389 173 328 173 c 2,33,34
 328 173 328 173 127 173 c 1,8,9
EndSplineSet
EndChar

StartChar: germandbls
Encoding: 223 223 161
Width: 566
GlyphClass: 1
Flags: W
LayerCount: 2
UndoRedoHistory
Layer: 0
Undoes
UndoOperation
Index: 0
Type: 1
WasModified: 0
WasOrder2: 1
Layer: 2
Width: 553
VWidth: 1000
LBearingChange: 0
UnicodeEnc: 0
InstructionsLength: 0
EndUndoOperation
EndUndoes
Redoes
EndRedoes
EndUndoRedoHistory
UndoRedoHistory
Layer: 1
Undoes
UndoOperation
Index: 0
Type: 3
WasModified: 0
WasOrder2: 1
Layer: 2
EndUndoOperation
EndUndoes
Redoes
EndRedoes
EndUndoRedoHistory
Fore
SplineSet
294 -8 m 0,0,1
 284 -8 284 -8 268.5 -7 c 128,-1,2
 253 -6 253 -6 238 -3 c 1,3,-1
 238 79 l 1,4,5
 254 77 254 77 269 76 c 128,-1,6
 284 75 284 75 294 75 c 0,7,8
 335 75 335 75 367.5 93.5 c 128,-1,9
 400 112 400 112 419 143 c 128,-1,10
 438 174 438 174 438 214 c 0,11,12
 438 253 438 253 417 284 c 128,-1,13
 396 315 396 315 361.5 333.5 c 128,-1,14
 327 352 327 352 286 352 c 2,15,-1
 246 352 l 1,16,-1
 246 432 l 1,17,-1
 273 432 l 2,18,19
 315 432 315 432 345 447.5 c 128,-1,20
 375 463 375 463 390.5 490.5 c 128,-1,21
 406 518 406 518 406 553 c 0,22,23
 406 605 406 605 368.5 636 c 128,-1,24
 331 667 331 667 281 667 c 0,25,26
 220 667 220 667 186 629 c 128,-1,27
 152 591 152 591 152 528 c 2,28,-1
 152 0 l 1,29,-1
 63 0 l 1,30,-1
 63 528 l 2,31,32
 63 591 63 591 88.5 641 c 128,-1,33
 114 691 114 691 162.5 720.5 c 128,-1,34
 211 750 211 750 281 750 c 0,35,36
 343 750 343 750 390.5 724 c 128,-1,37
 438 698 438 698 466 654 c 128,-1,38
 494 610 494 610 494 553 c 0,39,40
 494 512 494 512 481.5 482 c 128,-1,41
 469 452 469 452 448.5 432 c 128,-1,42
 428 412 428 412 402 398 c 1,43,-1
 402 394 l 1,44,45
 436 381 436 381 464.5 357 c 128,-1,46
 493 333 493 333 509.5 297 c 128,-1,47
 526 261 526 261 526 214 c 0,48,49
 526 149 526 149 496 99 c 128,-1,50
 466 49 466 49 414 20.5 c 128,-1,51
 362 -8 362 -8 294 -8 c 0,0,1
EndSplineSet
EndChar

StartChar: ae
Encoding: 230 230 168
Width: 941
GlyphClass: 1
Flags: W
LayerCount: 2
UndoRedoHistory
Layer: 0
Undoes
UndoOperation
Index: 0
Type: 1
WasModified: 0
WasOrder2: 1
Layer: 2
Width: 919
VWidth: 1000
LBearingChange: 0
UnicodeEnc: 0
InstructionsLength: 0
EndUndoOperation
EndUndoes
Redoes
EndRedoes
EndUndoRedoHistory
UndoRedoHistory
Layer: 1
Undoes
UndoOperation
Index: 0
Type: 3
WasModified: 0
WasOrder2: 1
Layer: 2
EndUndoOperation
EndUndoes
Redoes
EndRedoes
EndUndoRedoHistory
Fore
SplineSet
232 -16 m 0,0,1
 174 -16 174 -16 130 6.5 c 128,-1,2
 86 29 86 29 61 68.5 c 128,-1,3
 36 108 36 108 36 158 c 0,4,5
 36 215 36 215 65.5 254.5 c 128,-1,6
 95 294 95 294 145.5 314 c 128,-1,7
 196 334 196 334 256 334 c 0,8,9
 291 334 291 334 320.5 328.5 c 128,-1,10
 350 323 350 323 372 315 c 128,-1,11
 394 307 394 307 406 300 c 1,12,-1
 406 332 l 2,13,14
 406 391 406 391 366.5 426 c 128,-1,15
 327 461 327 461 266 461 c 0,16,17
 222 461 222 461 191 440.5 c 128,-1,18
 160 420 160 420 142 386 c 1,19,-1
 69 423 l 1,20,21
 84 458 84 458 112.5 484 c 128,-1,22
 141 510 141 510 180 524.5 c 128,-1,23
 219 539 219 539 264 539 c 0,24,25
 337 539 337 539 386.5 511 c 128,-1,26
 436 483 436 483 462 435 c 1,27,28
 494 482 494 482 542.5 510 c 128,-1,29
 591 538 591 538 655 538 c 0,30,31
 733 538 733 538 789 503.5 c 128,-1,32
 845 469 845 469 875 409 c 128,-1,33
 905 349 905 349 905 271 c 0,34,35
 905 264 905 264 904.5 257 c 128,-1,36
 904 250 904 250 903 245 c 1,37,-1
 445 245 l 1,38,-1
 445 316 l 1,39,-1
 813 316 l 1,40,41
 812 338 812 338 803.5 363 c 128,-1,42
 795 388 795 388 776 409.5 c 128,-1,43
 757 431 757 431 727.5 445 c 128,-1,44
 698 459 698 459 655 459 c 0,45,46
 613 459 613 459 575 438.5 c 128,-1,47
 537 418 537 418 512.5 375.5 c 128,-1,48
 488 333 488 333 488 266 c 0,49,50
 488 193 488 193 514.5 148 c 128,-1,51
 541 103 541 103 582 82.5 c 128,-1,52
 623 62 623 62 667 62 c 0,53,54
 724 62 724 62 761 89.5 c 128,-1,55
 798 117 798 117 820 157 c 1,56,-1
 895 121 l 1,57,58
 863 62 863 62 806 23 c 128,-1,59
 749 -16 749 -16 663 -16 c 0,60,61
 586 -16 586 -16 529.5 20 c 128,-1,62
 473 56 473 56 443 115 c 1,63,64
 405 48 405 48 353 16 c 128,-1,65
 301 -16 301 -16 232 -16 c 0,0,1
241 60 m 0,66,67
 286 60 286 60 323 82.5 c 128,-1,68
 360 105 360 105 383 143 c 128,-1,69
 406 181 406 181 406 226 c 1,70,71
 387 239 387 239 350.5 251 c 128,-1,72
 314 263 314 263 269 263 c 0,73,74
 194 263 194 263 159.5 232.5 c 128,-1,75
 125 202 125 202 125 157 c 0,76,77
 125 114 125 114 158 87 c 128,-1,78
 191 60 191 60 241 60 c 0,66,67
EndSplineSet
EndChar

StartChar: eth
Encoding: 240 240 178
Width: 579
GlyphClass: 1
Flags: W
LayerCount: 2
UndoRedoHistory
Layer: 0
Undoes
UndoOperation
Index: 0
Type: 1
WasModified: 0
WasOrder2: 1
Layer: 2
Width: 566
VWidth: 1000
LBearingChange: 0
UnicodeEnc: 0
InstructionsLength: 0
EndUndoOperation
EndUndoes
Redoes
EndRedoes
EndUndoRedoHistory
UndoRedoHistory
Layer: 1
Undoes
UndoOperation
Index: 0
Type: 3
WasModified: 0
WasOrder2: 1
Layer: 2
EndUndoOperation
EndUndoes
Redoes
EndRedoes
EndUndoRedoHistory
Fore
SplineSet
289 -16 m 0,0,1
 219 -16 219 -16 161 19.5 c 128,-1,2
 103 55 103 55 69.5 115 c 128,-1,3
 36 175 36 175 36 246 c 0,4,5
 36 322 36 322 70.5 379.5 c 128,-1,6
 105 437 105 437 161.5 470 c 128,-1,7
 218 503 218 503 283 503 c 0,8,9
 336 503 336 503 372 483 c 128,-1,10
 408 463 408 463 423 445 c 1,11,-1
 428 449 l 1,12,13
 415 490 415 490 384 526.5 c 128,-1,14
 353 563 353 563 313 593.5 c 128,-1,15
 273 624 273 624 228 644.5 c 128,-1,16
 183 665 183 665 140 674 c 1,17,-1
 169 748 l 1,18,19
 210 737 210 737 259.5 714.5 c 128,-1,20
 309 692 309 692 359 656.5 c 128,-1,21
 409 621 409 621 451 567 c 128,-1,22
 493 513 493 513 518.5 439 c 128,-1,23
 544 365 544 365 544 266 c 0,24,25
 544 183 544 183 511.5 119 c 128,-1,26
 479 55 479 55 422 19.5 c 128,-1,27
 365 -16 365 -16 289 -16 c 0,0,1
289 67 m 0,28,29
 336 67 336 67 373.5 89.5 c 128,-1,30
 411 112 411 112 433 152.5 c 128,-1,31
 455 193 455 193 455 245 c 256,32,33
 455 297 455 297 433 337.5 c 128,-1,34
 411 378 411 378 373.5 400.5 c 128,-1,35
 336 423 336 423 291 423 c 0,36,37
 245 423 245 423 207 400.5 c 128,-1,38
 169 378 169 378 146.5 338 c 128,-1,39
 124 298 124 298 124 245 c 0,40,41
 124 193 124 193 146 152.5 c 128,-1,42
 168 112 168 112 206 89.5 c 128,-1,43
 244 67 244 67 289 67 c 0,28,29
195 525 m 1,44,-1
 168 589 l 1,45,-1
 447 713 l 1,46,-1
 474 649 l 1,47,-1
 195 525 l 1,44,-1
EndSplineSet
EndChar

StartChar: divide
Encoding: 247 247 185
Width: 555
GlyphClass: 1
Flags: W
LayerCount: 2
UndoRedoHistory
Layer: 0
Undoes
UndoOperation
Index: 0
Type: 1
WasModified: 0
WasOrder2: 1
Layer: 2
Width: 542
VWidth: 1000
LBearingChange: 0
UnicodeEnc: 0
InstructionsLength: 0
EndUndoOperation
EndUndoes
Redoes
EndRedoes
EndUndoRedoHistory
UndoRedoHistory
Layer: 1
Undoes
UndoOperation
Index: 0
Type: 3
WasModified: 0
WasOrder2: 1
Layer: 2
EndUndoOperation
EndUndoes
Redoes
EndRedoes
EndUndoRedoHistory
Fore
SplineSet
55 242 m 1,0,-1
 55 313 l 1,1,-1
 500 313 l 1,2,-1
 500 242 l 1,3,-1
 55 242 l 1,0,-1
278 20 m 256,4,5
 250 20 250 20 231 39 c 128,-1,6
 212 58 212 58 212 86 c 0,7,8
 212 113 212 113 231 132 c 128,-1,9
 250 151 250 151 278 151 c 256,10,11
 306 151 306 151 324.5 132 c 128,-1,12
 343 113 343 113 343 86 c 0,13,14
 343 58 343 58 324.5 39 c 128,-1,15
 306 20 306 20 278 20 c 256,4,5
278 404 m 256,16,17
 250 404 250 404 231 423 c 128,-1,18
 212 442 212 442 212 469 c 0,19,20
 212 497 212 497 231 516 c 128,-1,21
 250 535 250 535 278 535 c 256,22,23
 306 535 306 535 324.5 516 c 128,-1,24
 343 497 343 497 343 469 c 0,25,26
 343 442 343 442 324.5 423 c 128,-1,27
 306 404 306 404 278 404 c 256,16,17
EndSplineSet
Substitution2: "<6,0> Monospaced Numbers lookup 22 subtable" divide.tf
EndChar

StartChar: thorn
Encoding: 254 254 192
Width: 614
GlyphClass: 1
Flags: W
LayerCount: 2
UndoRedoHistory
Layer: 0
Undoes
UndoOperation
Index: 0
Type: 1
WasModified: 0
WasOrder2: 1
Layer: 2
Width: 600
VWidth: 1000
LBearingChange: 0
UnicodeEnc: 0
InstructionsLength: 0
EndUndoOperation
EndUndoes
Redoes
EndRedoes
EndUndoRedoHistory
UndoRedoHistory
Layer: 1
Undoes
UndoOperation
Index: 0
Type: 3
WasModified: 0
WasOrder2: 1
Layer: 2
EndUndoOperation
EndUndoes
Redoes
EndRedoes
EndUndoRedoHistory
Fore
SplineSet
63 -221 m 1,0,-1
 63 733 l 1,1,-1
 151 733 l 1,2,-1
 151 514 l 1,3,-1
 146 444 l 1,4,-1
 151 444 l 1,5,6
 174 481 174 481 220 510 c 128,-1,7
 266 539 266 539 329 539 c 0,8,9
 401 539 401 539 457 503 c 128,-1,10
 513 467 513 467 546 404.5 c 128,-1,11
 579 342 579 342 579 261 c 256,12,13
 579 180 579 180 546 117.5 c 128,-1,14
 513 55 513 55 456.5 19.5 c 128,-1,15
 400 -16 400 -16 329 -16 c 0,16,17
 267 -16 267 -16 220 12.5 c 128,-1,18
 173 41 173 41 151 77 c 1,19,-1
 146 77 l 1,20,-1
 151 7 l 1,21,-1
 151 -221 l 1,22,-1
 63 -221 l 1,0,-1
319 62 m 256,23,24
 364 62 364 62 403.5 86.5 c 128,-1,25
 443 111 443 111 468 156 c 128,-1,26
 493 201 493 201 493 261 c 0,27,28
 493 322 493 322 468 367 c 128,-1,29
 443 412 443 412 404 436 c 128,-1,30
 365 460 365 460 319 460 c 256,31,32
 274 460 274 460 235 436 c 128,-1,33
 196 412 196 412 171 367.5 c 128,-1,34
 146 323 146 323 146 261 c 256,35,36
 146 200 146 200 171 155.5 c 128,-1,37
 196 111 196 111 235 86.5 c 128,-1,38
 274 62 274 62 319 62 c 256,23,24
EndSplineSet
EndChar

StartChar: dotlessi
Encoding: 305 305 195
Width: 214
GlyphClass: 1
Flags: W
LayerCount: 2
UndoRedoHistory
Layer: 0
Undoes
UndoOperation
Index: 0
Type: 1
WasModified: 0
WasOrder2: 1
Layer: 2
Width: 209
VWidth: 1000
LBearingChange: 0
UnicodeEnc: 0
InstructionsLength: 0
EndUndoOperation
EndUndoes
Redoes
EndRedoes
EndUndoRedoHistory
UndoRedoHistory
Layer: 1
Undoes
UndoOperation
Index: 0
Type: 3
WasModified: 0
WasOrder2: 1
Layer: 2
EndUndoOperation
EndUndoes
Redoes
EndRedoes
EndUndoRedoHistory
Fore
SplineSet
63 0 m 1,0,-1
 63 522 l 1,1,-1
 151 522 l 1,2,-1
 151 0 l 1,3,-1
 63 0 l 1,0,-1
EndSplineSet
EndChar

StartChar: OE
Encoding: 338 338 196
Width: 1185
GlyphClass: 1
Flags: W
LayerCount: 2
UndoRedoHistory
Layer: 0
Undoes
UndoOperation
Index: 0
Type: 1
WasModified: 0
WasOrder2: 1
Layer: 2
Width: 1158
VWidth: 1000
LBearingChange: 0
UnicodeEnc: 0
InstructionsLength: 0
EndUndoOperation
EndUndoes
Redoes
EndRedoes
EndUndoRedoHistory
UndoRedoHistory
Layer: 1
Undoes
UndoOperation
Index: 0
Type: 3
WasModified: 0
WasOrder2: 1
Layer: 2
EndUndoOperation
EndUndoes
Redoes
EndRedoes
EndUndoRedoHistory
Fore
SplineSet
421 -16 m 0,0,1
 340 -16 340 -16 271.5 13.5 c 128,-1,2
 203 43 203 43 152 95 c 128,-1,3
 101 147 101 147 73 217 c 128,-1,4
 45 287 45 287 45 367 c 256,5,6
 45 447 45 447 73 516 c 128,-1,7
 101 585 101 585 152 637.5 c 128,-1,8
 203 690 203 690 271.5 720 c 128,-1,9
 340 750 340 750 421 750 c 0,10,11
 515 750 515 750 588.5 711.5 c 128,-1,12
 662 673 662 673 709 608 c 1,13,-1
 709 608 l 1,14,15
 709 608 709 608 709 733 c 1,16,17
 709 733 709 733 1134 733 c 1,18,19
 1134 733 1134 733 1134 650 c 1,20,21
 1134 650 1134 650 796 650 c 1,22,23
 796 650 796 650 796 83 c 1,24,25
 796 83 796 83 1134 83 c 1,26,27
 1134 83 1134 83 1134 0 c 1,28,29
 1134 0 1134 0 709 0 c 1,30,31
 709 0 709 0 709 124 c 1,32,33
 709 124 709 124 709 124 c 1,34,35
 678 82 678 82 634.5 50 c 128,-1,36
 591 18 591 18 537 1 c 128,-1,37
 483 -16 483 -16 421 -16 c 0,0,1
421 67 m 0,38,39
 501 67 501 67 566 104.5 c 128,-1,40
 631 142 631 142 670 210.5 c 128,-1,41
 709 279 709 279 709 367 c 0,42,43
 709 456 709 456 670 523.5 c 128,-1,44
 631 591 631 591 566 629 c 128,-1,45
 501 667 501 667 421 667 c 0,46,47
 342 667 342 667 276.5 629 c 128,-1,48
 211 591 211 591 172 523.5 c 128,-1,49
 133 456 133 456 133 367 c 0,50,51
 133 279 133 279 172 210.5 c 128,-1,52
 211 142 211 142 276.5 104.5 c 128,-1,53
 342 67 342 67 421 67 c 0,38,39
755 326 m 1,54,55
 755 326 755 326 755 408 c 1,56,57
 755 408 755 408 1101 408 c 1,58,59
 1101 408 1101 408 1101 326 c 1,60,61
 1101 326 1101 326 755 326 c 1,54,55
EndSplineSet
EndChar

StartChar: oe
Encoding: 339 339 197
Width: 1025
GlyphClass: 1
Flags: W
LayerCount: 2
UndoRedoHistory
Layer: 0
Undoes
UndoOperation
Index: 0
Type: 1
WasModified: 0
WasOrder2: 1
Layer: 2
Width: 1001
VWidth: 1000
LBearingChange: 0
UnicodeEnc: 0
InstructionsLength: 0
EndUndoOperation
EndUndoes
Redoes
EndRedoes
EndUndoRedoHistory
UndoRedoHistory
Layer: 1
Undoes
UndoOperation
Index: 0
Type: 3
WasModified: 0
WasOrder2: 1
Layer: 2
EndUndoOperation
EndUndoes
Redoes
EndRedoes
EndUndoRedoHistory
Fore
SplineSet
304 -16 m 0,0,1
 225 -16 225 -16 164.5 20.5 c 128,-1,2
 104 57 104 57 70 120 c 128,-1,3
 36 183 36 183 36 261 c 256,4,5
 36 339 36 339 70 402 c 128,-1,6
 104 465 104 465 164.5 502 c 128,-1,7
 225 539 225 539 304 539 c 0,8,9
 379 539 379 539 437 504.5 c 128,-1,10
 495 470 495 470 528 410 c 1,11,12
 560 469 560 469 614 504 c 128,-1,13
 668 539 668 539 739 539 c 0,14,15
 817 539 817 539 873 504.5 c 128,-1,16
 929 470 929 470 959 409.5 c 128,-1,17
 989 349 989 349 989 271 c 0,18,19
 989 264 989 264 988.5 257 c 128,-1,20
 988 250 988 250 987 245 c 1,21,-1
 538 245 l 1,22,-1
 538 316 l 1,23,-1
 897 316 l 1,24,25
 896 338 896 338 887.5 363 c 128,-1,26
 879 388 879 388 860 410 c 128,-1,27
 841 432 841 432 811.5 446 c 128,-1,28
 782 460 782 460 739 460 c 0,29,30
 697 460 697 460 659.5 439 c 128,-1,31
 622 418 622 418 598 374.5 c 128,-1,32
 574 331 574 331 574 262 c 0,33,34
 574 209 574 209 589.5 171 c 128,-1,35
 605 133 605 133 630.5 109 c 128,-1,36
 656 85 656 85 687.5 73.5 c 128,-1,37
 719 62 719 62 751 62 c 0,38,39
 808 62 808 62 845 89.5 c 128,-1,40
 882 117 882 117 904 157 c 1,41,-1
 979 121 l 1,42,43
 947 62 947 62 890 23 c 128,-1,44
 833 -16 833 -16 746 -16 c 0,45,46
 674 -16 674 -16 617 18 c 128,-1,47
 560 52 560 52 527 113 c 1,48,49
 494 53 494 53 436 18.5 c 128,-1,50
 378 -16 378 -16 304 -16 c 0,0,1
304 62 m 256,51,52
 351 62 351 62 392.5 86 c 128,-1,53
 434 110 434 110 459.5 154.5 c 128,-1,54
 485 199 485 199 485 261 c 256,55,56
 485 323 485 323 459.5 368 c 128,-1,57
 434 413 434 413 392.5 436.5 c 128,-1,58
 351 460 351 460 304 460 c 256,59,60
 257 460 257 460 215 436.5 c 128,-1,61
 173 413 173 413 147.5 368.5 c 128,-1,62
 122 324 122 324 122 261 c 256,63,64
 122 199 122 199 147.5 154.5 c 128,-1,65
 173 110 173 110 215 86 c 128,-1,66
 257 62 257 62 304 62 c 256,51,52
EndSplineSet
EndChar

StartChar: gravecomb
Encoding: 768 768 202
Width: 0
GlyphClass: 1
Flags: W
LayerCount: 2
UndoRedoHistory
Layer: 0
Undoes
UndoOperation
Index: 0
Type: 1
WasModified: 0
WasOrder2: 1
Layer: 2
Width: 0
VWidth: 1000
LBearingChange: 0
UnicodeEnc: 0
InstructionsLength: 0
EndUndoOperation
EndUndoes
Redoes
EndRedoes
EndUndoRedoHistory
UndoRedoHistory
Layer: 1
Undoes
UndoOperation
Index: 0
Type: 3
WasModified: 0
WasOrder2: 1
Layer: 2
EndUndoOperation
EndUndoes
Redoes
EndRedoes
EndUndoRedoHistory
Fore
SplineSet
172 629 m 1,0,-1
 100 754 l 1,1,-1
 196 754 l 1,2,-1
 249 629 l 1,3,-1
 172 629 l 1,0,-1
EndSplineSet
EndChar

StartChar: acutecomb
Encoding: 769 769 203
Width: 0
GlyphClass: 1
Flags: W
LayerCount: 2
UndoRedoHistory
Layer: 0
Undoes
UndoOperation
Index: 0
Type: 1
WasModified: 0
WasOrder2: 1
Layer: 2
Width: 0
VWidth: 1000
LBearingChange: 0
UnicodeEnc: 0
InstructionsLength: 0
EndUndoOperation
EndUndoes
Redoes
EndRedoes
EndUndoRedoHistory
UndoRedoHistory
Layer: 1
Undoes
UndoOperation
Index: 0
Type: 3
WasModified: 0
WasOrder2: 1
Layer: 2
EndUndoOperation
EndUndoes
Redoes
EndRedoes
EndUndoRedoHistory
Fore
SplineSet
159 629 m 1,0,-1
 212 754 l 1,1,-1
 307 754 l 1,2,-1
 234 629 l 1,3,-1
 159 629 l 1,0,-1
EndSplineSet
EndChar

StartChar: tildecomb
Encoding: 771 771 204
Width: 0
GlyphClass: 1
Flags: W
LayerCount: 2
UndoRedoHistory
Layer: 0
Undoes
UndoOperation
Index: 0
Type: 1
WasModified: 0
WasOrder2: 1
Layer: 2
Width: 0
VWidth: 1000
LBearingChange: 0
UnicodeEnc: 0
InstructionsLength: 0
EndUndoOperation
EndUndoes
Redoes
EndRedoes
EndUndoRedoHistory
UndoRedoHistory
Layer: 1
Undoes
UndoOperation
Index: 0
Type: 3
WasModified: 0
WasOrder2: 1
Layer: 2
EndUndoOperation
EndUndoes
Redoes
EndRedoes
EndUndoRedoHistory
Fore
SplineSet
265 635 m 0,0,1
 245 635 245 635 224 644.5 c 128,-1,2
 203 654 203 654 185 665 c 0,3,4
 173 673 173 673 163 678 c 128,-1,5
 153 683 153 683 142 683 c 0,6,7
 126 683 126 683 117 674 c 128,-1,8
 108 665 108 665 105 645 c 1,9,-1
 34 645 l 1,10,11
 34 686 34 686 51.5 710.5 c 128,-1,12
 69 735 69 735 94.5 746 c 128,-1,13
 120 757 120 757 143 757 c 0,14,15
 165 757 165 757 185.5 747 c 128,-1,16
 206 737 206 737 223 726 c 0,17,18
 234 719 234 719 245 714 c 128,-1,19
 256 709 256 709 265 709 c 0,20,21
 281 709 281 709 291 718 c 128,-1,22
 301 727 301 727 302 746 c 1,23,-1
 374 746 l 1,24,25
 374 705 374 705 357 680.5 c 128,-1,26
 340 656 340 656 315 645.5 c 128,-1,27
 290 635 290 635 265 635 c 0,0,1
EndSplineSet
EndChar

StartChar: uni0304
Encoding: 772 772 205
Width: 0
GlyphClass: 1
Flags: W
LayerCount: 2
UndoRedoHistory
Layer: 0
Undoes
UndoOperation
Index: 0
Type: 1
WasModified: 0
WasOrder2: 1
Layer: 2
Width: 0
VWidth: 1000
LBearingChange: 0
UnicodeEnc: 0
InstructionsLength: 0
EndUndoOperation
EndUndoes
Redoes
EndRedoes
EndUndoRedoHistory
UndoRedoHistory
Layer: 1
Undoes
UndoOperation
Index: 0
Type: 3
WasModified: 0
WasOrder2: 1
Layer: 2
EndUndoOperation
EndUndoes
Redoes
EndRedoes
EndUndoRedoHistory
Fore
SplineSet
62 660 m 1,0,-1
 62 729 l 1,1,-1
 346 729 l 1,2,-1
 346 660 l 1,3,-1
 62 660 l 1,0,-1
EndSplineSet
EndChar

StartChar: uni0308
Encoding: 776 776 206
Width: 0
GlyphClass: 1
Flags: W
LayerCount: 2
UndoRedoHistory
Layer: 0
Undoes
UndoOperation
Index: 0
Type: 1
WasModified: 0
WasOrder2: 1
Layer: 2
Width: 0
VWidth: 1000
LBearingChange: 0
UnicodeEnc: 0
InstructionsLength: 0
EndUndoOperation
EndUndoes
Redoes
EndRedoes
EndUndoRedoHistory
UndoRedoHistory
Layer: 1
Undoes
UndoOperation
Index: 0
Type: 3
WasModified: 0
WasOrder2: 1
Layer: 2
EndUndoOperation
EndUndoes
Redoes
EndRedoes
EndUndoRedoHistory
Fore
SplineSet
285 640 m 0,0,1
 263 640 263 640 246 656.5 c 128,-1,2
 229 673 229 673 229 695 c 0,3,4
 229 719 229 719 246 734.5 c 128,-1,5
 263 750 263 750 285 750 c 0,6,7
 309 750 309 750 324 734.5 c 128,-1,8
 339 719 339 719 339 695 c 0,9,10
 339 672 339 672 324 656 c 128,-1,11
 309 640 309 640 285 640 c 0,0,1
117 640 m 0,12,13
 94 640 94 640 77.5 656.5 c 128,-1,14
 61 673 61 673 61 695 c 0,15,16
 61 719 61 719 77.5 734.5 c 128,-1,17
 94 750 94 750 117 750 c 0,18,19
 141 750 141 750 156 734.5 c 128,-1,20
 171 719 171 719 171 695 c 0,21,22
 171 672 171 672 156 656 c 128,-1,23
 141 640 141 640 117 640 c 0,12,13
EndSplineSet
EndChar

StartChar: hookabovecomb
Encoding: 777 777 207
Width: 0
GlyphClass: 1
Flags: W
LayerCount: 2
UndoRedoHistory
Layer: 0
Undoes
UndoOperation
Index: 0
Type: 1
WasModified: 0
WasOrder2: 1
Layer: 2
Width: 0
VWidth: 1000
LBearingChange: 0
UnicodeEnc: 0
InstructionsLength: 0
EndUndoOperation
EndUndoes
Redoes
EndRedoes
EndUndoRedoHistory
UndoRedoHistory
Layer: 1
Undoes
UndoOperation
Index: 0
Type: 3
WasModified: 0
WasOrder2: 1
Layer: 2
EndUndoOperation
EndUndoes
Redoes
EndRedoes
EndUndoRedoHistory
Fore
SplineSet
76 588 m 1,0,-1
 60 642 l 1,1,2
 90 650 90 650 105 661.5 c 128,-1,3
 120 673 120 673 120 695 c 0,4,5
 120 712 120 712 108.5 722.5 c 128,-1,6
 97 733 97 733 74 733 c 0,7,8
 59 733 59 733 44 729.5 c 128,-1,9
 29 726 29 726 17 721 c 1,10,-1
 0 776 l 1,11,12
 14 784 14 784 36.5 790.5 c 128,-1,13
 59 797 59 797 82 797 c 0,14,15
 132 797 132 797 159.5 770.5 c 128,-1,16
 187 744 187 744 187 699 c 0,17,18
 187 649 187 649 155.5 622.5 c 128,-1,19
 124 596 124 596 76 588 c 1,0,-1
EndSplineSet
EndChar

StartChar: dotbelowcomb
Encoding: 803 803 208
Width: 0
GlyphClass: 1
Flags: W
LayerCount: 2
UndoRedoHistory
Layer: 0
Undoes
UndoOperation
Index: 0
Type: 1
WasModified: 0
WasOrder2: 1
Layer: 2
Width: 0
VWidth: 1000
LBearingChange: 0
UnicodeEnc: 0
InstructionsLength: 0
EndUndoOperation
EndUndoes
Redoes
EndRedoes
EndUndoRedoHistory
UndoRedoHistory
Layer: 1
Undoes
UndoOperation
Index: 0
Type: 3
WasModified: 0
WasOrder2: 1
Layer: 2
EndUndoOperation
EndUndoes
Redoes
EndRedoes
EndUndoRedoHistory
Fore
SplineSet
117 -197 m 0,0,1
 94 -197 94 -197 77.5 -180.5 c 128,-1,2
 61 -164 61 -164 61 -141 c 0,3,4
 61 -117 61 -117 77.5 -102 c 128,-1,5
 94 -87 94 -87 117 -87 c 0,6,7
 141 -87 141 -87 156 -102.5 c 128,-1,8
 171 -118 171 -118 171 -141 c 0,9,10
 171 -164 171 -164 156 -180.5 c 128,-1,11
 141 -197 141 -197 117 -197 c 0,0,1
EndSplineSet
EndChar

StartChar: endash
Encoding: 8211 8211 212
Width: 614
GlyphClass: 1
Flags: W
LayerCount: 2
UndoRedoHistory
Layer: 0
Undoes
UndoOperation
Index: 0
Type: 1
WasModified: 0
WasOrder2: 1
Layer: 2
Width: 600
VWidth: 1000
LBearingChange: 0
UnicodeEnc: 0
InstructionsLength: 0
EndUndoOperation
EndUndoes
Redoes
EndRedoes
EndUndoRedoHistory
UndoRedoHistory
Layer: 1
Undoes
UndoOperation
Index: 0
Type: 3
WasModified: 0
WasOrder2: 1
Layer: 2
EndUndoOperation
EndUndoes
Redoes
EndRedoes
EndUndoRedoHistory
Fore
SplineSet
63 282 m 1,0,-1
 63 353 l 1,1,-1
 551 353 l 1,2,-1
 551 282 l 1,3,-1
 63 282 l 1,0,-1
EndSplineSet
EndChar

StartChar: emdash
Encoding: 8212 8212 213
Width: 921
GlyphClass: 1
Flags: W
LayerCount: 2
UndoRedoHistory
Layer: 0
Undoes
UndoOperation
Index: 0
Type: 1
WasModified: 0
WasOrder2: 1
Layer: 2
Width: 900
VWidth: 1000
LBearingChange: 0
UnicodeEnc: 0
InstructionsLength: 0
EndUndoOperation
EndUndoes
Redoes
EndRedoes
EndUndoRedoHistory
UndoRedoHistory
Layer: 1
Undoes
UndoOperation
Index: 0
Type: 3
WasModified: 0
WasOrder2: 1
Layer: 2
EndUndoOperation
EndUndoes
Redoes
EndRedoes
EndUndoRedoHistory
Fore
SplineSet
63 282 m 1,0,-1
 63 353 l 1,1,-1
 858 353 l 1,2,-1
 858 282 l 1,3,-1
 63 282 l 1,0,-1
EndSplineSet
EndChar

StartChar: quoteleft
Encoding: 8216 8216 214
Width: 227
GlyphClass: 1
Flags: W
LayerCount: 2
UndoRedoHistory
Layer: 0
Undoes
UndoOperation
Index: 0
Type: 1
WasModified: 0
WasOrder2: 1
Layer: 2
Width: 222
VWidth: 1000
LBearingChange: 0
UnicodeEnc: 0
InstructionsLength: 0
EndUndoOperation
EndUndoes
Redoes
EndRedoes
EndUndoRedoHistory
UndoRedoHistory
Layer: 1
Undoes
UndoOperation
Index: 0
Type: 3
WasModified: 0
WasOrder2: 1
Layer: 2
EndUndoOperation
EndUndoes
Redoes
EndRedoes
EndUndoRedoHistory
Fore
SplineSet
139 750 m 1,0,-1
 180 723 l 1,1,-1
 130 646 l 1,2,3
 147 643 147 643 162 628 c 128,-1,4
 177 613 177 613 177 588 c 0,5,6
 177 560 177 560 158 541 c 128,-1,7
 139 522 139 522 113 522 c 0,8,9
 100 522 100 522 87.5 527 c 128,-1,10
 75 532 75 532 66 541 c 128,-1,11
 57 550 57 550 52 562 c 128,-1,12
 47 574 47 574 47 588 c 0,13,14
 47 600 47 600 50.5 612 c 128,-1,15
 54 624 54 624 61 635 c 128,-1,16
 68 646 68 646 75 656 c 2,17,-1
 139 750 l 1,0,-1
EndSplineSet
EndChar

StartChar: quoteright
Encoding: 8217 8217 215
Width: 227
GlyphClass: 1
Flags: W
LayerCount: 2
UndoRedoHistory
Layer: 0
Undoes
UndoOperation
Index: 0
Type: 1
WasModified: 0
WasOrder2: 1
Layer: 2
Width: 222
VWidth: 1000
LBearingChange: 0
UnicodeEnc: 0
InstructionsLength: 0
EndUndoOperation
EndUndoes
Redoes
EndRedoes
EndUndoRedoHistory
UndoRedoHistory
Layer: 1
Undoes
UndoOperation
Index: 0
Type: 3
WasModified: 0
WasOrder2: 1
Layer: 2
EndUndoOperation
EndUndoes
Redoes
EndRedoes
EndUndoRedoHistory
Fore
SplineSet
47 549 m 1,0,-1
 101 626 l 1,1,2
 82 630 82 630 66 644 c 128,-1,3
 50 658 50 658 50 684 c 0,4,5
 50 712 50 712 69 731 c 128,-1,6
 88 750 88 750 115 750 c 0,7,8
 129 750 129 750 141 744.5 c 128,-1,9
 153 739 153 739 161.5 730.5 c 128,-1,10
 170 722 170 722 175 710 c 128,-1,11
 180 698 180 698 180 684 c 0,12,13
 180 672 180 672 176 660.5 c 128,-1,14
 172 649 172 649 166 638 c 128,-1,15
 160 627 160 627 153 615 c 2,16,-1
 88 522 l 1,17,-1
 47 549 l 1,0,-1
EndSplineSet
EndChar

StartChar: bullet
Encoding: 8226 8226 220
Width: 388
GlyphClass: 1
Flags: W
LayerCount: 2
UndoRedoHistory
Layer: 0
Undoes
UndoOperation
Index: 0
Type: 1
WasModified: 0
WasOrder2: 1
Layer: 2
Width: 379
VWidth: 1000
LBearingChange: 0
UnicodeEnc: 0
InstructionsLength: 0
EndUndoOperation
EndUndoes
Redoes
EndRedoes
EndUndoRedoHistory
UndoRedoHistory
Layer: 1
Undoes
UndoOperation
Index: 0
Type: 3
WasModified: 0
WasOrder2: 1
Layer: 2
EndUndoOperation
EndUndoes
Redoes
EndRedoes
EndUndoRedoHistory
Fore
SplineSet
195 216 m 256,0,1
 163 216 163 216 137 232 c 128,-1,2
 111 248 111 248 95 274 c 128,-1,3
 79 300 79 300 79 332 c 256,4,5
 79 364 79 364 95 390 c 128,-1,6
 111 416 111 416 137 431.5 c 128,-1,7
 163 447 163 447 195 447 c 256,8,9
 227 447 227 447 252.5 431.5 c 128,-1,10
 278 416 278 416 293.5 390 c 128,-1,11
 309 364 309 364 309 332 c 256,12,13
 309 300 309 300 293.5 274 c 128,-1,14
 278 248 278 248 252.5 232 c 128,-1,15
 227 216 227 216 195 216 c 256,0,1
EndSplineSet
EndChar

StartChar: minute
Encoding: 8242 8242 222
Width: 278
GlyphClass: 1
Flags: W
LayerCount: 2
UndoRedoHistory
Layer: 0
Undoes
UndoOperation
Index: 0
Type: 1
WasModified: 0
WasOrder2: 1
Layer: 2
Width: 272
VWidth: 1000
LBearingChange: 0
UnicodeEnc: 0
InstructionsLength: 0
EndUndoOperation
EndUndoes
Redoes
EndRedoes
EndUndoRedoHistory
UndoRedoHistory
Layer: 1
Undoes
UndoOperation
Index: 0
Type: 3
WasModified: 0
WasOrder2: 1
Layer: 2
EndUndoOperation
EndUndoes
Redoes
EndRedoes
EndUndoRedoHistory
Fore
SplineSet
67 401 m 1,0,-1
 117 700 l 1,1,-1
 213 700 l 1,2,-1
 136 401 l 1,3,-1
 67 401 l 1,0,-1
EndSplineSet
EndChar

StartChar: guilsinglleft
Encoding: 8249 8249 224
Width: 354
GlyphClass: 1
Flags: W
LayerCount: 2
UndoRedoHistory
Layer: 0
Undoes
UndoOperation
Index: 0
Type: 1
WasModified: 0
WasOrder2: 1
Layer: 2
Width: 346
VWidth: 1000
LBearingChange: 0
UnicodeEnc: 0
InstructionsLength: 0
EndUndoOperation
EndUndoes
Redoes
EndRedoes
EndUndoRedoHistory
UndoRedoHistory
Layer: 1
Undoes
UndoOperation
Index: 0
Type: 3
WasModified: 0
WasOrder2: 1
Layer: 2
EndUndoOperation
EndUndoes
Redoes
EndRedoes
EndUndoRedoHistory
Fore
SplineSet
244 55 m 1,0,-1
 39 278 l 1,1,-1
 244 500 l 1,2,-1
 295 453 l 1,3,-1
 130 278 l 1,4,-1
 295 102 l 1,5,-1
 244 55 l 1,0,-1
EndSplineSet
Substitution2: "'rtla' Right to Left Alternates lookup 0 subtable" guilsinglright
EndChar

StartChar: guilsinglright
Encoding: 8250 8250 225
Width: 354
GlyphClass: 1
Flags: W
LayerCount: 2
UndoRedoHistory
Layer: 0
Undoes
UndoOperation
Index: 0
Type: 1
WasModified: 0
WasOrder2: 1
Layer: 2
Width: 346
VWidth: 1000
LBearingChange: 0
UnicodeEnc: 0
InstructionsLength: 0
EndUndoOperation
EndUndoes
Redoes
EndRedoes
EndUndoRedoHistory
UndoRedoHistory
Layer: 1
Undoes
UndoOperation
Index: 0
Type: 3
WasModified: 0
WasOrder2: 1
Layer: 2
EndUndoOperation
EndUndoes
Redoes
EndRedoes
EndUndoRedoHistory
Fore
SplineSet
111 55 m 1,0,-1
 59 102 l 1,1,-1
 223 278 l 1,2,-1
 59 453 l 1,3,-1
 111 500 l 1,4,-1
 315 278 l 1,5,-1
 111 55 l 1,0,-1
EndSplineSet
Substitution2: "'rtla' Right to Left Alternates lookup 0 subtable" guilsinglleft
EndChar

StartChar: fraction
Encoding: 8260 8260 226
Width: 175
GlyphClass: 1
Flags: W
LayerCount: 2
UndoRedoHistory
Layer: 0
Undoes
UndoOperation
Index: 0
Type: 1
WasModified: 0
WasOrder2: 1
Layer: 2
Width: 171
VWidth: 1000
LBearingChange: 0
UnicodeEnc: 0
InstructionsLength: 0
EndUndoOperation
EndUndoes
Redoes
EndRedoes
EndUndoRedoHistory
UndoRedoHistory
Layer: 1
Undoes
UndoOperation
Index: 0
Type: 3
WasModified: 0
WasOrder2: 1
Layer: 2
EndUndoOperation
EndUndoes
Redoes
EndRedoes
EndUndoRedoHistory
Fore
SplineSet
-124 -7 m 1,0,-1
 -178 29 l 1,1,-1
 299 740 l 1,2,-1
 353 703 l 1,3,-1
 -124 -7 l 1,0,-1
EndSplineSet
EndChar

StartChar: Euro
Encoding: 8364 8364 227
Width: 649
GlyphClass: 1
Flags: W
LayerCount: 2
UndoRedoHistory
Layer: 0
Undoes
UndoOperation
Index: 0
Type: 1
WasModified: 0
WasOrder2: 1
Layer: 2
Width: 634
VWidth: 1000
LBearingChange: 0
UnicodeEnc: 0
InstructionsLength: 0
EndUndoOperation
EndUndoes
Redoes
EndRedoes
EndUndoRedoHistory
UndoRedoHistory
Layer: 1
Undoes
UndoOperation
Index: 0
Type: 3
WasModified: 0
WasOrder2: 1
Layer: 2
EndUndoOperation
EndUndoes
Redoes
EndRedoes
EndUndoRedoHistory
Fore
SplineSet
454 -16 m 0,0,1
 383 -16 383 -16 320.5 11 c 128,-1,2
 258 38 258 38 211 88.5 c 128,-1,3
 164 139 164 139 137.5 209.5 c 128,-1,4
 111 280 111 280 111 367 c 0,5,6
 111 453 111 453 137.5 523.5 c 128,-1,7
 164 594 164 594 211.5 644 c 128,-1,8
 259 694 259 694 321 721.5 c 128,-1,9
 383 749 383 749 454 749 c 0,10,11
 494 749 494 749 533.5 737 c 128,-1,12
 573 725 573 725 605 703 c 1,13,-1
 564 635 l 1,14,15
 545 647 545 647 527 653.5 c 128,-1,16
 509 660 509 660 490.5 663 c 128,-1,17
 472 666 472 666 453 666 c 0,18,19
 404 666 404 666 358 647.5 c 128,-1,20
 312 629 312 629 276.5 591 c 128,-1,21
 241 553 241 553 220 497 c 128,-1,22
 199 441 199 441 199 366 c 0,23,24
 199 291 199 291 220 234.5 c 128,-1,25
 241 178 241 178 276.5 140.5 c 128,-1,26
 312 103 312 103 357.5 84.5 c 128,-1,27
 403 66 403 66 454 66 c 0,28,29
 490 66 490 66 521 75 c 128,-1,30
 552 84 552 84 581 100 c 1,31,-1
 621 28 l 1,32,33
 585 6 585 6 542 -5 c 128,-1,34
 499 -16 499 -16 454 -16 c 0,0,1
29 249 m 1,35,-1
 29 321 l 1,36,-1
 451 321 l 1,37,-1
 451 249 l 1,38,-1
 29 249 l 1,35,-1
29 414 m 1,39,-1
 29 485 l 1,40,-1
 451 485 l 1,41,-1
 451 414 l 1,42,-1
 29 414 l 1,39,-1
EndSplineSet
Substitution2: "<6,0> Monospaced Numbers lookup 22 subtable" Euro.tf
EndChar

StartChar: trademark
Encoding: 8482 8482 228
Width: 508
GlyphClass: 1
Flags: W
LayerCount: 2
UndoRedoHistory
Layer: 0
Undoes
UndoOperation
Index: 0
Type: 1
WasModified: 0
WasOrder2: 1
Layer: 2
Width: 497
VWidth: 1000
LBearingChange: 0
UnicodeEnc: 0
InstructionsLength: 0
EndUndoOperation
EndUndoes
Redoes
EndRedoes
EndUndoRedoHistory
UndoRedoHistory
Layer: 1
Undoes
UndoOperation
Index: 0
Type: 3
WasModified: 0
WasOrder2: 1
Layer: 2
EndUndoOperation
EndUndoes
Redoes
EndRedoes
EndUndoRedoHistory
Fore
SplineSet
229 502 m 1,0,-1
 229 733 l 1,1,-1
 291 733 l 1,2,-1
 356 565 l 1,3,-1
 358 565 l 1,4,-1
 424 733 l 1,5,-1
 485 733 l 1,6,-1
 485 502 l 1,7,-1
 442 502 l 1,8,-1
 442 627 l 1,9,-1
 444 672 l 1,10,-1
 442 672 l 1,11,-1
 373 502 l 1,12,-1
 342 502 l 1,13,-1
 272 672 l 1,14,-1
 270 672 l 1,15,-1
 272 627 l 1,16,-1
 272 502 l 1,17,-1
 229 502 l 1,0,-1
78 502 m 1,18,-1
 78 692 l 1,19,-1
 7 692 l 1,20,-1
 7 733 l 1,21,-1
 190 733 l 1,22,-1
 190 692 l 1,23,-1
 123 692 l 1,24,-1
 123 502 l 1,25,-1
 78 502 l 1,18,-1
EndSplineSet
EndChar

StartChar: arrowup
Encoding: 8593 8593 229
Width: 461
GlyphClass: 1
Flags: W
LayerCount: 2
UndoRedoHistory
Layer: 0
Undoes
UndoOperation
Index: 0
Type: 1
WasModified: 0
WasOrder2: 1
Layer: 2
Width: 451
VWidth: 1000
LBearingChange: 0
UnicodeEnc: 0
InstructionsLength: 0
EndUndoOperation
EndUndoes
Redoes
EndRedoes
EndUndoRedoHistory
UndoRedoHistory
Layer: 1
Undoes
UndoOperation
Index: 0
Type: 3
WasModified: 0
WasOrder2: 1
Layer: 2
EndUndoOperation
EndUndoes
Redoes
EndRedoes
EndUndoRedoHistory
Fore
SplineSet
195 -120 m 1,0,-1
 195 646 l 1,1,-1
 40 646 l 1,2,-1
 230 837 l 1,3,-1
 422 646 l 1,4,-1
 266 646 l 1,5,-1
 266 -120 l 1,6,-1
 195 -120 l 1,0,-1
EndSplineSet
EndChar

StartChar: arrowdown
Encoding: 8595 8595 230
Width: 461
GlyphClass: 1
Flags: W
LayerCount: 2
UndoRedoHistory
Layer: 0
Undoes
UndoOperation
Index: 0
Type: 1
WasModified: 0
WasOrder2: 1
Layer: 2
Width: 451
VWidth: 1000
LBearingChange: 0
UnicodeEnc: 0
InstructionsLength: 0
EndUndoOperation
EndUndoes
Redoes
EndRedoes
EndUndoRedoHistory
UndoRedoHistory
Layer: 1
Undoes
UndoOperation
Index: 0
Type: 3
WasModified: 0
WasOrder2: 1
Layer: 2
EndUndoOperation
EndUndoes
Redoes
EndRedoes
EndUndoRedoHistory
Fore
SplineSet
230 -148 m 1,0,-1
 40 42 l 1,1,-1
 195 42 l 1,2,-1
 195 808 l 1,3,-1
 266 808 l 1,4,-1
 266 42 l 1,5,-1
 422 42 l 1,6,-1
 230 -148 l 1,0,-1
EndSplineSet
EndChar

StartChar: minus
Encoding: 8722 8722 231
Width: 569
GlyphClass: 1
Flags: W
LayerCount: 2
UndoRedoHistory
Layer: 0
Undoes
UndoOperation
Index: 0
Type: 1
WasModified: 0
WasOrder2: 1
Layer: 2
Width: 556
VWidth: 1000
LBearingChange: 0
UnicodeEnc: 0
InstructionsLength: 0
EndUndoOperation
EndUndoes
Redoes
EndRedoes
EndUndoRedoHistory
UndoRedoHistory
Layer: 1
Undoes
UndoOperation
Index: 0
Type: 3
WasModified: 0
WasOrder2: 1
Layer: 2
EndUndoOperation
EndUndoes
Redoes
EndRedoes
EndUndoRedoHistory
Fore
SplineSet
62 242 m 1,0,-1
 62 313 l 1,1,-1
 507 313 l 1,2,-1
 507 242 l 1,3,-1
 62 242 l 1,0,-1
EndSplineSet
Substitution2: "<6,0> Monospaced Numbers lookup 22 subtable" minus.tf
EndChar

StartChar: uniFFFD
Encoding: 65533 65533 234
Width: 1075
GlyphClass: 1
Flags: W
LayerCount: 2
UndoRedoHistory
Layer: 0
Undoes
UndoOperation
Index: 0
Type: 1
WasModified: 0
WasOrder2: 1
Layer: 2
Width: 1050
VWidth: 1000
LBearingChange: 0
UnicodeEnc: 0
InstructionsLength: 0
EndUndoOperation
EndUndoes
Redoes
EndRedoes
EndUndoRedoHistory
UndoRedoHistory
Layer: 1
Undoes
UndoOperation
Index: 0
Type: 3
WasModified: 0
WasOrder2: 1
Layer: 2
EndUndoOperation
EndUndoes
Redoes
EndRedoes
EndUndoRedoHistory
Fore
SplineSet
538 -135 m 1,0,-1
 0 402 l 1,1,-1
 538 940 l 1,2,-1
 1075 402 l 1,3,-1
 538 -135 l 1,0,-1
532 -278 m 1,4,-1
 532 -275 l 1,5,-1
 535 -275 l 1,6,-1
 535 -278 l 1,7,-1
 532 -278 l 1,4,-1
538 45 m 0,8,9
 562 45 562 45 577.5 61.5 c 128,-1,10
 593 78 593 78 593 100 c 0,11,12
 593 124 593 124 577 140 c 128,-1,13
 561 156 561 156 538 156 c 0,14,15
 515 156 515 156 498.5 140 c 128,-1,16
 482 124 482 124 482 100 c 0,17,18
 482 77 482 77 498.5 61 c 128,-1,19
 515 45 515 45 538 45 c 0,8,9
500 234 m 1,20,-1
 575 234 l 1,21,-1
 575 270 l 2,22,23
 575 303 575 303 589 326.5 c 128,-1,24
 603 350 603 350 631 376 c 0,25,26
 646 389 646 389 666 410 c 128,-1,27
 686 431 686 431 701 459.5 c 128,-1,28
 716 488 716 488 716 524 c 0,29,30
 716 571 716 571 694 608 c 128,-1,31
 672 645 672 645 632 666.5 c 128,-1,32
 592 688 592 688 539 688 c 0,33,34
 488 688 488 688 452 667.5 c 128,-1,35
 416 647 416 647 394.5 617.5 c 128,-1,36
 373 588 373 588 362 560 c 1,37,-1
 430 531 l 1,38,39
 441 561 441 561 466.5 589 c 128,-1,40
 492 617 492 617 539 617 c 0,41,42
 587 617 587 617 614 591.5 c 128,-1,43
 641 566 641 566 641 524 c 0,44,45
 641 489 641 489 623 466 c 128,-1,46
 605 443 605 443 575 417 c 0,47,48
 534 379 534 379 517 350 c 128,-1,49
 500 321 500 321 500 275 c 2,50,-1
 500 234 l 1,20,-1
532 1079 m 1,51,-1
 532 1081 l 1,52,-1
 535 1081 l 1,53,-1
 535 1079 l 1,54,-1
 532 1079 l 1,51,-1
EndSplineSet
EndChar

StartChar: G.logo
Encoding: 65539 -1 236
Width: 881
GlyphClass: 1
Flags: W
LayerCount: 2
UndoRedoHistory
Layer: 0
Undoes
UndoOperation
Index: 0
Type: 1
WasModified: 0
WasOrder2: 1
Layer: 2
Width: 861
VWidth: 1000
LBearingChange: 0
UnicodeEnc: 0
InstructionsLength: 0
EndUndoOperation
EndUndoes
Redoes
EndRedoes
EndUndoRedoHistory
UndoRedoHistory
Layer: 1
Undoes
UndoOperation
Index: 0
Type: 3
WasModified: 0
WasOrder2: 1
Layer: 2
EndUndoOperation
EndUndoes
Redoes
EndRedoes
EndUndoRedoHistory
Fore
SplineSet
471 -16 m 0,0,1
 384 -16 384 -16 307 16.5 c 128,-1,2
 230 49 230 49 171.5 107 c 128,-1,3
 113 165 113 165 79 240.5 c 128,-1,4
 45 316 45 316 45 403 c 256,5,6
 45 490 45 490 79 566 c 128,-1,7
 113 642 113 642 171.5 700 c 128,-1,8
 230 758 230 758 307 790.5 c 128,-1,9
 384 823 384 823 471 823 c 0,10,11
 567 823 567 823 637.5 790 c 128,-1,12
 708 757 708 757 759 708 c 1,13,-1
 678 627 l 1,14,15
 641 662 641 662 590.5 685.5 c 128,-1,16
 540 709 540 709 471 709 c 0,17,18
 408 709 408 709 353 685.5 c 128,-1,19
 298 662 298 662 257 620 c 128,-1,20
 216 578 216 578 193 522.5 c 128,-1,21
 170 467 170 467 170 403 c 256,22,23
 170 340 170 340 193 284.5 c 128,-1,24
 216 229 216 229 257 187 c 128,-1,25
 298 145 298 145 353 121.5 c 128,-1,26
 408 98 408 98 471 98 c 0,27,28
 553 98 553 98 603 125.5 c 128,-1,29
 653 153 653 153 683 182 c 0,30,31
 708 207 708 207 723.5 243 c 128,-1,32
 739 279 739 279 745 327 c 1,33,-1
 471 327 l 1,34,-1
 471 441 l 1,35,-1
 857 441 l 1,36,37
 863 410 863 410 863 370 c 0,38,39
 863 327 863 327 854 279 c 128,-1,40
 845 231 845 231 823.5 185 c 128,-1,41
 802 139 802 139 764 101 c 0,42,43
 709 44 709 44 637 14 c 128,-1,44
 565 -16 565 -16 471 -16 c 0,0,1
EndSplineSet
Ligature2: "<2,2> Cursive in Latin lookup 24 subtable" g o o g l e underscore g
Ligature2: "<2,2> Cursive in Latin lookup 24 subtable" g o o g l e underscore G
Ligature2: "<2,2> Cursive in Latin lookup 24 subtable" G underscore l o g o
Ligature2: "<1,2> Common Ligatures in Latin lookup 23 subtable" G l o g o l i g a t u r e
EndChar

StartChar: G.super
Encoding: 65540 -1 237
Width: 1024
GlyphClass: 1
Flags: W
LayerCount: 2
UndoRedoHistory
Layer: 0
Undoes
UndoOperation
Index: 0
Type: 1
WasModified: 0
WasOrder2: 1
Layer: 2
Width: 1000
VWidth: 1000
LBearingChange: 0
UnicodeEnc: 0
InstructionsLength: 0
EndUndoOperation
EndUndoes
Redoes
EndRedoes
EndUndoRedoHistory
UndoRedoHistory
Layer: 1
Undoes
UndoOperation
Index: 0
Type: 3
WasModified: 0
WasOrder2: 1
Layer: 2
EndUndoOperation
EndUndoes
Redoes
EndRedoes
EndUndoRedoHistory
Fore
SplineSet
511 -42 m 0,0,1
 423 -42 423 -42 345.5 -8.5 c 128,-1,2
 268 25 268 25 210 83 c 128,-1,3
 152 141 152 141 118.5 218.5 c 128,-1,4
 85 296 85 296 85 384 c 256,5,6
 85 472 85 472 118.5 549.5 c 128,-1,7
 152 627 152 627 210 685 c 128,-1,8
 268 743 268 743 345.5 776.5 c 128,-1,9
 423 810 423 810 511 810 c 0,10,11
 597 810 597 810 668.5 780.5 c 128,-1,12
 740 751 740 751 796 699 c 1,13,-1
 674 577 l 1,14,15
 607 640 607 640 511 640 c 0,16,17
 441 640 441 640 384 605 c 128,-1,18
 327 570 327 570 293 512 c 128,-1,19
 259 454 259 454 259 384 c 256,20,21
 259 314 259 314 293 256 c 128,-1,22
 327 198 327 198 384 162.5 c 128,-1,23
 441 127 441 127 511 127 c 0,24,25
 605 127 605 127 666 175 c 128,-1,26
 727 223 727 223 740 297 c 1,27,-1
 511 297 l 1,28,-1
 511 462 l 1,29,-1
 912 462 l 1,30,31
 916 440 916 440 918 418.5 c 128,-1,32
 920 397 920 397 920 374 c 0,33,34
 920 253 920 253 869 159 c 128,-1,35
 818 65 818 65 726 11.5 c 128,-1,36
 634 -42 634 -42 511 -42 c 0,0,1
EndSplineSet
Ligature2: "<2,2> Cursive in Latin lookup 24 subtable" s u p e r underscore g underscore l o g o
Ligature2: "<2,2> Cursive in Latin lookup 24 subtable" s u p e r underscore G underscore l o g o
EndChar

StartChar: uni0237
Encoding: 65541 -1 238
Width: 214
GlyphClass: 1
Flags: W
LayerCount: 2
UndoRedoHistory
Layer: 0
Undoes
UndoOperation
Index: 0
Type: 1
WasModified: 0
WasOrder2: 1
Layer: 2
Width: 209
VWidth: 1000
LBearingChange: 0
UnicodeEnc: 0
InstructionsLength: 0
EndUndoOperation
EndUndoes
Redoes
EndRedoes
EndUndoRedoHistory
UndoRedoHistory
Layer: 1
Undoes
UndoOperation
Index: 0
Type: 3
WasModified: 0
WasOrder2: 1
Layer: 2
EndUndoOperation
EndUndoes
Redoes
EndRedoes
EndUndoRedoHistory
Fore
SplineSet
6 -231 m 0,0,1
 -8 -231 -8 -231 -19.5 -229 c 128,-1,2
 -31 -227 -31 -227 -40 -224 c 1,3,-1
 -40 -141 l 1,4,5
 -32 -145 -32 -145 -19.5 -149 c 128,-1,6
 -7 -153 -7 -153 3 -153 c 0,7,8
 36 -153 36 -153 49.5 -132.5 c 128,-1,9
 63 -112 63 -112 63 -74 c 2,10,-1
 63 522 l 1,11,-1
 151 522 l 1,12,-1
 151 -74 l 2,13,14
 151 -128 151 -128 133 -163 c 128,-1,15
 115 -198 115 -198 82.5 -214.5 c 128,-1,16
 50 -231 50 -231 6 -231 c 0,0,1
EndSplineSet
EndChar

StartChar: e.logo
Encoding: 65542 -1 239
Width: 526
GlyphClass: 1
Flags: W
LayerCount: 2
UndoRedoHistory
Layer: 0
Undoes
UndoOperation
Index: 0
Type: 1
WasModified: 0
WasOrder2: 1
Layer: 2
Width: 514
VWidth: 1000
LBearingChange: 0
UnicodeEnc: 0
InstructionsLength: 0
EndUndoOperation
EndUndoes
Redoes
EndRedoes
EndUndoRedoHistory
UndoRedoHistory
Layer: 1
Undoes
UndoOperation
Index: 0
Type: 3
WasModified: 0
WasOrder2: 1
Layer: 2
EndUndoOperation
EndUndoes
Redoes
EndRedoes
EndUndoRedoHistory
Fore
SplineSet
144 255 m 0,0,1
 144 200 144 200 166 163 c 128,-1,2
 188 126 188 126 223 108 c 128,-1,3
 258 90 258 90 296 90 c 0,4,5
 341 90 341 90 374 110.5 c 128,-1,6
 407 131 407 131 429 165 c 1,7,-1
 521 103 l 1,8,9
 507 81 507 81 477 53.5 c 128,-1,10
 447 26 447 26 402.5 5 c 128,-1,11
 358 -16 358 -16 296 -16 c 0,12,13
 219 -16 219 -16 158.5 19.5 c 128,-1,14
 98 55 98 55 63 116.5 c 128,-1,15
 28 178 28 178 28 254 c 0,16,17
 28 335 28 335 62.5 395.5 c 128,-1,18
 97 456 97 456 155 490 c 128,-1,19
 213 524 213 524 283 524 c 0,20,21
 335 524 335 524 375 506 c 128,-1,22
 415 488 415 488 442.5 460.5 c 128,-1,23
 470 433 470 433 488 404 c 128,-1,24
 506 375 506 375 514 352 c 2,25,-1
 526 322 l 1,26,-1
 124 155 l 1,27,-1
 102 244 l 1,28,-1
 387 362 l 1,29,30
 377 388 377 388 350 404 c 128,-1,31
 323 420 323 420 287 420 c 0,32,33
 256 420 256 420 223 403 c 128,-1,34
 190 386 190 386 167 349.5 c 128,-1,35
 144 313 144 313 144 255 c 0,0,1
EndSplineSet
Ligature2: "<2,2> Cursive in Latin lookup 24 subtable" e underscore l o g o
Ligature2: "<1,2> Common Ligatures in Latin lookup 23 subtable" e l o g o l i g a t u r e
EndChar

StartChar: g.logo
Encoding: 65543 -1 240
Width: 579
GlyphClass: 1
Flags: W
LayerCount: 2
UndoRedoHistory
Layer: 0
Undoes
UndoOperation
Index: 0
Type: 1
WasModified: 0
WasOrder2: 1
Layer: 2
Width: 566
VWidth: 1000
LBearingChange: 0
UnicodeEnc: 0
InstructionsLength: 0
EndUndoOperation
EndUndoes
Redoes
EndRedoes
EndUndoRedoHistory
UndoRedoHistory
Layer: 1
Undoes
UndoOperation
Index: 0
Type: 3
WasModified: 0
WasOrder2: 1
Layer: 2
EndUndoOperation
EndUndoes
Redoes
EndRedoes
EndUndoRedoHistory
Fore
SplineSet
284 -259 m 0,0,1
 218 -259 218 -259 170 -234 c 128,-1,2
 122 -209 122 -209 90.5 -172 c 128,-1,3
 59 -135 59 -135 44 -99 c 1,4,-1
 147 -56 l 1,5,6
 156 -78 156 -78 174.5 -100.5 c 128,-1,7
 193 -123 193 -123 220.5 -138 c 128,-1,8
 248 -153 248 -153 284 -153 c 0,9,10
 351 -153 351 -153 389.5 -112.5 c 128,-1,11
 428 -72 428 -72 428 6 c 2,12,-1
 428 45 l 1,13,-1
 424 45 l 1,14,15
 405 20 405 20 367.5 2 c 128,-1,16
 330 -16 330 -16 282 -16 c 0,17,18
 232 -16 232 -16 185 4.5 c 128,-1,19
 138 25 138 25 101.5 61.5 c 128,-1,20
 65 98 65 98 44 147.5 c 128,-1,21
 23 197 23 197 23 253 c 0,22,23
 23 310 23 310 44 359.5 c 128,-1,24
 65 409 65 409 101.5 446 c 128,-1,25
 138 483 138 483 184.5 503.5 c 128,-1,26
 231 524 231 524 282 524 c 0,27,28
 330 524 330 524 367 505.5 c 128,-1,29
 404 487 404 487 424 464 c 1,30,-1
 428 464 l 1,31,-1
 428 508 l 1,32,-1
 541 508 l 1,33,-1
 541 23 l 2,34,35
 541 -76 541 -76 505.5 -139 c 128,-1,36
 470 -202 470 -202 412 -230.5 c 128,-1,37
 354 -259 354 -259 284 -259 c 0,0,1
292 90 m 256,38,39
 333 90 333 90 365 111 c 128,-1,40
 397 132 397 132 416.5 169 c 128,-1,41
 436 206 436 206 436 253 c 0,42,43
 436 301 436 301 416.5 338 c 128,-1,44
 397 375 397 375 365 396.5 c 128,-1,45
 333 418 333 418 292 418 c 256,46,47
 251 418 251 418 216.5 396.5 c 128,-1,48
 182 375 182 375 161.5 338 c 128,-1,49
 141 301 141 301 141 253 c 0,50,51
 141 206 141 206 161.5 169 c 128,-1,52
 182 132 182 132 216.5 111 c 128,-1,53
 251 90 251 90 292 90 c 256,38,39
EndSplineSet
Ligature2: "<2,2> Cursive in Latin lookup 24 subtable" g underscore l o g o
Ligature2: "<1,2> Common Ligatures in Latin lookup 23 subtable" g l o g o l i g a t u r e
EndChar

StartChar: l.logo
Encoding: 65544 -1 241
Width: 191
GlyphClass: 1
Flags: W
LayerCount: 2
UndoRedoHistory
Layer: 0
Undoes
UndoOperation
Index: 0
Type: 1
WasModified: 0
WasOrder2: 1
Layer: 2
Width: 187
VWidth: 1000
LBearingChange: 0
UnicodeEnc: 0
InstructionsLength: 0
EndUndoOperation
EndUndoes
Redoes
EndRedoes
EndUndoRedoHistory
UndoRedoHistory
Layer: 1
Undoes
UndoOperation
Index: 0
Type: 3
WasModified: 0
WasOrder2: 1
Layer: 2
EndUndoOperation
EndUndoes
Redoes
EndRedoes
EndUndoRedoHistory
Fore
SplineSet
43 0 m 1,0,-1
 43 795 l 1,1,-1
 162 795 l 1,2,-1
 162 0 l 1,3,-1
 43 0 l 1,0,-1
EndSplineSet
Ligature2: "<2,2> Cursive in Latin lookup 24 subtable" l underscore l o g o
Ligature2: "<1,2> Common Ligatures in Latin lookup 23 subtable" l l o g o l i g a t u r e
EndChar

StartChar: o.logo
Encoding: 65545 -1 242
Width: 591
GlyphClass: 1
Flags: W
LayerCount: 2
UndoRedoHistory
Layer: 0
Undoes
UndoOperation
Index: 0
Type: 1
WasModified: 0
WasOrder2: 1
Layer: 2
Width: 578
VWidth: 1000
LBearingChange: 0
UnicodeEnc: 0
InstructionsLength: 0
EndUndoOperation
EndUndoes
Redoes
EndRedoes
EndUndoRedoHistory
UndoRedoHistory
Layer: 1
Undoes
UndoOperation
Index: 0
Type: 3
WasModified: 0
WasOrder2: 1
Layer: 2
EndUndoOperation
EndUndoes
Redoes
EndRedoes
EndUndoRedoHistory
Fore
SplineSet
294 -16 m 256,0,1
 219 -16 219 -16 157.5 19 c 128,-1,2
 96 54 96 54 59.5 115 c 128,-1,3
 23 176 23 176 23 254 c 0,4,5
 23 333 23 333 59.5 394 c 128,-1,6
 96 455 96 455 157.5 489.5 c 128,-1,7
 219 524 219 524 294 524 c 256,8,9
 369 524 369 524 430.5 489.5 c 128,-1,10
 492 455 492 455 528.5 394 c 128,-1,11
 565 333 565 333 565 254 c 0,12,13
 565 176 565 176 528.5 115 c 128,-1,14
 492 54 492 54 430.5 19 c 128,-1,15
 369 -16 369 -16 294 -16 c 256,0,1
294 90 m 256,16,17
 335 90 335 90 369.5 111 c 128,-1,18
 404 132 404 132 425 169 c 128,-1,19
 446 206 446 206 446 254 c 0,20,21
 446 303 446 303 425 340 c 128,-1,22
 404 377 404 377 369.5 397.5 c 128,-1,23
 335 418 335 418 294 418 c 256,24,25
 253 418 253 418 218 397.5 c 128,-1,26
 183 377 183 377 162 340 c 128,-1,27
 141 303 141 303 141 254 c 0,28,29
 141 206 141 206 162 169 c 128,-1,30
 183 132 183 132 218 111 c 128,-1,31
 253 90 253 90 294 90 c 256,16,17
EndSplineSet
Ligature2: "<2,2> Cursive in Latin lookup 24 subtable" o underscore l o g o
Ligature2: "<1,2> Common Ligatures in Latin lookup 23 subtable" o l o g o l i g a t u r e
EndChar

StartChar: uni03BC
Encoding: 65563 -1 260
Width: 644
GlyphClass: 1
Flags: W
LayerCount: 2
UndoRedoHistory
Layer: 0
Undoes
UndoOperation
Index: 0
Type: 1
WasModified: 0
WasOrder2: 1
Layer: 2
Width: 629
VWidth: 1000
LBearingChange: 0
UnicodeEnc: 0
InstructionsLength: 0
EndUndoOperation
EndUndoes
Redoes
EndRedoes
EndUndoRedoHistory
UndoRedoHistory
Layer: 1
Undoes
UndoOperation
Index: 0
Type: 3
WasModified: 0
WasOrder2: 1
Layer: 2
EndUndoOperation
EndUndoes
Redoes
EndRedoes
EndUndoRedoHistory
Fore
SplineSet
63 -221 m 1,0,-1
 63 522 l 1,1,-1
 151 522 l 1,2,-1
 151 203 l 2,3,4
 151 151 151 151 166 120 c 128,-1,5
 181 89 181 89 207 75.5 c 128,-1,6
 233 62 233 62 263 62 c 0,7,8
 314 62 314 62 350.5 90 c 128,-1,9
 387 118 387 118 406.5 159.5 c 128,-1,10
 426 201 426 201 426 241 c 2,11,-1
 426 522 l 1,12,-1
 512 522 l 1,13,-1
 512 150 l 2,14,15
 512 113 512 113 527.5 93 c 128,-1,16
 543 73 543 73 574 73 c 0,17,18
 585 73 585 73 595 76 c 128,-1,19
 605 79 605 79 616 84 c 1,20,-1
 616 -1 l 1,21,22
 606 -4 606 -4 596 -6 c 128,-1,23
 586 -8 586 -8 569 -8 c 0,24,25
 503 -8 503 -8 473.5 17 c 128,-1,26
 444 42 444 42 433 87 c 1,27,-1
 429 87 l 1,28,29
 417 64 417 64 395 40 c 128,-1,30
 373 16 373 16 342.5 0 c 128,-1,31
 312 -16 312 -16 275 -16 c 0,32,33
 228 -16 228 -16 196.5 4 c 128,-1,34
 165 24 165 24 151 55 c 1,35,-1
 146 55 l 1,36,-1
 151 5 l 1,37,-1
 151 -221 l 1,38,-1
 63 -221 l 1,0,-1
EndSplineSet
EndChar

StartChar: zero.numerator
Encoding: 65574 -1 271
Width: 375
GlyphClass: 1
Flags: W
LayerCount: 2
UndoRedoHistory
Layer: 0
Undoes
UndoOperation
Index: 0
Type: 1
WasModified: 0
WasOrder2: 1
Layer: 2
Width: 367
VWidth: 1000
LBearingChange: 0
UnicodeEnc: 0
InstructionsLength: 0
EndUndoOperation
EndUndoes
Redoes
EndRedoes
EndUndoRedoHistory
UndoRedoHistory
Layer: 1
Undoes
UndoOperation
Index: 0
Type: 3
WasModified: 0
WasOrder2: 1
Layer: 2
EndUndoOperation
EndUndoes
Redoes
EndRedoes
EndUndoRedoHistory
Fore
SplineSet
187 350 m 256,0,1
 136 350 136 350 101.5 379 c 128,-1,2
 67 408 67 408 49 453 c 128,-1,3
 31 498 31 498 31 546 c 0,4,5
 31 595 31 595 49 639.5 c 128,-1,6
 67 684 67 684 101.5 712.5 c 128,-1,7
 136 741 136 741 187 741 c 256,8,9
 238 741 238 741 273.5 712.5 c 128,-1,10
 309 684 309 684 327 639.5 c 128,-1,11
 345 595 345 595 345 546 c 0,12,13
 345 498 345 498 327 453 c 128,-1,14
 309 408 309 408 273.5 379 c 128,-1,15
 238 350 238 350 187 350 c 256,0,1
187 411 m 0,16,17
 220 411 220 411 239.5 433 c 128,-1,18
 259 455 259 455 267.5 486 c 128,-1,19
 276 517 276 517 276 546 c 256,20,21
 276 575 276 575 267.5 606 c 128,-1,22
 259 637 259 637 239.5 659 c 128,-1,23
 220 681 220 681 187 681 c 0,24,25
 155 681 155 681 136 659 c 128,-1,26
 117 637 117 637 108 605.5 c 128,-1,27
 99 574 99 574 99 546 c 256,28,29
 99 517 99 517 108 486 c 128,-1,30
 117 455 117 455 136 433 c 128,-1,31
 155 411 155 411 187 411 c 0,16,17
EndSplineSet
EndChar

StartChar: one.numerator
Encoding: 65575 -1 272
Width: 238
GlyphClass: 1
Flags: W
LayerCount: 2
UndoRedoHistory
Layer: 0
Undoes
UndoOperation
Index: 0
Type: 1
WasModified: 0
WasOrder2: 1
Layer: 2
Width: 233
VWidth: 1000
LBearingChange: 0
UnicodeEnc: 0
InstructionsLength: 0
EndUndoOperation
EndUndoes
Redoes
EndRedoes
EndUndoRedoHistory
UndoRedoHistory
Layer: 1
Undoes
UndoOperation
Index: 0
Type: 3
WasModified: 0
WasOrder2: 1
Layer: 2
EndUndoOperation
EndUndoes
Redoes
EndRedoes
EndUndoRedoHistory
Fore
SplineSet
114 358 m 1,0,-1
 114 647 l 1,1,-1
 60 603 l 1,2,-1
 23 652 l 1,3,-1
 123 733 l 1,4,-1
 180 733 l 1,5,-1
 180 358 l 1,6,-1
 114 358 l 1,0,-1
EndSplineSet
EndChar

StartChar: two.numerator
Encoding: 65576 -1 273
Width: 305
GlyphClass: 1
Flags: W
LayerCount: 2
UndoRedoHistory
Layer: 0
Undoes
UndoOperation
Index: 0
Type: 1
WasModified: 0
WasOrder2: 1
Layer: 2
Width: 298
VWidth: 1000
LBearingChange: 0
UnicodeEnc: 0
InstructionsLength: 0
EndUndoOperation
EndUndoes
Redoes
EndRedoes
EndUndoRedoHistory
UndoRedoHistory
Layer: 1
Undoes
UndoOperation
Index: 0
Type: 3
WasModified: 0
WasOrder2: 1
Layer: 2
EndUndoOperation
EndUndoes
Redoes
EndRedoes
EndUndoRedoHistory
Fore
SplineSet
25 358 m 1,0,-1
 25 416 l 2,1,2
 27 418 27 418 39.5 430.5 c 128,-1,3
 52 443 52 443 70.5 462 c 128,-1,4
 89 481 89 481 108.5 500 c 128,-1,5
 128 519 128 519 143 534 c 128,-1,6
 158 549 158 549 163 554 c 0,7,8
 180 569 180 569 194 589 c 128,-1,9
 208 609 208 609 208 632 c 0,10,11
 208 652 208 652 191.5 666.5 c 128,-1,12
 175 681 175 681 151 681 c 0,13,14
 128 681 128 681 109.5 666 c 128,-1,15
 91 651 91 651 84 618 c 1,16,-1
 23 644 l 1,17,18
 34 690 34 690 69.5 715.5 c 128,-1,19
 105 741 105 741 150 741 c 0,20,21
 183 741 183 741 211.5 728 c 128,-1,22
 240 715 240 715 257.5 690.5 c 128,-1,23
 275 666 275 666 275 632 c 0,24,25
 275 607 275 607 264 585.5 c 128,-1,26
 253 564 253 564 238 547 c 128,-1,27
 223 530 223 530 212 518 c 0,28,29
 204 509 204 509 189 494 c 128,-1,30
 174 479 174 479 157.5 462.5 c 128,-1,31
 141 446 141 446 129 434 c 128,-1,32
 117 422 117 422 113 419 c 1,33,-1
 278 419 l 1,34,-1
 278 358 l 1,35,-1
 25 358 l 1,0,-1
EndSplineSet
EndChar

StartChar: three.numerator
Encoding: 65577 -1 274
Width: 325
GlyphClass: 1
Flags: W
LayerCount: 2
UndoRedoHistory
Layer: 0
Undoes
UndoOperation
Index: 0
Type: 1
WasModified: 0
WasOrder2: 1
Layer: 2
Width: 318
VWidth: 1000
LBearingChange: 0
UnicodeEnc: 0
InstructionsLength: 0
EndUndoOperation
EndUndoes
Redoes
EndRedoes
EndUndoRedoHistory
UndoRedoHistory
Layer: 1
Undoes
UndoOperation
Index: 0
Type: 3
WasModified: 0
WasOrder2: 1
Layer: 2
EndUndoOperation
EndUndoes
Redoes
EndRedoes
EndUndoRedoHistory
Fore
SplineSet
160 350 m 0,0,1
 114 350 114 350 75 374 c 128,-1,2
 36 398 36 398 23 452 c 1,3,-1
 84 475 l 1,4,5
 93 440 93 440 114.5 425.5 c 128,-1,6
 136 411 136 411 160 411 c 0,7,8
 187 411 187 411 206.5 427 c 128,-1,9
 226 443 226 443 226 470 c 0,10,11
 226 496 226 496 206.5 510 c 128,-1,12
 187 524 187 524 161 524 c 0,13,14
 137 524 137 524 128 524 c 128,-1,15
 119 524 119 524 119 524 c 1,16,-1
 119 582 l 1,17,18
 119 582 119 582 126.5 582 c 128,-1,19
 134 582 134 582 143 582 c 128,-1,20
 152 582 152 582 156 582 c 0,21,22
 182 582 182 582 197.5 596 c 128,-1,23
 213 610 213 610 213 633 c 256,24,25
 213 656 213 656 196.5 668.5 c 128,-1,26
 180 681 180 681 159 681 c 0,27,28
 130 681 130 681 115.5 665.5 c 128,-1,29
 101 650 101 650 95 635 c 1,30,-1
 37 658 l 1,31,32
 50 695 50 695 81 718 c 128,-1,33
 112 741 112 741 159 741 c 0,34,35
 213 741 213 741 247.5 711 c 128,-1,36
 282 681 282 681 282 634 c 0,37,38
 282 608 282 608 269 589 c 128,-1,39
 256 570 256 570 234 556 c 1,40,41
 260 543 260 543 277 521.5 c 128,-1,42
 294 500 294 500 294 470 c 0,43,44
 294 432 294 432 275 405.5 c 128,-1,45
 256 379 256 379 226 364.5 c 128,-1,46
 196 350 196 350 160 350 c 0,0,1
EndSplineSet
EndChar

StartChar: four.numerator
Encoding: 65578 -1 275
Width: 346
GlyphClass: 1
Flags: W
LayerCount: 2
UndoRedoHistory
Layer: 0
Undoes
UndoOperation
Index: 0
Type: 1
WasModified: 0
WasOrder2: 1
Layer: 2
Width: 338
VWidth: 1000
LBearingChange: 0
UnicodeEnc: 0
InstructionsLength: 0
EndUndoOperation
EndUndoes
Redoes
EndRedoes
EndUndoRedoHistory
UndoRedoHistory
Layer: 1
Undoes
UndoOperation
Index: 0
Type: 3
WasModified: 0
WasOrder2: 1
Layer: 2
EndUndoOperation
EndUndoes
Redoes
EndRedoes
EndUndoRedoHistory
Fore
SplineSet
27 434 m 1,0,-1
 27 479 l 1,1,-1
 207 733 l 1,2,-1
 269 733 l 1,3,-1
 269 358 l 1,4,-1
 203 358 l 1,5,-1
 203 632 l 1,6,-1
 199 632 l 1,7,-1
 98 492 l 1,8,-1
 319 492 l 1,9,-1
 319 434 l 1,10,-1
 27 434 l 1,0,-1
EndSplineSet
EndChar

StartChar: five.numerator
Encoding: 65579 -1 276
Width: 317
GlyphClass: 1
Flags: W
LayerCount: 2
UndoRedoHistory
Layer: 0
Undoes
UndoOperation
Index: 0
Type: 1
WasModified: 0
WasOrder2: 1
Layer: 2
Width: 310
VWidth: 1000
LBearingChange: 0
UnicodeEnc: 0
InstructionsLength: 0
EndUndoOperation
EndUndoes
Redoes
EndRedoes
EndUndoRedoHistory
UndoRedoHistory
Layer: 1
Undoes
UndoOperation
Index: 0
Type: 3
WasModified: 0
WasOrder2: 1
Layer: 2
EndUndoOperation
EndUndoes
Redoes
EndRedoes
EndUndoRedoHistory
Fore
SplineSet
159 351 m 0,0,1
 131 351 131 351 103.5 360.5 c 128,-1,2
 76 370 76 370 54 390.5 c 128,-1,3
 32 411 32 411 23 444 c 1,4,-1
 85 468 l 1,5,6
 91 441 91 441 111 426.5 c 128,-1,7
 131 412 131 412 159 412 c 0,8,9
 188 412 188 412 207 433 c 128,-1,10
 226 454 226 454 226 482 c 0,11,12
 226 512 226 512 206.5 532 c 128,-1,13
 187 552 187 552 159 552 c 0,14,15
 140 552 140 552 123 544 c 128,-1,16
 106 536 106 536 92 516 c 1,17,-1
 35 540 l 1,18,-1
 60 733 l 1,19,-1
 272 733 l 1,20,-1
 272 676 l 1,21,-1
 116 676 l 1,22,-1
 103 588 l 1,23,24
 114 598 114 598 131 603.5 c 128,-1,25
 148 609 148 609 167 609 c 0,26,27
 219 609 219 609 256.5 574.5 c 128,-1,28
 294 540 294 540 294 481 c 0,29,30
 294 444 294 444 275.5 414.5 c 128,-1,31
 257 385 257 385 226.5 368 c 128,-1,32
 196 351 196 351 159 351 c 0,0,1
EndSplineSet
EndChar

